{
.appVersion = "3133";
.formatVersion = 3;
axes = (
{
name = Weight;
tag = wght;
}
);
classes = (
{
automatic = 1;

glyphs = (
{
color = 4;
glyphname = A;
kernLeft = A;
kernRight = A;
layers = (
{
anchors = (
{
name = bottom;
pos = (325,0);
},
{
name = ogonek;
pos = (588,0);
},
{
name = top;
pos = (325,686);
}
);
layerId = "F84504BD-929B-4EC5-838D-CC63F45B30C5";
shapes = (
{
closed = 1;
nodes = (
(73,0,l),
(143,170,l),
(505,170,l),
(576,0,l),
(635,0,l),
(351,686,l),
(301,686,l),
(17,0,l)
);
},
{
closed = 1;
nodes = (
(322,612,l),
(326,612,l),
(485,219,l),
(163,219,l)
);
}
);
width = 652;
},
{
anchors = (
{
name = bottom;
pos = (355,0);
},
{
name = ogonek;
pos = (541,0);
},
{
name = top;
pos = (355,686);
}
);
layerId = "B61048DD-A105-4E1B-AF86-BB1631F6D87A";
shapes = (
{
closed = 1;
nodes = (
(197,0,l),
(237,122,l),
(455,122,l),
(496,0,l),
(714,0,l),
(485,686,l),
(224,686,l),
(-5,0,l)
);
},
{
closed = 1;
nodes = (
(344,475,l),
(349,475,l),
(407,267,l),
(285,267,l)
);
}
);
width = 709;
},
{
anchors = (
{
name = bottom;
pos = (335,0);
},
{
name = ogonek;
pos = (557,0);
},
{
name = top;
pos = (337,686);
}
);
layerId = "D456B91C-7AE2-46C5-8C20-B2F338249762";
shapes = (
{
closed = 1;
nodes = (
(128,0,l),
(185,149,l),
(483,149,l),
(540,0,l),
(670,0,l),
(411,686,l),
(267,686,l),
(7,0,l)
);
},
{
closed = 1;
nodes = (
(332,551,l),
(336,551,l),
(450,240,l),
(217,240,l)
);
}
);
width = 677;
}
);
note = A;
unicode = 65;
},
{
color = 1;
glyphname = Aacute;
kernLeft = A;
kernRight = A;
layers = (
{
background = {
shapes = (
{
closed = 1;
nodes = (
(297,750,l),
(347,750,l),
(458,892,l),
(458,895,l),
(393,895,l)
);
},
{
closed = 1;
nodes = (
(492,170,l),
(563,0,l),
(622,0,l),
(338,686,l),
(288,686,l),
(4,0,l),
(60,0,l),
(130,170,l)
);
},
{
closed = 1;
nodes = (
(150,219,l),
(309,612,l),
(313,612,l),
(472,219,l)
);
}
);
};
layerId = "F84504BD-929B-4EC5-838D-CC63F45B30C5";
shapes = (
{
ref = A;
},
{
pos = (94,0);
ref = acutecomb.cap;
}
);
width = 652;
},
{
background = {
shapes = (
{
closed = 1;
nodes = (
(545,893,l),
(543,896,l),
(392,896,l),
(301,751,l),
(419,751,l)
);
},
{
closed = 1;
nodes = (
(714,0,l),
(485,686,l),
(224,686,l),
(-5,0,l),
(197,0,l),
(237,122,l),
(455,122,l),
(496,0,l)
);
},
{
closed = 1;
nodes = (
(344,475,l),
(349,475,l),
(407,267,l),
(285,267,l)
);
}
);
};
layerId = "B61048DD-A105-4E1B-AF86-BB1631F6D87A";
shapes = (
{
ref = A;
},
{
pos = (107,0);
ref = acutecomb.cap;
}
);
width = 709;
},
{
layerId = "D456B91C-7AE2-46C5-8C20-B2F338249762";
shapes = (
{
ref = A;
},
{
pos = (109,0);
ref = acutecomb.cap;
}
);
width = 677;
}
);
note = Aacute;
unicode = 193;
},
{
color = 1;
glyphname = Agrave;
kernLeft = A;
kernRight = A;
layers = (
{
background = {
shapes = (
{
closed = 1;
nodes = (
(300,750,l),
(350,750,l),
(254,895,l),
(189,895,l),
(189,892,l)
);
},
{
closed = 1;
nodes = (
(492,170,l),
(563,0,l),
(622,0,l),
(338,686,l),
(288,686,l),
(4,0,l),
(60,0,l),
(130,170,l)
);
},
{
closed = 1;
nodes = (
(150,219,l),
(309,612,l),
(313,612,l),
(472,219,l)
);
}
);
};
layerId = "F84504BD-929B-4EC5-838D-CC63F45B30C5";
shapes = (
{
ref = A;
},
{
pos = (-20,0);
ref = gravecomb.cap;
}
);
width = 652;
},
{
background = {
shapes = (
{
closed = 1;
nodes = (
(415,750,l),
(324,895,l),
(173,895,l),
(171,892,l),
(297,750,l)
);
},
{
closed = 1;
nodes = (
(714,0,l),
(485,686,l),
(224,686,l),
(-5,0,l),
(197,0,l),
(237,122,l),
(455,122,l),
(496,0,l)
);
},
{
closed = 1;
nodes = (
(344,475,l),
(349,475,l),
(407,267,l),
(285,267,l)
);
}
);
};
layerId = "B61048DD-A105-4E1B-AF86-BB1631F6D87A";
shapes = (
{
ref = A;
},
{
pos = (-11,0);
ref = gravecomb.cap;
}
);
width = 709;
},
{
layerId = "D456B91C-7AE2-46C5-8C20-B2F338249762";
shapes = (
{
ref = A;
},
{
pos = (-12,0);
ref = gravecomb.cap;
}
);
width = 677;
}
);
note = Agrave;
unicode = 192;
},
{
color = 4;
glyphname = AE;
kernLeft = A;
kernRight = E;
layers = (
{
anchors = (
{
name = top;
pos = (473,686);
}
);
layerId = "F84504BD-929B-4EC5-838D-CC63F45B30C5";
shapes = (
{
closed = 1;
nodes = (
(79,0,l),
(173,170,l),
(531,170,l),
(577,0,l),
(923,0,l),
(914,48,l),
(618,48,l),
(542,326,l),
(862,326,l),
(862,374,l),
(529,374,l),
(457,638,l),
(901,638,l),
(913,686,l),
(398,686,l),
(17,0,l)
);
},
{
closed = 1;
nodes = (
(408,607,l),
(411,608,l),
(517,219,l),
(200,219,l)
);
}
);
width = 975;
},
{
anchors = (
{
name = top;
pos = (473,686);
}
);
layerId = "B61048DD-A105-4E1B-AF86-BB1631F6D87A";
shapes = (
{
closed = 1;
nodes = (
(187,0,l),
(245,122,l),
(474,122,l),
(497,0,l),
(983,0,l),
(963,160,l),
(673,160,l),
(652,273,l),
(952,273,l),
(952,426,l),
(622,426,l),
(603,526,l),
(963,526,l),
(983,686,l),
(312,686,l),
(-13,0,l)
);
},
{
closed = 1;
nodes = (
(402,475,l),
(407,475,l),
(446,267,l),
(314,267,l)
);
}
);
width = 1011;
},
{
anchors = (
{
name = top;
pos = (473,686);
}
);
layerId = "D456B91C-7AE2-46C5-8C20-B2F338249762";
shapes = (
{
closed = 1;
nodes = (
(127,0,l),
(205,149,l),
(510,149,l),
(547,0,l),
(950,0,l),
(936,100,l),
(648,100,l),
(597,303,l),
(902,303,l),
(902,398,l),
(573,398,l),
(525,589,l),
(929,589,l),
(944,686,l),
(360,686,l),
(4,0,l)
);
},
{
closed = 1;
nodes = (
(405,548,l),
(409,549,l),
(487,240,l),
(251,240,l)
);
}
);
width = 991;
}
);
note = AE;
unicode = 198;
},
{
color = 4;
glyphname = B;
kernLeft = H;
kernRight = B;
layers = (
{
layerId = "F84504BD-929B-4EC5-838D-CC63F45B30C5";
shapes = (
{
closed = 1;
nodes = (
(387,0,ls),
(492,0,o),
(577,82,o),
(577,183,cs),
(577,317,o),
(476,348,o),
(440,353,c),
(440,359,l),
(493,372,o),
(561,424,o),
(561,526,cs),
(561,619,o),
(497,686,o),
(387,686,cs),
(107,686,l),
(107,0,l)
);
},
{
closed = 1;
nodes = (
(161,326,l),
(381,326,ls),
(459,326,o),
(523,264,o),
(523,186,cs),
(523,108,o),
(459,48,o),
(381,48,cs),
(161,48,l)
);
},
{
closed = 1;
nodes = (
(161,638,l),
(388,638,ls),
(468,638,o),
(506,586,o),
(506,511,cs),
(506,436,o),
(446,374,o),
(371,374,cs),
(161,374,l)
);
}
);
width = 651;
},
{
layerId = "B61048DD-A105-4E1B-AF86-BB1631F6D87A";
shapes = (
{
closed = 1;
nodes = (
(426,0,ls),
(531,0,o),
(629,79,o),
(629,197,cs),
(629,290,o),
(563,339,o),
(498,354,c),
(498,358,l),
(559,379,o),
(613,430,o),
(613,526,cs),
(613,632,o),
(527,686,o),
(425,686,cs),
(57,686,l),
(57,0,l)
);
},
{
closed = 1;
nodes = (
(250,277,l),
(367,277,ls),
(399,277,o),
(427,262,o),
(427,223,cs),
(427,178,o),
(403,154,o),
(365,154,cs),
(250,154,l)
);
},
{
closed = 1;
nodes = (
(250,540,l),
(365,540,ls),
(393,540,o),
(415,527,o),
(415,487,cs),
(415,454,o),
(403,423,o),
(365,423,cs),
(250,423,l)
);
}
);
width = 656;
},
{
background = {
shapes = (
{
closed = 1;
nodes = (
(410,0,ls),
(515,0,o),
(600,82,o),
(600,183,cs),
(600,306,o),
(517,344,o),
(466,353,c),
(466,359,l),
(522,376,o),
(584,422,o),
(584,524,cs),
(584,619,o),
(513,686,o),
(407,686,cs),
(85,686,l),
(85,0,l)
);
},
{
closed = 1;
nodes = (
(201,304,l),
(379,304,ls),
(435,304,o),
(480,264,o),
(480,203,cs),
(480,144,o),
(439,97,o),
(379,97,cs),
(201,97,l)
);
},
{
closed = 1;
nodes = (
(201,594,l),
(378,594,ls),
(435,594,o),
(466,560,o),
(466,500,cs),
(466,444,o),
(427,396,o),
(368,396,cs),
(201,396,l)
);
}
);
};
layerId = "D456B91C-7AE2-46C5-8C20-B2F338249762";
shapes = (
{
closed = 1;
nodes = (
(401,0,ls),
(518,0,o),
(600,84,o),
(600,200,cs),
(600,308,o),
(517,344,o),
(466,353,c),
(466,359,l),
(522,376,o),
(584,422,o),
(584,524,cs),
(584,619,o),
(513,686,o),
(407,686,cs),
(85,686,l),
(85,0,l)
);
},
{
closed = 1;
nodes = (
(205,302,l),
(377,302,ls),
(433,302,o),
(478,262,o),
(478,201,cs),
(478,142,o),
(437,94,o),
(377,94,cs),
(205,94,l)
);
},
{
closed = 1;
nodes = (
(205,592,l),
(376,592,ls),
(433,592,o),
(464,560,o),
(464,500,cs),
(464,444,o),
(425,396,o),
(366,396,cs),
(205,396,l)
);
}
);
width = 653;
}
);
note = B;
unicode = 66;
},
{
color = 4;
glyphname = C;
kernLeft = O;
kernRight = C;
layers = (
{
anchors = (
{
name = bottom;
pos = (332,0);
},
{
name = top;
pos = (329,686);
}
);
background = {
hints = (
{
horizontal = 1;
place = (-10, 48);
place = (-10, 48);
type = Stem;
},
{
horizontal = 1;
place = (648, 48);
place = (648, 48);
type = Stem;
},
{
place = (61, 54);
place = (61, 54);
type = Stem;
},
{
place = (539, 54);
place = (539, 54);
type = Stem;
}
);
shapes = (
{
closed = 1;
nodes = (
(538,251,l),
(538,81,o),
(442,38,o),
(337,38,cs),
(220,38,o),
(133,91,o),
(133,318,cs),
(133,368,ls),
(133,595,o),
(220,648,o),
(337,648,cs),
(442,648,o),
(538,606,o),
(538,434,c),
(591,434,l),
(591,642,o),
(469,696,o),
(337,696,cs),
(190,696,o),
(79,631,o),
(79,356,cs),
(79,330,ls),
(79,55,o),
(190,-10,o),
(337,-10,cs),
(469,-10,o),
(591,48,o),
(591,251,c)
);
}
);
};
layerId = "F84504BD-929B-4EC5-838D-CC63F45B30C5";
shapes = (
{
closed = 1;
nodes = (
(337,-10,ls),
(467,-10,o),
(591,55,o),
(591,251,c),
(538,251,l),
(538,81,o),
(442,38,o),
(337,38,cs),
(213,38,o),
(133,91,o),
(133,318,cs),
(133,368,ls),
(133,595,o),
(222,648,o),
(339,648,cs),
(449,648,o),
(538,606,o),
(538,434,c),
(591,434,l),
(591,640,o),
(475,696,o),
(347,696,cs),
(342,696,ls),
(198,696,o),
(79,631,o),
(79,356,cs),
(79,330,ls),
(79,55,o),
(188,-10,o),
(332,-10,cs)
);
}
);
width = 663;
},
{
anchors = (
{
name = bottom;
pos = (349,0);
},
{
name = top;
pos = (346,686);
}
);
layerId = "B61048DD-A105-4E1B-AF86-BB1631F6D87A";
shapes = (
{
closed = 1;
nodes = (
(373,-10,ls),
(535,-10,o),
(659,100,o),
(659,280,c),
(471,279,l),
(471,177,o),
(441,146,o),
(356,146,cs),
(292,146,o),
(256,187,o),
(256,246,cs),
(256,440,ls),
(256,499,o),
(295,540,o),
(356,540,cs),
(430,540,o),
(462,506,o),
(462,405,c),
(659,405,l),
(659,600,o),
(535,696,o),
(372,696,cs),
(344,696,ls),
(178,696,o),
(31,576,o),
(31,396,cs),
(31,290,ls),
(31,100,o),
(169,-10,o),
(345,-10,cs)
);
}
);
width = 683;
},
{
anchors = (
{
name = bottom;
pos = (340,0);
},
{
name = top;
pos = (344,686);
}
);
layerId = "D456B91C-7AE2-46C5-8C20-B2F338249762";
shapes = (
{
closed = 1;
nodes = (
(356,-10,ls),
(501,-10,o),
(621,72,o),
(621,264,c),
(508,264,l),
(508,124,o),
(442,86,o),
(345,86,cs),
(252,86,o),
(188,134,o),
(188,286,cs),
(188,400,ls),
(188,552,o),
(253,600,o),
(345,600,cs),
(437,600,o),
(504,562,o),
(504,421,c),
(621,421,l),
(621,622,o),
(497,696,o),
(353,696,cs),
(338,696,ls),
(184,696,o),
(58,607,o),
(58,374,cs),
(58,312,ls),
(58,75,o),
(183,-10,o),
(341,-10,cs)
);
}
);
width = 672;
}
);
note = C;
unicode = 67;
},
{
color = 4;
glyphname = D;
kernLeft = H;
kernRight = O;
layers = (
{
anchors = (
{
name = center;
pos = (185,348);
},
{
name = top;
pos = (302,686);
}
);
layerId = "F84504BD-929B-4EC5-838D-CC63F45B30C5";
shapes = (
{
closed = 1;
nodes = (
(327,0,ls),
(474,0,o),
(593,81,o),
(593,338,cs),
(593,363,ls),
(593,622,o),
(474,686,o),
(327,686,cs),
(107,686,l),
(107,0,l)
);
},
{
closed = 1;
nodes = (
(161,638,l),
(327,638,ls),
(444,638,o),
(539,582,o),
(539,370,cs),
(539,327,ls),
(539,109,o),
(444,48,o),
(327,48,cs),
(161,48,l)
);
}
);
width = 672;
},
{
anchors = (
{
name = center;
pos = (198,348);
},
{
name = top;
pos = (319,686);
}
);
layerId = "B61048DD-A105-4E1B-AF86-BB1631F6D87A";
shapes = (
{
closed = 1;
nodes = (
(366,0,ls),
(532,0,o),
(669,134,o),
(669,300,cs),
(669,399,ls),
(669,565,o),
(532,686,o),
(366,686,cs),
(57,686,l),
(57,0,l)
);
},
{
closed = 1;
nodes = (
(268,530,l),
(346,530,ls),
(402,530,o),
(444,492,o),
(444,436,cs),
(444,259,ls),
(444,203,o),
(402,159,o),
(346,159,cs),
(268,159,l)
);
}
);
width = 700;
},
{
anchors = (
{
name = center;
pos = (191,348);
},
{
name = top;
pos = (327,686);
}
);
layerId = "D456B91C-7AE2-46C5-8C20-B2F338249762";
shapes = (
{
closed = 1;
nodes = (
(344,0,ls),
(500,0,o),
(625,111,o),
(625,327,cs),
(625,379,ls),
(625,597,o),
(500,686,o),
(344,686,cs),
(85,686,l),
(85,0,l)
);
},
{
closed = 1;
nodes = (
(209,590,l),
(335,590,ls),
(425,590,o),
(495,542,o),
(495,399,cs),
(495,299,ls),
(495,153,o),
(425,96,o),
(335,96,cs),
(209,96,l)
);
}
);
width = 682;
}
);
metricLeft = H;
metricRight = O;
note = D;
unicode = 68;
},
{
color = 4;
glyphname = E;
kernLeft = H;
kernRight = E;
layers = (
{
anchors = (
{
name = bottom;
pos = (327,0);
},
{
name = ogonek;
pos = (490,0);
},
{
name = top;
pos = (314,686);
}
);
layerId = "F84504BD-929B-4EC5-838D-CC63F45B30C5";
shapes = (
{
closed = 1;
nodes = (
(541,0,l),
(530,48,l),
(161,48,l),
(161,326,l),
(480,326,l),
(480,374,l),
(161,374,l),
(161,638,l),
(521,638,l),
(531,686,l),
(107,686,l),
(107,0,l)
);
}
);
width = 593;
},
{
anchors = (
{
name = bottom;
pos = (325,0);
},
{
name = ogonek;
pos = (483,0);
},
{
name = top;
pos = (318,686);
}
);
layerId = "B61048DD-A105-4E1B-AF86-BB1631F6D87A";
shapes = (
{
closed = 1;
nodes = (
(572,0,l),
(552,160,l),
(263,160,l),
(263,273,l),
(541,273,l),
(541,426,l),
(263,426,l),
(263,526,l),
(552,526,l),
(572,686,l),
(57,686,l),
(57,0,l)
);
}
);
width = 600;
},
{
anchors = (
{
name = bottom;
pos = (332,0);
},
{
name = ogonek;
pos = (487,0);
},
{
name = top;
pos = (318,686);
}
);
layerId = "D456B91C-7AE2-46C5-8C20-B2F338249762";
shapes = (
{
closed = 1;
nodes = (
(555,0,l),
(540,96,l),
(209,96,l),
(209,302,l),
(507,302,l),
(507,398,l),
(209,398,l),
(209,590,l),
(535,590,l),
(549,686,l),
(85,686,l),
(85,0,l)
);
}
);
width = 596;
}
);
note = E;
unicode = 69;
},
{
color = 1;
glyphname = Eogonek;
kernLeft = H;
kernRight = E;
layers = (
{
background = {
shapes = (
{
closed = 1;
nodes = (
(576,-86,l),
(555,-93,o),
(533,-100,o),
(509,-100,cs),
(488,-100,o),
(465,-91,o),
(465,-60,cs),
(465,-33,o),
(489,-16,o),
(509,-2,cs),
(512,0,l),
(526,0,l),
(515,48,l),
(146,48,l),
(146,326,l),
(465,326,l),
(465,374,l),
(146,374,l),
(146,638,l),
(506,638,l),
(516,686,l),
(92,686,l),
(92,0,l),
(462,0,l),
(438,-16,o),
(408,-39,o),
(408,-71,cs),
(408,-126,o),
(459,-143,o),
(505,-143,cs),
(534,-143,o),
(563,-135,o),
(589,-119,c)
);
}
);
};
layerId = "F84504BD-929B-4EC5-838D-CC63F45B30C5";
shapes = (
{
ref = E;
},
{
pos = (227,0);
ref = ogonekcomb;
}
);
width = 593;
},
{
background = {
shapes = (
{
closed = 1;
nodes = (
(605,-76,l),
(584,-84,o),
(561,-90,o),
(538,-90,cs),
(517,-90,o),
(494,-83,o),
(494,-56,cs),
(494,-29,o),
(522,-12,o),
(541,0,c),
(572,0,l),
(552,164,l),
(263,164,l),
(263,275,l),
(541,275,l),
(541,428,l),
(263,428,l),
(263,528,l),
(552,528,l),
(572,686,l),
(57,686,l),
(57,0,l),
(471,0,l),
(447,-16,o),
(417,-39,o),
(417,-71,cs),
(417,-126,o),
(468,-143,o),
(514,-143,cs),
(551,-143,o),
(586,-135,o),
(618,-119,c)
);
}
);
};
layerId = "B61048DD-A105-4E1B-AF86-BB1631F6D87A";
shapes = (
{
ref = E;
},
{
pos = (201,0);
ref = ogonekcomb;
}
);
width = 600;
},
{
layerId = "D456B91C-7AE2-46C5-8C20-B2F338249762";
shapes = (
{
ref = E;
},
{
pos = (220,0);
ref = ogonekcomb;
}
);
width = 596;
}
);
note = Eogonek;
unicode = 280;
},
{
color = 4;
glyphname = Schwa;
kernLeft = Schwa;
kernRight = O;
layers = (
{
layerId = "B61048DD-A105-4E1B-AF86-BB1631F6D87A";
shapes = (
{
closed = 1;
nodes = (
(388,-10,ls),
(554,-10,o),
(683,124,o),
(683,290,cs),
(683,394,ls),
(683,560,o),
(556,694,o),
(390,694,cs),
(332,694,ls),
(197,694,o),
(42,603,o),
(42,460,cs),
(42,437,l),
(258,437,l),
(258,451,ls),
(258,515,o),
(310,540,o),
(364,540,cs),
(431,540,o),
(458,496,o),
(458,440,cs),
(458,220,ls),
(458,164,o),
(421,130,o),
(360,130,cs),
(303,130,o),
(263,162,o),
(263,220,cs),
(263,365,l),
(37,365,l),
(37,272,ls),
(37,106,o),
(166,-10,o),
(332,-10,cs)
);
},
{
closed = 1;
nodes = (
(647,220,l),
(647,365,l),
(91,365,l),
(91,220,l)
);
}
);
width = 714;
},
{
background = {
hints = (
{
horizontal = 1;
place = (-10, 48);
place = (-10, 48);
type = Stem;
},
{
horizontal = 1;
place = (648, 48);
place = (648, 48);
type = Stem;
},
{
place = (61, 54);
place = (61, 54);
type = Stem;
},
{
place = (539, 54);
place = (539, 54);
type = Stem;
}
);
shapes = (
{
closed = 1;
nodes = (
(350,696,ls),
(202,696,o),
(98,617,o),
(98,463,c),
(148,463,l),
(148,590,o),
(231,648,o),
(351,648,cs),
(473,648,o),
(561,600,o),
(561,368,cs),
(561,318,ls),
(561,91,o),
(471,38,o),
(354,38,cs),
(242,38,o),
(147,86,o),
(147,308,cs),
(147,335,l),
(93,335,l),
(93,320,ls),
(93,50,o),
(212,-10,o),
(354,-10,cs),
(357,-10,ls),
(502,-10,o),
(615,58,o),
(615,330,cs),
(615,356,ls),
(615,630,o),
(505,696,o),
(357,696,cs)
);
},
{
closed = 1;
nodes = (
(107,335,l),
(107,287,l),
(583,287,l),
(583,335,l)
);
}
);
};
layerId = "F84504BD-929B-4EC5-838D-CC63F45B30C5";
shapes = (
{
closed = 1;
nodes = (
(357,-10,ls),
(502,-10,o),
(615,58,o),
(615,330,cs),
(615,356,ls),
(615,630,o),
(505,696,o),
(357,696,cs),
(350,696,ls),
(206,696,o),
(98,616,o),
(98,472,cs),
(98,460,l),
(148,460,l),
(148,469,ls),
(148,588,o),
(234,648,o),
(351,648,cs),
(473,648,o),
(561,600,o),
(561,368,cs),
(561,318,ls),
(561,91,o),
(471,38,o),
(354,38,cs),
(242,38,o),
(147,86,o),
(147,308,cs),
(147,335,l),
(93,335,l),
(93,320,ls),
(93,50,o),
(212,-10,o),
(354,-10,cs)
);
},
{
closed = 1;
nodes = (
(583,287,l),
(583,335,l),
(107,335,l),
(107,287,l)
);
}
);
width = 694;
},
{
layerId = "D456B91C-7AE2-46C5-8C20-B2F338249762";
shapes = (
{
closed = 1;
nodes = (
(367,-10,ls),
(521,-10,o),
(645,87,o),
(645,312,cs),
(645,373,ls),
(645,599,o),
(528,695,o),
(372,695,cs),
(342,695,ls),
(202,695,o),
(73,610,o),
(73,467,cs),
(73,450,l),
(197,450,l),
(197,461,ls),
(197,556,o),
(268,599,o),
(357,599,cs),
(454,599,o),
(515,554,o),
(515,400,cs),
(515,274,ls),
(515,123,o),
(449,86,o),
(357,86,cs),
(269,86,o),
(199,120,o),
(199,269,cs),
(199,348,l),
(68,348,l),
(68,299,ls),
(68,75,o),
(188,-10,o),
(340,-10,cs)
);
},
{
closed = 1;
nodes = (
(611,257,l),
(611,348,l),
(100,348,l),
(100,257,l)
);
}
);
width = 703;
}
);
unicode = 399;
},
{
color = 4;
glyphname = F;
kernLeft = H;
kernRight = F;
layers = (
{
layerId = "F84504BD-929B-4EC5-838D-CC63F45B30C5";
shapes = (
{
closed = 1;
nodes = (
(161,0,l),
(161,326,l),
(454,326,l),
(454,374,l),
(161,374,l),
(161,638,l),
(504,638,l),
(513,686,l),
(107,686,l),
(107,0,l)
);
}
);
width = 550;
},
{
layerId = "B61048DD-A105-4E1B-AF86-BB1631F6D87A";
shapes = (
{
closed = 1;
nodes = (
(262,0,l),
(262,258,l),
(514,258,l),
(514,411,l),
(262,411,l),
(262,526,l),
(533,526,l),
(553,686,l),
(57,686,l),
(57,0,l)
);
}
);
width = 562;
},
{
layerId = "D456B91C-7AE2-46C5-8C20-B2F338249762";
shapes = (
{
closed = 1;
nodes = (
(209,0,l),
(209,294,l),
(481,294,l),
(481,390,l),
(209,390,l),
(209,590,l),
(517,590,l),
(531,686,l),
(85,686,l),
(85,0,l)
);
}
);
width = 555;
}
);
note = F;
unicode = 70;
},
{
color = 4;
glyphname = Fhook;
kernLeft = j;
kernRight = F;
layers = (
{
layerId = "B61048DD-A105-4E1B-AF86-BB1631F6D87A";
shapes = (
{
closed = 1;
nodes = (
(182,-187,o),
(262,-134,o),
(262,-26,cs),
(262,258,l),
(514,258,l),
(514,411,l),
(262,411,l),
(262,526,l),
(533,526,l),
(553,686,l),
(57,686,l),
(57,4,ls),
(57,-55,o),
(29,-65,o),
(1,-65,cs),
(-14,-65,o),
(-46,-60,o),
(-61,-53,c),
(-61,-165,l),
(-29,-178,o),
(39,-187,o),
(73,-187,cs)
);
}
);
width = 562;
},
{
layerId = "F84504BD-929B-4EC5-838D-CC63F45B30C5";
shapes = (
{
closed = 1;
nodes = (
(113,-186,o),
(159,-152,o),
(159,-75,cs),
(159,326,l),
(452,326,l),
(452,374,l),
(159,374,l),
(159,638,l),
(502,638,l),
(511,686,l),
(105,686,l),
(105,-73,ls),
(105,-132,o),
(76,-140,o),
(48,-140,cs),
(33,-140,o),
(2,-131,o),
(-14,-124,c),
(-14,-169,l),
(3,-179,o),
(29,-186,o),
(54,-186,cs)
);
}
);
width = 548;
},
{
layerId = "D456B91C-7AE2-46C5-8C20-B2F338249762";
shapes = (
{
closed = 1;
nodes = (
(144,-186,o),
(208,-144,o),
(208,-53,cs),
(208,294,l),
(480,294,l),
(480,390,l),
(208,390,l),
(208,590,l),
(516,590,l),
(530,686,l),
(84,686,l),
(84,-39,ls),
(84,-98,o),
(55,-107,o),
(27,-107,cs),
(12,-107,o),
(-19,-99,o),
(-35,-92,c),
(-35,-167,l),
(-11,-179,o),
(33,-186,o),
(62,-186,cs)
);
}
);
width = 554;
}
);
unicode = 401;
},
{
color = 4;
glyphname = G;
kernLeft = O;
kernRight = G;
layers = (
{
anchors = (
{
name = bottom;
pos = (340,0);
},
{
name = top;
pos = (342,686);
}
);
background = {
shapes = (
{
closed = 1;
nodes = (
(541,303,l),
(541,251,ls),
(541,79,o),
(442,38,o),
(337,38,cs),
(220,38,o),
(133,91,o),
(133,318,cs),
(133,368,ls),
(133,595,o),
(220,648,o),
(337,648,cs),
(439,648,o),
(538,608,o),
(538,449,c),
(591,449,l),
(591,645,o),
(466,696,o),
(337,696,cs),
(190,696,o),
(79,631,o),
(79,356,cs),
(79,330,ls),
(79,55,o),
(190,-10,o),
(337,-10,cs),
(422,-10,o),
(502,18,o),
(544,92,c),
(552,30,o),
(560,0,o),
(560,0,c),
(597,0,l),
(597,0,o),
(591,48,o),
(591,119,cs),
(591,350,l),
(309,350,l),
(309,303,l)
);
}
);
};
layerId = "F84504BD-929B-4EC5-838D-CC63F45B30C5";
shapes = (
{
closed = 1;
nodes = (
(341,-10,ls),
(424,-10,o),
(503,20,o),
(544,92,c),
(560,0,l),
(597,0,l),
(597,0,o),
(591,48,o),
(591,119,cs),
(591,350,l),
(309,350,l),
(309,303,l),
(541,303,l),
(541,251,ls),
(541,79,o),
(442,38,o),
(337,38,cs),
(220,38,o),
(133,91,o),
(133,318,cs),
(133,368,ls),
(133,595,o),
(220,648,o),
(337,648,cs),
(439,648,o),
(538,608,o),
(538,449,c),
(591,449,l),
(591,642,o),
(472,696,o),
(345,696,cs),
(340,696,ls),
(194,696,o),
(79,631,o),
(79,356,cs),
(79,330,ls),
(79,55,o),
(190,-10,o),
(336,-10,cs)
);
}
);
width = 677;
},
{
anchors = (
{
name = bottom;
pos = (349,0);
},
{
name = top;
pos = (361,686);
}
);
layerId = "B61048DD-A105-4E1B-AF86-BB1631F6D87A";
shapes = (
{
closed = 1;
nodes = (
(327,-10,ls),
(401,-10,o),
(481,25,o),
(523,73,c),
(551,0,l),
(663,0,l),
(658,51,o),
(656,82,o),
(656,144,cs),
(656,384,l),
(346,384,l),
(346,248,l),
(462,248,l),
(462,235,ls),
(462,172,o),
(425,146,o),
(357,146,cs),
(296,146,o),
(256,190,o),
(256,246,cs),
(256,440,ls),
(256,496,o),
(296,540,o),
(357,540,cs),
(425,540,o),
(462,504,o),
(462,439,c),
(656,439,l),
(656,589,o),
(535,696,o),
(378,696,cs),
(350,696,ls),
(162,696,o),
(31,562,o),
(31,396,cs),
(31,290,ls),
(31,124,o),
(152,-10,o),
(317,-10,cs)
);
}
);
width = 699;
},
{
anchors = (
{
name = bottom;
pos = (344,0);
},
{
name = top;
pos = (345,686);
}
);
layerId = "D456B91C-7AE2-46C5-8C20-B2F338249762";
shapes = (
{
closed = 1;
nodes = (
(335,-10,ls),
(414,-10,o),
(493,22,o),
(535,84,c),
(556,0,l),
(626,0,l),
(624,23,o),
(620,63,o),
(620,130,cs),
(620,365,l),
(325,365,l),
(325,279,l),
(506,279,l),
(506,244,ls),
(506,121,o),
(434,86,o),
(346,86,cs),
(254,86,o),
(188,135,o),
(188,286,cs),
(188,400,ls),
(188,551,o),
(254,600,o),
(346,600,cs),
(433,600,o),
(504,562,o),
(504,445,c),
(620,445,l),
(620,618,o),
(498,696,o),
(357,696,cs),
(342,696,ls),
(178,696,o),
(58,600,o),
(58,374,cs),
(58,312,ls),
(58,86,o),
(173,-10,o),
(328,-10,cs)
);
}
);
width = 687;
}
);
note = G;
unicode = 71;
},
{
color = 4;
glyphname = Gstroke;
layers = (
{
layerId = "F84504BD-929B-4EC5-838D-CC63F45B30C5";
shapes = (
{
closed = 1;
nodes = (
(341,-10,ls),
(424,-10,o),
(503,20,o),
(544,92,c),
(560,0,l),
(597,0,l),
(597,0,o),
(591,48,o),
(591,119,cs),
(591,350,l),
(309,350,l),
(309,303,l),
(541,303,l),
(541,251,ls),
(541,79,o),
(442,38,o),
(337,38,cs),
(220,38,o),
(133,91,o),
(133,318,cs),
(133,368,ls),
(133,595,o),
(220,648,o),
(337,648,cs),
(439,648,o),
(538,608,o),
(538,449,c),
(591,449,l),
(591,642,o),
(472,696,o),
(345,696,cs),
(340,696,ls),
(194,696,o),
(79,631,o),
(79,356,cs),
(79,330,ls),
(79,55,o),
(190,-10,o),
(336,-10,cs)
);
},
{
closed = 1;
nodes = (
(651,170,l),
(651,212,l),
(361,212,l),
(361,170,l)
);
}
);
width = 677;
},
{
layerId = "D456B91C-7AE2-46C5-8C20-B2F338249762";
shapes = (
{
closed = 1;
nodes = (
(335,-10,ls),
(414,-10,o),
(493,22,o),
(535,84,c),
(556,0,l),
(626,0,l),
(624,23,o),
(620,63,o),
(620,130,cs),
(620,365,l),
(325,365,l),
(325,279,l),
(506,279,l),
(506,244,ls),
(506,121,o),
(434,86,o),
(346,86,cs),
(254,86,o),
(188,135,o),
(188,286,cs),
(188,400,ls),
(188,551,o),
(254,600,o),
(346,600,cs),
(433,600,o),
(504,562,o),
(504,445,c),
(620,445,l),
(620,618,o),
(498,696,o),
(357,696,cs),
(342,696,ls),
(178,696,o),
(58,600,o),
(58,374,cs),
(58,312,ls),
(58,86,o),
(173,-10,o),
(328,-10,cs)
);
},
{
closed = 1;
nodes = (
(680,157,l),
(680,225,l),
(363,225,l),
(363,157,l)
);
}
);
width = 687;
},
{
layerId = "B61048DD-A105-4E1B-AF86-BB1631F6D87A";
shapes = (
{
closed = 1;
nodes = (
(327,-10,ls),
(401,-10,o),
(481,25,o),
(523,73,c),
(551,0,l),
(663,0,l),
(658,51,o),
(656,82,o),
(656,144,cs),
(656,384,l),
(346,384,l),
(346,278,l),
(462,278,l),
(462,215,ls),
(462,152,o),
(425,126,o),
(357,126,cs),
(296,126,o),
(256,170,o),
(256,226,cs),
(256,440,ls),
(256,496,o),
(296,540,o),
(357,540,cs),
(425,540,o),
(462,504,o),
(462,439,c),
(656,439,l),
(656,589,o),
(535,696,o),
(378,696,cs),
(350,696,ls),
(162,696,o),
(31,562,o),
(31,396,cs),
(31,290,ls),
(31,124,o),
(152,-10,o),
(317,-10,cs)
);
},
{
closed = 1;
nodes = (
(696,176,l),
(696,244,l),
(374,244,l),
(374,176,l)
);
}
);
width = 699;
}
);
unicode = 484;
},
{
color = 4;
glyphname = H;
kernLeft = H;
kernRight = H;
layers = (
{
anchors = (
{
name = bottom;
pos = (343,0);
},
{
name = center;
pos = (347,538);
},
{
name = top;
pos = (345,686);
}
);
layerId = "F84504BD-929B-4EC5-838D-CC63F45B30C5";
shapes = (
{
closed = 1;
nodes = (
(161,0,l),
(161,326,l),
(532,326,l),
(532,0,l),
(586,0,l),
(586,686,l),
(532,686,l),
(532,374,l),
(161,374,l),
(161,686,l),
(107,686,l),
(107,0,l)
);
}
);
width = 693;
},
{
anchors = (
{
name = bottom;
pos = (346,0);
},
{
name = center;
pos = (350,547);
},
{
name = top;
pos = (348,686);
}
);
layerId = "B61048DD-A105-4E1B-AF86-BB1631F6D87A";
shapes = (
{
closed = 1;
nodes = (
(269,0,l),
(269,267,l),
(430,267,l),
(430,0,l),
(640,0,l),
(640,686,l),
(429,686,l),
(429,433,l),
(268,433,l),
(268,686,l),
(57,686,l),
(57,0,l)
);
}
);
width = 697;
},
{
anchors = (
{
name = bottom;
pos = (344,0);
},
{
name = center;
pos = (348,542);
},
{
name = top;
pos = (346,686);
}
);
layerId = "D456B91C-7AE2-46C5-8C20-B2F338249762";
shapes = (
{
closed = 1;
nodes = (
(210,0,l),
(210,300,l),
(487,300,l),
(487,0,l),
(610,0,l),
(610,686,l),
(486,686,l),
(486,400,l),
(209,400,l),
(209,686,l),
(85,686,l),
(85,0,l)
);
}
);
width = 695;
}
);
note = H;
unicode = 72;
},
{
color = 4;
glyphname = I;
kernLeft = H;
kernRight = H;
layers = (
{
anchors = (
{
name = bottom;
pos = (182,0);
},
{
name = center;
pos = (182,343);
},
{
name = ogonek;
pos = (236,0);
},
{
name = top;
pos = (183,686);
}
);
layerId = "F84504BD-929B-4EC5-838D-CC63F45B30C5";
shapes = (
{
closed = 1;
nodes = (
(288,0,l),
(288,48,l),
(209,48,l),
(209,638,l),
(288,638,l),
(288,686,l),
(76,686,l),
(76,638,l),
(155,638,l),
(155,48,l),
(76,48,l),
(76,0,l)
);
}
);
width = 364;
},
{
anchors = (
{
name = bottom;
pos = (221,0);
},
{
name = center;
pos = (223,343);
},
{
name = ogonek;
pos = (342,0);
},
{
name = top;
pos = (222,686);
}
);
layerId = "B61048DD-A105-4E1B-AF86-BB1631F6D87A";
shapes = (
{
closed = 1;
nodes = (
(410,0,l),
(410,148,l),
(329,148,l),
(329,538,l),
(410,538,l),
(410,686,l),
(36,686,l),
(36,538,l),
(118,538,l),
(118,148,l),
(36,148,l),
(36,0,l)
);
}
);
width = 446;
},
{
anchors = (
{
name = bottom;
pos = (200,0);
},
{
name = center;
pos = (200,343);
},
{
name = ogonek;
pos = (283,0);
},
{
name = top;
pos = (200,686);
}
);
layerId = "D456B91C-7AE2-46C5-8C20-B2F338249762";
shapes = (
{
closed = 1;
nodes = (
(342,0,l),
(342,96,l),
(262,96,l),
(262,590,l),
(342,590,l),
(342,686,l),
(58,686,l),
(58,590,l),
(138,590,l),
(138,96,l),
(58,96,l),
(58,0,l)
);
}
);
width = 400;
}
);
note = I;
unicode = 73;
},
{
color = 4;
glyphname = J;
kernLeft = J;
kernRight = J;
layers = (
{
anchors = (
{
name = top;
pos = (399,686);
}
);
background = {
shapes = (
{
closed = 1;
nodes = (
(372,686,l),
(372,172,ls),
(372,78,o),
(310,38,o),
(233,38,cs),
(156,38,o),
(94,77,o),
(94,172,cs),
(94,185,l),
(44,185,l),
(44,166,ls),
(44,50,o),
(126,-10,o),
(233,-10,cs),
(340,-10,o),
(426,50,o),
(426,166,cs),
(426,686,l)
);
},
{
closed = 1;
nodes = (
(234,-10,ls),
(340,-10,o),
(426,50,o),
(426,166,cs),
(426,686,l),
(372,686,l),
(372,172,ls),
(372,78,o),
(310,38,o),
(233,38,cs),
(156,38,o),
(94,77,o),
(94,172,cs),
(94,185,l),
(44,185,l),
(44,166,ls),
(44,51,o),
(126,-10,o),
(230,-10,cs)
);
}
);
};
layerId = "F84504BD-929B-4EC5-838D-CC63F45B30C5";
shapes = (
{
closed = 1;
nodes = (
(232,-10,ls),
(338,-10,o),
(426,46,o),
(426,189,cs),
(426,686,l),
(372,686,l),
(372,188,ls),
(372,67,o),
(308,38,o),
(231,38,cs),
(154,38,o),
(94,77,o),
(94,172,cs),
(94,185,l),
(44,185,l),
(44,166,ls),
(44,51,o),
(124,-10,o),
(228,-10,cs)
);
}
);
width = 526;
},
{
anchors = (
{
name = top;
pos = (389,686);
}
);
layerId = "B61048DD-A105-4E1B-AF86-BB1631F6D87A";
shapes = (
{
closed = 1;
nodes = (
(262,-10,ls),
(396,-10,o),
(492,69,o),
(492,194,cs),
(492,686,l),
(287,686,l),
(287,192,ls),
(287,164,o),
(268,146,o),
(245,146,cs),
(222,146,o),
(204,164,o),
(204,192,cs),
(204,254,l),
(11,254,l),
(11,180,ls),
(11,57,o),
(96,-10,o),
(231,-10,cs)
);
}
);
width = 545;
},
{
anchors = (
{
name = top;
pos = (385,686);
}
);
layerId = "D456B91C-7AE2-46C5-8C20-B2F338249762";
shapes = (
{
closed = 1;
nodes = (
(246,-10,ls),
(365,-10,o),
(455,64,o),
(455,184,cs),
(455,686,l),
(331,686,l),
(331,181,ls),
(331,117,o),
(289,86,o),
(236,86,cs),
(183,86,o),
(143,116,o),
(143,181,cs),
(143,216,l),
(29,216,l),
(29,175,ls),
(29,57,o),
(113,-10,o),
(230,-10,cs)
);
}
);
width = 534;
}
);
note = J;
unicode = 74;
},
{
color = 4;
glyphname = K;
kernLeft = H;
kernRight = K;
layers = (
{
anchors = (
{
name = bottom;
pos = (330,0);
}
);
layerId = "F84504BD-929B-4EC5-838D-CC63F45B30C5";
shapes = (
{
closed = 1;
nodes = (
(161,0,l),
(161,208,l),
(286,347,l),
(533,0,l),
(596,0,l),
(321,387,l),
(588,686,l),
(524,686,l),
(161,279,l),
(161,686,l),
(107,686,l),
(107,0,l)
);
}
);
width = 623;
},
{
anchors = (
{
name = bottom;
pos = (353,0);
}
);
background = {
shapes = (
{
closed = 1;
nodes = (
(261,0,l),
(261,152,l),
(341,248,l),
(460,0,l),
(695,0,l),
(480,411,l),
(689,686,l),
(457,686,l),
(261,415,l),
(261,686,l),
(57,686,l),
(57,0,l)
);
}
);
};
layerId = "B61048DD-A105-4E1B-AF86-BB1631F6D87A";
shapes = (
{
closed = 1;
nodes = (
(268,0,l),
(268,162,l),
(341,248,l),
(460,0,l),
(695,0,l),
(480,411,l),
(689,686,l),
(465,686,l),
(268,415,l),
(268,686,l),
(57,686,l),
(57,0,l)
);
}
);
width = 685;
},
{
anchors = (
{
name = bottom;
pos = (342,0);
}
);
layerId = "D456B91C-7AE2-46C5-8C20-B2F338249762";
shapes = (
{
closed = 1;
nodes = (
(209,0,l),
(209,183,l),
(311,303,l),
(500,0,l),
(640,0,l),
(392,398,l),
(628,686,l),
(494,686,l),
(209,339,l),
(209,686,l),
(85,686,l),
(85,0,l)
);
}
);
width = 651;
}
);
note = K;
unicode = 75;
},
{
color = 4;
glyphname = L;
kernLeft = H;
kernRight = L;
layers = (
{
anchors = (
{
name = bottom;
pos = (311,0);
},
{
name = center;
pos = (136,355);
},
{
name = top;
pos = (134,686);
},
{
name = topright;
pos = (241,471);
}
);
layerId = "F84504BD-929B-4EC5-838D-CC63F45B30C5";
shapes = (
{
closed = 1;
nodes = (
(513,0,l),
(501,48,l),
(161,48,l),
(161,686,l),
(107,686,l),
(107,0,l)
);
}
);
width = 535;
},
{
anchors = (
{
name = bottom;
pos = (299,0);
},
{
name = center;
pos = (164,395);
},
{
name = top;
pos = (162,686);
},
{
name = topright;
pos = (105,312);
}
);
layerId = "B61048DD-A105-4E1B-AF86-BB1631F6D87A";
shapes = (
{
closed = 1;
nodes = (
(538,0,l),
(518,168,l),
(268,168,l),
(268,686,l),
(57,686,l),
(57,0,l)
);
}
);
width = 544;
},
{
anchors = (
{
name = bottom;
pos = (323,0);
},
{
name = center;
pos = (148,373);
},
{
name = top;
pos = (146,686);
},
{
name = topright;
pos = (181,390);
}
);
layerId = "D456B91C-7AE2-46C5-8C20-B2F338249762";
shapes = (
{
closed = 1;
nodes = (
(524,0,l),
(509,96,l),
(209,96,l),
(209,686,l),
(85,686,l),
(85,0,l)
);
}
);
width = 539;
}
);
note = L;
unicode = 76;
},
{
color = 4;
glyphname = M;
kernLeft = H;
kernRight = H;
layers = (
{
layerId = "F84504BD-929B-4EC5-838D-CC63F45B30C5";
shapes = (
{
closed = 1;
nodes = (
(155,0,l),
(155,625,l),
(160,625,l),
(433,0,l),
(484,0,l),
(759,625,l),
(764,625,l),
(764,0,l),
(818,0,l),
(818,686,l),
(733,686,l),
(462,69,l),
(461,69,l),
(193,686,l),
(107,686,l),
(107,0,l)
);
}
);
width = 925;
},
{
layerId = "B61048DD-A105-4E1B-AF86-BB1631F6D87A";
shapes = (
{
closed = 1;
nodes = (
(248,0,l),
(248,440,l),
(253,440,l),
(372,0,l),
(613,0,l),
(733,440,l),
(737,440,l),
(737,0,l),
(947,0,l),
(947,686,l),
(601,686,l),
(504,320,l),
(500,320,l),
(401,686,l),
(57,686,l),
(57,0,l)
);
}
);
width = 1004;
},
{
layerId = "D456B91C-7AE2-46C5-8C20-B2F338249762";
shapes = (
{
closed = 1;
nodes = (
(196,0,l),
(196,543,l),
(201,543,l),
(406,0,l),
(541,0,l),
(747,543,l),
(752,543,l),
(752,0,l),
(875,0,l),
(875,686,l),
(674,686,l),
(481,181,l),
(478,181,l),
(285,686,l),
(85,686,l),
(85,0,l)
);
}
);
width = 960;
}
);
note = M;
unicode = 77;
},
{
color = 4;
glyphname = N;
kernLeft = H;
kernRight = H;
layers = (
{
anchors = (
{
name = bottom;
pos = (353,0);
},
{
name = top;
pos = (345,686);
}
);
layerId = "F84504BD-929B-4EC5-838D-CC63F45B30C5";
shapes = (
{
closed = 1;
nodes = (
(155,0,l),
(155,586,l),
(158,586,l),
(190,534,l),
(538,0,l),
(586,0,l),
(586,686,l),
(538,686,l),
(538,100,l),
(535,100,l),
(492,168,l),
(153,686,l),
(107,686,l),
(107,0,l)
);
}
);
width = 693;
},
{
anchors = (
{
name = bottom;
pos = (351,0);
},
{
name = top;
pos = (355,686);
}
);
layerId = "B61048DD-A105-4E1B-AF86-BB1631F6D87A";
shapes = (
{
closed = 1;
nodes = (
(250,0,l),
(250,304,l),
(255,306,l),
(276,264,l),
(459,0,l),
(639,0,l),
(639,686,l),
(446,686,l),
(446,375,l),
(441,372,l),
(410,431,l),
(233,686,l),
(57,686,l),
(57,0,l)
);
}
);
width = 696;
},
{
anchors = (
{
name = bottom;
pos = (347,0);
},
{
name = top;
pos = (347,686);
}
);
layerId = "D456B91C-7AE2-46C5-8C20-B2F338249762";
shapes = (
{
closed = 1;
nodes = (
(197,0,l),
(197,461,l),
(201,462,l),
(228,414,l),
(503,0,l),
(610,0,l),
(610,686,l),
(498,686,l),
(498,222,l),
(494,221,l),
(456,285,l),
(189,686,l),
(85,686,l),
(85,0,l)
);
}
);
width = 694;
}
);
note = N;
unicode = 78;
},
{
color = 4;
glyphname = Nhookleft;
kernLeft = j;
kernRight = H;
layers = (
{
layerId = "B61048DD-A105-4E1B-AF86-BB1631F6D87A";
shapes = (
{
closed = 1;
nodes = (
(182,-187,o),
(250,-134,o),
(250,-26,cs),
(250,304,l),
(255,306,l),
(276,264,l),
(459,0,l),
(639,0,l),
(639,686,l),
(446,686,l),
(446,375,l),
(441,372,l),
(410,431,l),
(233,686,l),
(57,686,l),
(57,4,ls),
(57,-55,o),
(29,-65,o),
(1,-65,cs),
(-14,-65,o),
(-46,-60,o),
(-61,-53,c),
(-61,-165,l),
(-29,-178,o),
(39,-187,o),
(73,-187,cs)
);
}
);
width = 696;
},
{
layerId = "F84504BD-929B-4EC5-838D-CC63F45B30C5";
shapes = (
{
closed = 1;
nodes = (
(113,-186,o),
(153,-152,o),
(153,-75,cs),
(153,586,l),
(156,586,l),
(188,534,l),
(536,0,l),
(584,0,l),
(584,686,l),
(536,686,l),
(536,100,l),
(533,100,l),
(490,168,l),
(151,686,l),
(105,686,l),
(105,-73,ls),
(105,-132,o),
(76,-140,o),
(48,-140,cs),
(33,-140,o),
(2,-131,o),
(-14,-124,c),
(-14,-169,l),
(3,-179,o),
(29,-186,o),
(54,-186,cs)
);
}
);
width = 691;
},
{
layerId = "D456B91C-7AE2-46C5-8C20-B2F338249762";
shapes = (
{
closed = 1;
nodes = (
(144,-186,o),
(196,-144,o),
(196,-53,cs),
(196,461,l),
(200,462,l),
(227,414,l),
(502,0,l),
(608,0,l),
(608,686,l),
(497,686,l),
(497,222,l),
(493,221,l),
(455,285,l),
(187,686,l),
(84,686,l),
(84,-39,ls),
(84,-98,o),
(55,-107,o),
(27,-107,cs),
(12,-107,o),
(-19,-99,o),
(-35,-92,c),
(-35,-167,l),
(-11,-179,o),
(33,-186,o),
(62,-186,cs)
);
}
);
width = 693;
}
);
unicode = 413;
},
{
color = 4;
glyphname = Eng;
kernLeft = H;
kernRight = H;
layers = (
{
layerId = "B61048DD-A105-4E1B-AF86-BB1631F6D87A";
shapes = (
{
closed = 1;
nodes = (
(565,-187,o),
(639,-134,o),
(639,-26,cs),
(639,686,l),
(446,686,l),
(446,375,l),
(441,372,l),
(410,431,l),
(233,686,l),
(57,686,l),
(57,0,l),
(250,0,l),
(250,304,l),
(255,306,l),
(276,264,l),
(440,27,l),
(440,4,ls),
(440,-55,o),
(412,-65,o),
(384,-65,cs),
(369,-65,o),
(337,-60,o),
(322,-53,c),
(322,-165,l),
(354,-178,o),
(422,-187,o),
(456,-187,cs)
);
}
);
width = 696;
},
{
layerId = "F84504BD-929B-4EC5-838D-CC63F45B30C5";
shapes = (
{
closed = 1;
nodes = (
(543,-186,o),
(586,-152,o),
(586,-75,cs),
(586,686,l),
(538,686,l),
(538,100,l),
(535,100,l),
(492,168,l),
(153,686,l),
(107,686,l),
(107,0,l),
(155,0,l),
(155,586,l),
(158,586,l),
(190,534,l),
(535,5,l),
(535,-73,ls),
(535,-132,o),
(506,-140,o),
(478,-140,cs),
(463,-140,o),
(432,-131,o),
(416,-124,c),
(416,-169,l),
(433,-179,o),
(459,-186,o),
(484,-186,cs)
);
}
);
width = 693;
},
{
layerId = "D456B91C-7AE2-46C5-8C20-B2F338249762";
shapes = (
{
closed = 1;
nodes = (
(553,-186,o),
(610,-144,o),
(610,-53,cs),
(610,686,l),
(498,686,l),
(498,222,l),
(494,221,l),
(456,285,l),
(189,686,l),
(85,686,l),
(85,0,l),
(197,0,l),
(197,461,l),
(201,462,l),
(228,414,l),
(493,15,l),
(493,-39,ls),
(493,-98,o),
(464,-107,o),
(436,-107,cs),
(421,-107,o),
(390,-99,o),
(374,-92,c),
(374,-167,l),
(398,-179,o),
(443,-186,o),
(472,-186,cs)
);
}
);
width = 694;
}
);
unicode = 330;
},
{
color = 4;
glyphname = O;
kernLeft = O;
kernRight = O;
layers = (
{
anchors = (
{
name = bottom;
pos = (345,0);
},
{
name = center;
pos = (345,336);
},
{
name = ogonek;
pos = (391,0);
},
{
name = top;
pos = (345,686);
},
{
name = topright;
pos = (377,686);
}
);
layerId = "F84504BD-929B-4EC5-838D-CC63F45B30C5";
shapes = (
{
closed = 1;
nodes = (
(345,-10,ls),
(485,-10,o),
(611,55,o),
(611,330,cs),
(611,356,ls),
(611,629,o),
(495,696,o),
(348,696,cs),
(345,696,ls),
(205,696,o),
(79,631,o),
(79,356,cs),
(79,330,ls),
(79,57,o),
(195,-10,o),
(342,-10,cs)
);
},
{
closed = 1;
nodes = (
(228,38,o),
(133,91,o),
(133,318,cs),
(133,368,ls),
(133,595,o),
(228,648,o),
(345,648,cs),
(462,648,o),
(557,595,o),
(557,368,cs),
(557,318,ls),
(557,91,o),
(462,38,o),
(345,38,cs)
);
}
);
width = 690;
},
{
anchors = (
{
name = bottom;
pos = (373,0);
},
{
name = center;
pos = (359,336);
},
{
name = ogonek;
pos = (390,0);
},
{
name = top;
pos = (359,686);
},
{
name = topright;
pos = (391,686);
}
);
layerId = "B61048DD-A105-4E1B-AF86-BB1631F6D87A";
shapes = (
{
closed = 1;
nodes = (
(387,-10,ls),
(553,-10,o),
(687,124,o),
(687,290,cs),
(687,394,ls),
(687,560,o),
(553,694,o),
(387,694,cs),
(331,694,ls),
(165,694,o),
(31,560,o),
(31,394,cs),
(31,290,ls),
(31,124,o),
(165,-10,o),
(331,-10,cs)
);
},
{
closed = 1;
nodes = (
(299,146,o),
(256,190,o),
(256,246,cs),
(256,438,ls),
(256,493,o),
(299,538,o),
(359,538,cs),
(419,538,o),
(462,494,o),
(462,438,cs),
(462,246,ls),
(462,191,o),
(419,146,o),
(359,146,cs)
);
}
);
width = 718;
},
{
anchors = (
{
name = bottom;
pos = (351,0);
},
{
name = center;
pos = (351,336);
},
{
name = ogonek;
pos = (400,0);
},
{
name = top;
pos = (351,686);
},
{
name = topright;
pos = (383,686);
}
);
layerId = "D456B91C-7AE2-46C5-8C20-B2F338249762";
shapes = (
{
closed = 1;
nodes = (
(365,-10,ls),
(517,-10,o),
(645,86,o),
(645,312,cs),
(645,373,ls),
(645,599,o),
(520,695,o),
(364,695,cs),
(338,695,ls),
(186,695,o),
(58,599,o),
(58,373,cs),
(58,312,ls),
(58,86,o),
(183,-10,o),
(339,-10,cs)
);
},
{
closed = 1;
nodes = (
(261,86,o),
(188,135,o),
(188,286,cs),
(188,400,ls),
(188,551,o),
(260,599,o),
(352,599,cs),
(442,599,o),
(515,550,o),
(515,399,cs),
(515,285,ls),
(515,134,o),
(443,86,o),
(351,86,cs)
);
}
);
width = 702;
}
);
note = O;
unicode = 79;
},
{
color = 1;
glyphname = Ohungarumlaut;
kernLeft = O;
kernRight = O;
layers = (
{
background = {
shapes = (
{
closed = 1;
nodes = (
(242,750,l),
(292,750,l),
(403,892,l),
(402,895,l),
(338,895,l)
);
},
{
closed = 1;
nodes = (
(367,750,l),
(417,750,l),
(528,892,l),
(527,895,l),
(463,895,l)
);
},
{
closed = 1;
nodes = (
(474,-10,o),
(593,55,o),
(593,330,cs),
(593,356,ls),
(593,631,o),
(474,696,o),
(327,696,cs),
(180,696,o),
(61,631,o),
(61,356,cs),
(61,330,ls),
(61,55,o),
(180,-10,o),
(327,-10,cs)
);
},
{
closed = 1;
nodes = (
(210,38,o),
(115,91,o),
(115,318,cs),
(115,368,ls),
(115,595,o),
(210,648,o),
(327,648,cs),
(444,648,o),
(539,595,o),
(539,368,cs),
(539,318,ls),
(539,91,o),
(444,38,o),
(327,38,cs)
);
}
);
};
layerId = "F84504BD-929B-4EC5-838D-CC63F45B30C5";
shapes = (
{
ref = O;
},
{
pos = (101,0);
ref = hungarumlautcomb.cap;
}
);
width = 690;
},
{
background = {
shapes = (
{
closed = 1;
nodes = (
(395,895,l),
(244,895,l),
(153,750,l),
(271,750,l),
(397,892,l)
);
},
{
closed = 1;
nodes = (
(622,895,l),
(471,895,l),
(380,750,l),
(498,750,l),
(624,892,l)
);
},
{
closed = 1;
nodes = (
(331,694,ls),
(165,694,o),
(31,560,o),
(31,394,cs),
(31,290,ls),
(31,124,o),
(165,-10,o),
(331,-10,cs),
(387,-10,ls),
(553,-10,o),
(687,124,o),
(687,290,cs),
(687,394,ls),
(687,560,o),
(553,694,o),
(387,694,cs)
);
},
{
closed = 1;
nodes = (
(362,540,ls),
(418,540,o),
(462,496,o),
(462,440,cs),
(462,247,ls),
(462,191,o),
(418,147,o),
(362,147,cs),
(357,147,ls),
(301,147,o),
(257,191,o),
(257,247,cs),
(257,440,ls),
(257,496,o),
(301,540,o),
(357,540,cs)
);
}
);
};
layerId = "B61048DD-A105-4E1B-AF86-BB1631F6D87A";
shapes = (
{
ref = O;
},
{
pos = (92,0);
ref = hungarumlautcomb.cap;
}
);
width = 718;
},
{
layerId = "D456B91C-7AE2-46C5-8C20-B2F338249762";
shapes = (
{
ref = O;
},
{
pos = (101,0);
ref = hungarumlautcomb.cap;
}
);
width = 702;
}
);
note = Ohungarumlaut;
unicode = 336;
},
{
color = 4;
glyphname = OE;
kernLeft = O;
kernRight = E;
layers = (
{
layerId = "F84504BD-929B-4EC5-838D-CC63F45B30C5";
shapes = (
{
closed = 1;
nodes = (
(429,-10,o),
(508,17,o),
(557,92,c),
(557,0,l),
(991,0,l),
(980,48,l),
(611,48,l),
(611,326,l),
(930,326,l),
(930,374,l),
(611,374,l),
(611,638,l),
(971,638,l),
(981,686,l),
(557,686,l),
(557,598,l),
(508,673,o),
(433,696,o),
(347,696,cs),
(200,696,o),
(79,631,o),
(79,356,cs),
(79,330,ls),
(79,55,o),
(196,-10,o),
(343,-10,cs)
);
},
{
closed = 1;
nodes = (
(228,38,o),
(133,91,o),
(133,318,cs),
(133,368,ls),
(133,595,o),
(228,648,o),
(345,648,cs),
(462,648,o),
(557,595,o),
(557,368,cs),
(557,318,ls),
(557,91,o),
(462,38,o),
(345,38,cs)
);
}
);
width = 1043;
},
{
layerId = "B61048DD-A105-4E1B-AF86-BB1631F6D87A";
shapes = (
{
closed = 1;
nodes = (
(403,-10,o),
(435,1,o),
(462,18,c),
(462,0,l),
(977,0,l),
(947,160,l),
(672,160,l),
(672,266,l),
(916,266,l),
(916,419,l),
(672,419,l),
(672,526,l),
(927,526,l),
(967,686,l),
(463,686,l),
(463,667,l),
(432,683,o),
(400,694,o),
(336,694,cs),
(163,694,o),
(31,560,o),
(31,394,cs),
(31,290,ls),
(31,124,o),
(165,-10,o),
(331,-10,cs)
);
},
{
closed = 1;
nodes = (
(301,147,o),
(257,191,o),
(257,247,cs),
(257,440,ls),
(257,496,o),
(301,540,o),
(357,540,cs),
(418,540,o),
(462,498,o),
(462,440,cs),
(462,247,ls),
(462,192,o),
(421,147,o),
(357,147,cs)
);
}
);
width = 991;
},
{
layerId = "D456B91C-7AE2-46C5-8C20-B2F338249762";
shapes = (
{
closed = 1;
nodes = (
(419,-10,o),
(476,7,o),
(515,56,c),
(515,0,l),
(985,0,l),
(965,96,l),
(639,96,l),
(639,298,l),
(924,298,l),
(924,394,l),
(639,394,l),
(639,590,l),
(951,590,l),
(975,686,l),
(515,686,l),
(515,629,l),
(474,677,o),
(417,695,o),
(341,695,cs),
(182,695,o),
(58,599,o),
(58,373,cs),
(58,312,ls),
(58,86,o),
(183,-10,o),
(339,-10,cs)
);
},
{
closed = 1;
nodes = (
(260,86,o),
(188,135,o),
(188,286,cs),
(188,400,ls),
(188,551,o),
(260,599,o),
(350,599,cs),
(442,599,o),
(515,552,o),
(515,400,cs),
(515,286,ls),
(515,136,o),
(444,86,o),
(350,86,cs)
);
}
);
width = 1020;
}
);
note = OE;
unicode = 338;
},
{
color = 4;
glyphname = P;
kernLeft = H;
kernRight = P;
layers = (
{
background = {
shapes = (
{
closed = 1;
nodes = (
(107,686,l),
(107,0,l),
(161,0,l),
(161,312,l),
(388,312,ls),
(491,312,o),
(575,396,o),
(575,499,cs),
(575,602,o),
(491,686,o),
(388,686,cs)
);
},
{
closed = 1;
nodes = (
(459,638,o),
(523,577,o),
(523,499,cs),
(523,421,o),
(459,359,o),
(381,359,cs),
(161,359,l),
(161,638,l),
(381,638,ls)
);
}
);
};
layerId = "F84504BD-929B-4EC5-838D-CC63F45B30C5";
shapes = (
{
closed = 1;
nodes = (
(161,0,l),
(161,311,l),
(391,311,ls),
(502,311,o),
(575,406,o),
(575,507,cs),
(575,511,ls),
(575,612,o),
(505,686,o),
(395,686,cs),
(107,686,l),
(107,0,l)
);
},
{
closed = 1;
nodes = (
(161,638,l),
(385,638,ls),
(471,638,o),
(523,585,o),
(523,507,cs),
(523,429,o),
(471,359,o),
(385,359,cs),
(161,359,l)
);
}
);
width = 624;
},
{
layerId = "B61048DD-A105-4E1B-AF86-BB1631F6D87A";
shapes = (
{
closed = 1;
nodes = (
(267,0,l),
(267,244,l),
(422,244,ls),
(538,244,o),
(632,344,o),
(632,460,cs),
(632,482,ls),
(632,598,o),
(539,686,o),
(423,686,cs),
(57,686,l),
(57,0,l)
);
},
{
closed = 1;
nodes = (
(267,529,l),
(359,529,ls),
(400,529,o),
(419,497,o),
(419,464,cs),
(419,421,o),
(396,397,o),
(359,397,cs),
(267,397,l)
);
}
);
width = 645;
},
{
layerId = "D456B91C-7AE2-46C5-8C20-B2F338249762";
shapes = (
{
closed = 1;
nodes = (
(209,0,l),
(209,280,l),
(398,280,ls),
(507,280,o),
(600,373,o),
(600,481,cs),
(600,493,ls),
(600,601,o),
(511,686,o),
(403,686,cs),
(85,686,l),
(85,0,l)
);
},
{
closed = 1;
nodes = (
(209,590,l),
(370,590,ls),
(432,590,o),
(476,541,o),
(476,483,cs),
(476,421,o),
(433,376,o),
(373,376,cs),
(209,376,l)
);
}
);
width = 633;
}
);
note = P;
unicode = 80;
},
{
color = 4;
glyphname = Thorn;
kernLeft = H;
kernRight = P;
layers = (
{
layerId = "F84504BD-929B-4EC5-838D-CC63F45B30C5";
shapes = (
{
closed = 1;
nodes = (
(161,0,l),
(161,176,l),
(392,176,ls),
(505,176,o),
(575,267,o),
(575,370,cs),
(575,473,o),
(505,551,o),
(392,551,cs),
(161,551,l),
(161,686,l),
(107,686,l),
(107,0,l)
);
},
{
closed = 1;
nodes = (
(161,503,l),
(385,503,ls),
(473,503,o),
(523,445,o),
(523,367,cs),
(523,289,o),
(473,224,o),
(385,224,cs),
(161,224,l)
);
}
);
width = 633;
},
{
layerId = "B61048DD-A105-4E1B-AF86-BB1631F6D87A";
shapes = (
{
closed = 1;
nodes = (
(266,0,l),
(266,146,l),
(422,146,ls),
(541,146,o),
(632,235,o),
(632,372,cs),
(632,488,o),
(538,583,o),
(422,583,cs),
(266,583,l),
(266,686,l),
(57,686,l),
(57,0,l)
);
},
{
closed = 1;
nodes = (
(266,427,l),
(365,427,ls),
(404,427,o),
(419,403,o),
(419,360,cs),
(419,319,o),
(405,294,o),
(365,294,cs),
(266,294,l)
);
}
);
width = 646;
},
{
layerId = "D456B91C-7AE2-46C5-8C20-B2F338249762";
shapes = (
{
closed = 1;
nodes = (
(209,0,l),
(209,161,l),
(399,161,ls),
(509,161,o),
(600,252,o),
(600,370,cs),
(600,479,o),
(512,565,o),
(403,565,cs),
(209,565,l),
(209,686,l),
(85,686,l),
(85,0,l)
);
},
{
closed = 1;
nodes = (
(209,469,l),
(374,469,ls),
(435,469,o),
(477,425,o),
(477,362,cs),
(477,301,o),
(435,257,o),
(374,257,cs),
(209,257,l)
);
}
);
width = 639;
}
);
note = Thorn;
unicode = 222;
},
{
color = 4;
glyphname = Q;
kernLeft = O;
kernRight = O;
layers = (
{
layerId = "F84504BD-929B-4EC5-838D-CC63F45B30C5";
shapes = (
{
closed = 1;
nodes = (
(545,-137,o),
(595,-110,o),
(595,-110,c),
(595,-61,l),
(595,-62,o),
(528,-90,o),
(481,-90,cs),
(406,-90,o),
(380,-46,o),
(373,-9,c),
(506,-1,o),
(611,79,o),
(611,330,cs),
(611,356,ls),
(611,629,o),
(495,696,o),
(348,696,cs),
(345,696,ls),
(205,696,o),
(79,631,o),
(79,356,cs),
(79,330,ls),
(79,69,o),
(185,-4,o),
(323,-9,c),
(331,-66,o),
(363,-137,o),
(482,-137,cs)
);
},
{
closed = 1;
nodes = (
(228,38,o),
(133,91,o),
(133,318,cs),
(133,368,ls),
(133,595,o),
(228,648,o),
(345,648,cs),
(462,648,o),
(557,595,o),
(557,368,cs),
(557,318,ls),
(557,91,o),
(462,38,o),
(345,38,cs)
);
}
);
width = 690;
},
{
background = {
anchors = (
{
name = bottom;
pos = (373,0);
},
{
name = center;
pos = (359,336);
},
{
name = ogonek;
pos = (390,0);
},
{
name = top;
pos = (359,686);
},
{
name = topright;
pos = (391,686);
}
);
shapes = (
{
closed = 1;
nodes = (
(387,-10,ls),
(553,-10,o),
(687,124,o),
(687,290,cs),
(687,394,ls),
(687,560,o),
(553,694,o),
(387,694,cs),
(331,694,ls),
(165,694,o),
(31,560,o),
(31,394,cs),
(31,290,ls),
(31,124,o),
(165,-10,o),
(331,-10,cs)
);
},
{
closed = 1;
nodes = (
(299,146,o),
(256,190,o),
(256,246,cs),
(256,438,ls),
(256,493,o),
(299,538,o),
(359,538,cs),
(419,538,o),
(462,494,o),
(462,438,cs),
(462,246,ls),
(462,191,o),
(419,146,o),
(359,146,cs)
);
}
);
};
layerId = "B61048DD-A105-4E1B-AF86-BB1631F6D87A";
shapes = (
{
closed = 1;
nodes = (
(595,-162,o),
(652,-139,o),
(688,-120,c),
(688,-15,l),
(645,-29,o),
(595,-39,o),
(562,-39,cs),
(514,-39,o),
(495,-18,o),
(484,6,c),
(602,46,o),
(687,158,o),
(687,290,cs),
(687,394,ls),
(687,560,o),
(553,694,o),
(387,694,cs),
(331,694,ls),
(165,694,o),
(31,560,o),
(31,394,cs),
(31,290,ls),
(31,144,o),
(135,22,o),
(273,-4,c),
(289,-72,o),
(355,-162,o),
(507,-162,cs)
);
},
{
closed = 1;
nodes = (
(299,146,o),
(256,190,o),
(256,246,cs),
(256,438,ls),
(256,493,o),
(299,538,o),
(359,538,cs),
(419,538,o),
(462,494,o),
(462,438,cs),
(462,246,ls),
(462,191,o),
(419,146,o),
(359,146,cs)
);
}
);
width = 718;
},
{
background = {
anchors = (
{
name = bottom;
pos = (353,0);
},
{
name = center;
pos = (351,336);
},
{
name = ogonek;
pos = (400,0);
},
{
name = top;
pos = (351,686);
},
{
name = topright;
pos = (383,686);
}
);
shapes = (
{
closed = 1;
nodes = (
(365,-10,ls),
(517,-10,o),
(645,86,o),
(645,312,cs),
(645,373,ls),
(645,599,o),
(520,695,o),
(364,695,cs),
(338,695,ls),
(186,695,o),
(58,599,o),
(58,373,cs),
(58,312,ls),
(58,86,o),
(183,-10,o),
(339,-10,cs)
);
},
{
closed = 1;
nodes = (
(261,86,o),
(188,135,o),
(188,286,cs),
(188,400,ls),
(188,551,o),
(260,599,o),
(352,599,cs),
(442,599,o),
(515,550,o),
(515,399,cs),
(515,285,ls),
(515,134,o),
(443,86,o),
(351,86,cs)
);
}
);
};
layerId = "D456B91C-7AE2-46C5-8C20-B2F338249762";
shapes = (
{
closed = 1;
nodes = (
(567,-148,o),
(620,-123,o),
(636,-114,c),
(636,-41,l),
(617,-47,o),
(558,-67,o),
(517,-67,cs),
(454,-67,o),
(431,-34,o),
(422,-2,c),
(548,20,o),
(645,111,o),
(645,312,cs),
(645,373,ls),
(645,599,o),
(520,695,o),
(364,695,cs),
(338,695,ls),
(186,695,o),
(58,599,o),
(58,373,cs),
(58,312,ls),
(58,102,o),
(164,8,o),
(301,-7,c),
(312,-69,o),
(359,-148,o),
(493,-148,cs)
);
},
{
closed = 1;
nodes = (
(261,86,o),
(188,135,o),
(188,286,cs),
(188,400,ls),
(188,551,o),
(260,599,o),
(352,599,cs),
(442,599,o),
(515,550,o),
(515,399,cs),
(515,286,ls),
(515,135,o),
(443,86,o),
(351,86,cs)
);
}
);
width = 702;
}
);
note = Q;
unicode = 81;
},
{
color = 4;
glyphname = R;
kernLeft = H;
kernRight = R;
layers = (
{
anchors = (
{
name = bottom;
pos = (342,0);
},
{
name = top;
pos = (312,686);
}
);
background = {
shapes = (
{
closed = 1;
nodes = (
(107,686,l),
(107,0,l),
(161,0,l),
(161,326,l),
(382,326,ls),
(414,326,o),
(511,313,o),
(511,127,cs),
(511,15,o),
(558,-3,o),
(589,-3,cs),
(603,-3,o),
(614,1,o),
(614,1,c),
(614,20,l),
(589,32,o),
(563,30,o),
(563,153,cs),
(563,332,o),
(453,349,o),
(453,349,c),
(453,354,l),
(523,367,o),
(576,443,o),
(576,516,cs),
(576,619,o),
(483,686,o),
(386,686,cs)
);
},
{
closed = 1;
nodes = (
(463,638,o),
(523,581,o),
(523,507,cs),
(523,433,o),
(463,374,o),
(389,374,cs),
(161,374,l),
(161,638,l),
(389,638,ls)
);
}
);
};
layerId = "F84504BD-929B-4EC5-838D-CC63F45B30C5";
shapes = (
{
closed = 1;
nodes = (
(603,-3,o),
(614,1,o),
(614,1,c),
(614,20,l),
(589,32,o),
(563,30,o),
(563,153,cs),
(563,322,o),
(457,339,o),
(457,339,c),
(457,344,l),
(522,371,o),
(576,439,o),
(576,521,cs),
(576,624,o),
(493,686,o),
(396,686,cs),
(107,686,l),
(107,0,l),
(161,0,l),
(161,316,l),
(382,316,ls),
(414,316,o),
(511,303,o),
(511,127,cs),
(511,15,o),
(558,-3,o),
(589,-3,cs)
);
},
{
closed = 1;
nodes = (
(161,638,l),
(389,638,ls),
(468,638,o),
(523,596,o),
(523,517,cs),
(523,438,o),
(463,364,o),
(389,364,cs),
(161,364,l)
);
}
);
width = 670;
},
{
anchors = (
{
name = bottom;
pos = (349,0);
},
{
name = top;
pos = (323,686);
}
);
background = {
shapes = (
{
closed = 1;
nodes = (
(57,686,l),
(57,0,l),
(262,0,l),
(262,266,l),
(320,266,ls),
(405,266,o),
(409,183,o),
(409,119,cs),
(409,23,o),
(459,-10,o),
(550,-10,cs),
(589,-10,o),
(634,-6,o),
(670,9,c),
(670,50,l),
(620,63,o),
(619,132,o),
(619,173,cs),
(619,256,o),
(586,326,o),
(509,349,c),
(509,354,l),
(578,367,o),
(632,443,o),
(632,516,cs),
(632,619,o),
(539,686,o),
(442,686,cs)
);
},
{
closed = 1;
nodes = (
(396,529,o),
(418,507,o),
(418,479,cs),
(418,439,o),
(398,419,o),
(368,419,cs),
(262,419,l),
(262,529,l),
(368,529,ls)
);
}
);
};
layerId = "B61048DD-A105-4E1B-AF86-BB1631F6D87A";
shapes = (
{
closed = 1;
nodes = (
(589,-10,o),
(634,-6,o),
(670,9,c),
(670,50,l),
(620,63,o),
(619,132,o),
(619,173,cs),
(619,232,o),
(586,302,o),
(509,325,c),
(509,330,l),
(574,356,o),
(632,421,o),
(632,516,cs),
(632,627,o),
(538,686,o),
(441,686,cs),
(57,686,l),
(57,0,l),
(262,0,l),
(262,242,l),
(320,242,ls),
(405,242,o),
(409,159,o),
(409,119,cs),
(409,23,o),
(459,-10,o),
(550,-10,cs)
);
},
{
closed = 1;
nodes = (
(262,529,l),
(367,529,ls),
(395,529,o),
(418,509,o),
(418,467,cs),
(418,425,o),
(394,395,o),
(364,395,cs),
(262,395,l)
);
}
);
width = 682;
},
{
anchors = (
{
name = bottom;
pos = (345,0);
},
{
name = top;
pos = (325,686);
}
);
layerId = "D456B91C-7AE2-46C5-8C20-B2F338249762";
shapes = (
{
closed = 1;
nodes = (
(597,-6,o),
(623,-2,o),
(639,5,c),
(639,33,l),
(603,46,o),
(588,75,o),
(588,162,cs),
(588,282,o),
(514,323,o),
(480,333,c),
(480,338,l),
(545,364,o),
(601,432,o),
(601,514,cs),
(601,617,o),
(514,686,o),
(417,686,cs),
(85,686,l),
(85,0,l),
(209,0,l),
(209,282,l),
(354,282,ls),
(410,282,o),
(466,239,o),
(466,123,cs),
(466,19,o),
(514,-6,o),
(572,-6,cs)
);
},
{
closed = 1;
nodes = (
(209,590,l),
(382,590,ls),
(438,590,o),
(477,556,o),
(477,500,cs),
(477,437,o),
(435,378,o),
(381,378,cs),
(209,378,l)
);
}
);
width = 675;
}
);
note = R;
unicode = 82;
},
{
color = 4;
glyphname = S;
kernLeft = S;
kernRight = S;
layers = (
{
anchors = (
{
name = bottom;
pos = (316,0);
},
{
name = top;
pos = (306,686);
}
);
layerId = "F84504BD-929B-4EC5-838D-CC63F45B30C5";
shapes = (
{
closed = 1;
nodes = (
(447,-10,o),
(558,42,o),
(558,188,cs),
(558,446,o),
(137,333,o),
(137,525,cs),
(137,615,o),
(215,648,o),
(312,648,cs),
(409,648,o),
(488,608,o),
(488,525,cs),
(488,503,l),
(538,503,l),
(538,516,ls),
(538,646,o),
(436,696,o),
(311,696,cs),
(190,696,o),
(84,642,o),
(84,524,cs),
(84,275,o),
(505,398,o),
(505,185,cs),
(505,72,o),
(418,38,o),
(311,38,cs),
(204,38,o),
(118,74,o),
(118,178,cs),
(118,187,o),
(118,196,o),
(119,205,c),
(68,205,l),
(67,200,o),
(67,192,o),
(67,187,cs),
(67,39,o),
(179,-10,o),
(315,-10,cs)
);
}
);
width = 627;
},
{
anchors = (
{
name = bottom;
pos = (328,0);
},
{
name = top;
pos = (323,686);
}
);
background = {
shapes = (
{
closed = 1;
nodes = (
(171,696,o),
(40,623,o),
(40,478,cs),
(40,209,o),
(407,291,o),
(407,194,cs),
(407,172,o),
(393,151,o),
(312,151,cs),
(240,151,o),
(219,186,o),
(219,222,cs),
(219,227,o),
(219,229,o),
(220,234,c),
(26,234,l),
(25,224,o),
(25,218,o),
(25,210,cs),
(25,58,o),
(166,-10,o),
(318,-10,cs),
(500,-10,o),
(623,59,o),
(623,229,cs),
(623,352,o),
(530,401,o),
(437,422,cs),
(348,442,ls),
(293,454,o),
(252,469,o),
(252,502,cs),
(252,527,o),
(278,544,o),
(335,544,cs),
(395,544,o),
(418,513,o),
(418,478,cs),
(418,474,l),
(610,474,l),
(610,486,ls),
(610,631,o),
(484,696,o),
(331,696,cs)
);
}
);
};
layerId = "B61048DD-A105-4E1B-AF86-BB1631F6D87A";
shapes = (
{
closed = 1;
nodes = (
(492,-10,o),
(623,59,o),
(623,229,cs),
(623,482,o),
(252,399,o),
(252,502,cs),
(252,527,o),
(278,544,o),
(335,544,cs),
(395,544,o),
(418,513,o),
(418,478,cs),
(418,474,l),
(610,474,l),
(610,486,ls),
(610,631,o),
(486,696,o),
(333,696,cs),
(173,696,o),
(40,619,o),
(40,474,cs),
(40,208,o),
(407,291,o),
(407,194,cs),
(407,172,o),
(393,151,o),
(312,151,cs),
(240,151,o),
(219,186,o),
(219,222,cs),
(219,227,o),
(219,229,o),
(220,234,c),
(26,234,l),
(25,224,o),
(25,218,o),
(25,210,cs),
(25,58,o),
(158,-10,o),
(310,-10,cs)
);
}
);
width = 651;
},
{
anchors = (
{
name = bottom;
pos = (326,0);
},
{
name = top;
pos = (321,686);
}
);
layerId = "D456B91C-7AE2-46C5-8C20-B2F338249762";
shapes = (
{
closed = 1;
nodes = (
(464,-10,o),
(587,50,o),
(587,206,cs),
(587,463,o),
(188,362,o),
(188,515,cs),
(188,576,o),
(243,600,o),
(322,600,cs),
(403,600,o),
(457,566,o),
(457,504,cs),
(457,490,l),
(570,490,l),
(570,503,ls),
(570,639,o),
(457,696,o),
(320,696,cs),
(182,696,o),
(64,634,o),
(64,504,cs),
(64,247,o),
(461,349,o),
(461,189,cs),
(461,116,o),
(407,86,o),
(311,86,cs),
(220,86,o),
(163,124,o),
(163,198,cs),
(163,205,o),
(163,211,o),
(164,218,c),
(49,218,l),
(48,211,o),
(48,204,o),
(48,197,cs),
(48,47,o),
(166,-10,o),
(309,-10,cs)
);
}
);
width = 638;
}
);
note = S;
unicode = 83;
},
{
color = 4;
glyphname = Germandbls;
kernLeft = Germandbls;
kernRight = Germandbls;
layers = (
{
background = {
shapes = (
{
closed = 1;
nodes = (
(283,696,o),
(32,688,o),
(32,386,cs),
(32,0,l),
(257,0,l),
(257,406,ls),
(257,533,o),
(350,547,o),
(436,547,cs),
(535,547,o),
(584,524,o),
(584,484,cs),
(584,435,o),
(553,412,o),
(514,412,cs),
(406,412,l),
(406,289,l),
(530,289,ls),
(569,289,o),
(600,266,o),
(600,217,cs),
(600,165,o),
(579,139,o),
(526,139,cs),
(476,139,o),
(453,161,o),
(453,209,c),
(277,209,l),
(277,188,ls),
(277,55,o),
(369,-10,o),
(520,-10,cs),
(674,-10,o),
(799,59,o),
(799,199,cs),
(799,283,o),
(750,337,o),
(682,358,c),
(681,362,l),
(743,387,o),
(779,442,o),
(779,510,cs),
(779,622,o),
(660,696,o),
(449,696,cs)
);
}
);
};
layerId = "B61048DD-A105-4E1B-AF86-BB1631F6D87A";
shapes = (
{
closed = 1;
nodes = (
(683,-10,o),
(789,58,o),
(789,198,cs),
(789,282,o),
(737,336,o),
(672,358,c),
(671,362,l),
(724,384,o),
(769,437,o),
(769,500,cs),
(769,631,o),
(632,696,o),
(442,696,cs),
(221,696,o),
(52,617,o),
(52,366,cs),
(52,0,l),
(277,0,l),
(277,416,ls),
(277,520,o),
(332,547,o),
(427,547,cs),
(508,547,o),
(574,532,o),
(574,474,cs),
(574,430,o),
(538,412,o),
(504,412,cs),
(396,412,l),
(396,289,l),
(520,289,ls),
(559,289,o),
(590,266,o),
(590,217,cs),
(590,170,o),
(579,139,o),
(531,139,cs),
(486,139,o),
(483,166,o),
(483,209,c),
(307,209,l),
(307,188,ls),
(307,55,o),
(378,-10,o),
(529,-10,cs)
);
}
);
width = 816;
},
{
background = {
shapes = (
{
closed = 1;
nodes = (
(155,0,l),
(155,441,ls),
(155,585,o),
(226,648,o),
(359,648,cs),
(456,648,o),
(556,613,o),
(556,515,cs),
(556,423,o),
(478,375,o),
(389,375,cs),
(297,375,l),
(297,327,l),
(394,327,ls),
(490,327,o),
(571,281,o),
(571,181,cs),
(571,88,o),
(515,36,o),
(414,36,cs),
(310,36,o),
(258,90,o),
(258,181,cs),
(258,199,l),
(205,199,l),
(205,182,ls),
(205,65,o),
(282,-10,o),
(414,-10,cs),
(539,-10,o),
(624,61,o),
(624,182,cs),
(624,276,o),
(569,330,o),
(497,351,c),
(497,355,l),
(561,387,o),
(610,428,o),
(610,516,cs),
(610,644,o),
(487,696,o),
(364,696,cs),
(201,696,o),
(101,606,o),
(101,441,cs),
(101,0,l)
);
}
);
};
layerId = "F84504BD-929B-4EC5-838D-CC63F45B30C5";
shapes = (
{
closed = 1;
nodes = (
(539,-10,o),
(624,61,o),
(624,182,cs),
(624,276,o),
(569,330,o),
(497,351,c),
(497,355,l),
(561,387,o),
(610,428,o),
(610,516,cs),
(610,638,o),
(500,696,o),
(367,696,cs),
(226,696,o),
(101,625,o),
(101,436,cs),
(101,0,l),
(155,0,l),
(155,441,ls),
(155,598,o),
(252,648,o),
(366,648,cs),
(472,648,o),
(556,606,o),
(556,515,cs),
(556,423,o),
(478,375,o),
(389,375,cs),
(297,375,l),
(297,327,l),
(394,327,ls),
(490,327,o),
(571,281,o),
(571,181,cs),
(571,88,o),
(513,38,o),
(412,38,cs),
(302,38,o),
(258,89,o),
(258,199,c),
(205,199,l),
(205,182,ls),
(205,65,o),
(270,-10,o),
(414,-10,cs)
);
}
);
width = 698;
},
{
layerId = "D456B91C-7AE2-46C5-8C20-B2F338249762";
shapes = (
{
closed = 1;
nodes = (
(591,-10,o),
(691,61,o),
(691,190,cs),
(691,280,o),
(638,333,o),
(569,354,c),
(568,358,l),
(627,386,o),
(675,432,o),
(675,509,cs),
(675,635,o),
(553,696,o),
(394,696,cs),
(218,696,o),
(79,621,o),
(79,405,cs),
(79,0,l),
(203,0,l),
(203,430,ls),
(203,563,o),
(282,600,o),
(387,600,cs),
(482,600,o),
(551,573,o),
(551,497,cs),
(551,426,o),
(499,391,o),
(434,391,cs),
(335,391,l),
(335,310,l),
(444,310,ls),
(515,310,o),
(567,274,o),
(567,197,cs),
(567,124,o),
(536,86,o),
(459,86,cs),
(378,86,o),
(352,123,o),
(352,203,c),
(244,203,l),
(244,185,ls),
(244,61,o),
(306,-10,o),
(453,-10,cs)
);
}
);
width = 744;
}
);
unicode = 7838;
},
{
color = 4;
glyphname = T;
kernLeft = T;
kernRight = T;
layers = (
{
anchors = (
{
name = bottom;
pos = (289,0);
},
{
name = center;
pos = (289,334);
},
{
name = top;
pos = (289,686);
}
);
layerId = "F84504BD-929B-4EC5-838D-CC63F45B30C5";
shapes = (
{
closed = 1;
nodes = (
(316,0,l),
(316,638,l),
(547,638,l),
(547,686,l),
(31,686,l),
(31,638,l),
(262,638,l),
(262,0,l)
);
}
);
width = 578;
},
{
anchors = (
{
name = bottom;
pos = (292,0);
},
{
name = center;
pos = (292,334);
},
{
name = top;
pos = (292,686);
}
);
layerId = "B61048DD-A105-4E1B-AF86-BB1631F6D87A";
shapes = (
{
closed = 1;
nodes = (
(398,0,l),
(398,521,l),
(571,521,l),
(571,686,l),
(15,686,l),
(15,521,l),
(187,521,l),
(187,0,l)
);
}
);
width = 586;
},
{
anchors = (
{
name = bottom;
pos = (290,0);
},
{
name = center;
pos = (290,334);
},
{
name = top;
pos = (290,686);
}
);
layerId = "D456B91C-7AE2-46C5-8C20-B2F338249762";
shapes = (
{
closed = 1;
nodes = (
(353,0,l),
(353,590,l),
(558,590,l),
(558,686,l),
(24,686,l),
(24,590,l),
(229,590,l),
(229,0,l)
);
}
);
width = 582;
}
);
note = T;
unicode = 84;
},
{
color = 4;
glyphname = U;
kernLeft = H;
kernRight = H;
layers = (
{
anchors = (
{
name = bottom;
pos = (339,0);
},
{
name = center;
pos = (340,382);
},
{
name = ogonek;
pos = (378,0);
},
{
name = top;
pos = (341,686);
},
{
name = topright;
pos = (401,724);
}
);
background = {
shapes = (
{
closed = 1;
nodes = (
(101,220,ls),
(101,81,o),
(195,-10,o),
(339,-10,cs),
(483,-10,o),
(578,81,o),
(578,220,cs),
(578,686,l),
(524,686,l),
(524,222,ls),
(524,114,o),
(458,38,o),
(339,38,cs),
(221,38,o),
(155,111,o),
(155,222,cs),
(155,686,l),
(101,686,l)
);
}
);
};
layerId = "F84504BD-929B-4EC5-838D-CC63F45B30C5";
shapes = (
{
closed = 1;
nodes = (
(343,-10,ls),
(482,-10,o),
(578,83,o),
(578,220,cs),
(578,686,l),
(524,686,l),
(524,222,ls),
(524,114,o),
(458,38,o),
(339,38,cs),
(221,38,o),
(155,111,o),
(155,222,cs),
(155,686,l),
(101,686,l),
(101,220,ls),
(101,81,o),
(195,-10,o),
(337,-10,cs)
);
}
);
width = 679;
},
{
anchors = (
{
name = bottom;
pos = (344,0);
},
{
name = center;
pos = (344,387);
},
{
name = ogonek;
pos = (361,0);
},
{
name = top;
pos = (344,686);
},
{
name = topright;
pos = (394,712);
}
);
layerId = "B61048DD-A105-4E1B-AF86-BB1631F6D87A";
shapes = (
{
closed = 1;
nodes = (
(355,-10,ls),
(518,-10,o),
(635,83,o),
(635,222,cs),
(635,686,l),
(424,686,l),
(424,221,ls),
(424,177,o),
(389,146,o),
(344,146,cs),
(299,146,o),
(263,177,o),
(263,221,cs),
(263,686,l),
(52,686,l),
(52,222,ls),
(52,83,o),
(149,-10,o),
(312,-10,cs)
);
}
);
width = 687;
},
{
anchors = (
{
name = bottom;
pos = (341,0);
},
{
name = center;
pos = (342,387);
},
{
name = ogonek;
pos = (379,0);
},
{
name = top;
pos = (342,686);
},
{
name = topright;
pos = (398,719);
}
);
layerId = "D456B91C-7AE2-46C5-8C20-B2F338249762";
shapes = (
{
closed = 1;
nodes = (
(348,-10,ls),
(497,-10,o),
(603,81,o),
(603,219,cs),
(603,686,l),
(479,686,l),
(479,222,ls),
(479,142,o),
(427,86,o),
(341,86,cs),
(256,86,o),
(203,140,o),
(203,222,cs),
(203,686,l),
(79,686,l),
(79,219,ls),
(79,80,o),
(174,-10,o),
(325,-10,cs)
);
}
);
width = 683;
}
);
note = U;
unicode = 85;
},
{
color = 1;
glyphname = Uogonek;
kernLeft = H;
kernRight = H;
layers = (
{
background = {
shapes = (
{
closed = 1;
nodes = (
(509,686,l),
(509,222,ls),
(509,114,o),
(443,38,o),
(324,38,cs),
(206,38,o),
(140,111,o),
(140,222,cs),
(140,686,l),
(86,686,l),
(86,220,ls),
(86,81,o),
(180,-10,o),
(324,-10,cs),
(336,-10,l),
(316,-25,o),
(296,-45,o),
(296,-71,cs),
(296,-126,o),
(347,-143,o),
(393,-143,cs),
(422,-143,o),
(451,-135,o),
(477,-119,c),
(464,-86,l),
(443,-93,o),
(421,-100,o),
(397,-100,cs),
(376,-100,o),
(353,-91,o),
(353,-60,cs),
(353,-33,o),
(377,-16,o),
(397,-2,c),
(399,-1,l),
(500,25,o),
(563,107,o),
(563,220,cs),
(563,686,l)
);
}
);
};
layerId = "F84504BD-929B-4EC5-838D-CC63F45B30C5";
shapes = (
{
ref = U;
},
{
pos = (115,0);
ref = ogonekcomb;
}
);
width = 679;
},
{
background = {
shapes = (
{
closed = 1;
nodes = (
(425,686,l),
(425,221,ls),
(425,177,o),
(389,146,o),
(344,146,cs),
(299,146,o),
(263,177,o),
(263,221,cs),
(263,686,l),
(52,686,l),
(52,218,ls),
(52,79,o),
(159,-10,o),
(322,-10,cs),
(365,-10,l),
(345,-25,o),
(325,-45,o),
(325,-71,cs),
(325,-126,o),
(376,-143,o),
(422,-143,cs),
(459,-143,o),
(494,-135,o),
(526,-119,c),
(513,-76,l),
(492,-84,o),
(469,-90,o),
(446,-90,cs),
(425,-90,o),
(402,-83,o),
(402,-56,cs),
(402,-30,o),
(427,-14,o),
(446,-2,c),
(563,23,o),
(635,104,o),
(635,218,cs),
(635,686,l)
);
}
);
};
layerId = "B61048DD-A105-4E1B-AF86-BB1631F6D87A";
shapes = (
{
ref = U;
},
{
pos = (79,0);
ref = ogonekcomb;
}
);
width = 687;
},
{
layerId = "D456B91C-7AE2-46C5-8C20-B2F338249762";
shapes = (
{
ref = U;
},
{
pos = (112,0);
ref = ogonekcomb;
}
);
width = 683;
}
);
note = Uogonek;
unicode = 370;
},
{
color = 4;
glyphname = V;
kernLeft = V;
kernRight = V;
layers = (
{
layerId = "F84504BD-929B-4EC5-838D-CC63F45B30C5";
shapes = (
{
closed = 1;
nodes = (
(326,0,l),
(585,686,l),
(532,686,l),
(307,86,l),
(302,86,l),
(77,686,l),
(18,686,l),
(278,0,l)
);
}
);
width = 603;
},
{
layerId = "B61048DD-A105-4E1B-AF86-BB1631F6D87A";
shapes = (
{
closed = 1;
nodes = (
(452,0,l),
(660,686,l),
(458,686,l),
(339,260,l),
(335,260,l),
(215,686,l),
(-3,686,l),
(202,0,l)
);
}
);
width = 656;
},
{
layerId = "D456B91C-7AE2-46C5-8C20-B2F338249762";
shapes = (
{
closed = 1;
nodes = (
(382,0,l),
(618,686,l),
(499,686,l),
(321,163,l),
(317,163,l),
(138,686,l),
(9,686,l),
(244,0,l)
);
}
);
width = 627;
}
);
note = V;
unicode = 86;
},
{
color = 4;
glyphname = W;
kernLeft = V;
kernRight = V;
layers = (
{
anchors = (
{
name = top;
pos = (460,686);
}
);
layerId = "F84504BD-929B-4EC5-838D-CC63F45B30C5";
shapes = (
{
closed = 1;
nodes = (
(287,0,l),
(456,581,l),
(460,581,l),
(629,0,l),
(675,0,l),
(875,686,l),
(825,686,l),
(658,107,l),
(654,107,l),
(487,686,l),
(437,686,l),
(270,107,l),
(266,107,l),
(99,686,l),
(41,686,l),
(241,0,l)
);
}
);
width = 916;
},
{
anchors = (
{
name = top;
pos = (511,686);
}
);
layerId = "B61048DD-A105-4E1B-AF86-BB1631F6D87A";
shapes = (
{
closed = 1;
nodes = (
(427,0,l),
(510,329,l),
(516,329,l),
(599,0,l),
(837,0,l),
(1023,686,l),
(826,686,l),
(729,305,l),
(725,305,l),
(629,686,l),
(414,686,l),
(316,305,l),
(312,305,l),
(215,686,l),
(-2,686,l),
(185,0,l)
);
}
);
width = 1021;
},
{
anchors = (
{
name = top;
pos = (483,686);
}
);
layerId = "D456B91C-7AE2-46C5-8C20-B2F338249762";
shapes = (
{
closed = 1;
nodes = (
(349,0,l),
(480,469,l),
(485,469,l),
(616,0,l),
(747,0,l),
(941,686,l),
(825,686,l),
(690,195,l),
(686,195,l),
(550,686,l),
(427,686,l),
(290,195,l),
(286,195,l),
(151,686,l),
(22,686,l),
(216,0,l)
);
}
);
width = 963;
}
);
note = W;
unicode = 87;
},
{
color = 4;
glyphname = X;
kernLeft = X;
kernRight = X;
layers = (
{
layerId = "F84504BD-929B-4EC5-838D-CC63F45B30C5";
shapes = (
{
closed = 1;
nodes = (
(88,0,l),
(312,315,l),
(314,315,l),
(536,0,l),
(601,0,l),
(346,359,l),
(579,686,l),
(520,686,l),
(318,402,l),
(316,402,l),
(117,686,l),
(52,686,l),
(284,359,l),
(29,0,l)
);
}
);
width = 631;
},
{
layerId = "B61048DD-A105-4E1B-AF86-BB1631F6D87A";
shapes = (
{
closed = 1;
nodes = (
(211,0,l),
(326,213,l),
(330,213,l),
(446,0,l),
(690,0,l),
(475,362,l),
(669,686,l),
(444,686,l),
(349,511,l),
(345,511,l),
(250,686,l),
(7,686,l),
(200,363,l),
(-15,0,l)
);
}
);
width = 675;
},
{
layerId = "D456B91C-7AE2-46C5-8C20-B2F338249762";
shapes = (
{
closed = 1;
nodes = (
(143,0,l),
(318,270,l),
(321,270,l),
(496,0,l),
(641,0,l),
(403,360,l),
(619,686,l),
(486,686,l),
(332,450,l),
(329,450,l),
(176,686,l),
(32,686,l),
(247,361,l),
(9,0,l)
);
}
);
width = 651;
}
);
note = X;
unicode = 88;
},
{
color = 4;
glyphname = Y;
kernLeft = Y;
kernRight = Y;
layers = (
{
anchors = (
{
name = bottom;
pos = (285,0);
},
{
name = top;
pos = (289,686);
}
);
background = {
shapes = (
{
closed = 1;
nodes = (
(312,0,l),
(312,266,l),
(558,686,l),
(503,686,l),
(289,321,l),
(286,321,l),
(75,686,l),
(12,686,l),
(258,266,l),
(258,0,l)
);
}
);
};
layerId = "F84504BD-929B-4EC5-838D-CC63F45B30C5";
shapes = (
{
closed = 1;
nodes = (
(312,0,l),
(312,266,l),
(558,686,l),
(503,686,l),
(289,321,l),
(286,321,l),
(75,686,l),
(12,686,l),
(258,266,l),
(258,0,l)
);
}
);
width = 572;
},
{
anchors = (
{
name = bottom;
pos = (332,0);
},
{
name = top;
pos = (334,686);
}
);
layerId = "B61048DD-A105-4E1B-AF86-BB1631F6D87A";
shapes = (
{
closed = 1;
nodes = (
(429,0,l),
(429,263,l),
(655,686,l),
(440,686,l),
(335,461,l),
(330,461,l),
(227,686,l),
(-9,686,l),
(218,263,l),
(218,0,l)
);
}
);
width = 646;
},
{
anchors = (
{
name = bottom;
pos = (307,0);
},
{
name = top;
pos = (309,686);
}
);
layerId = "D456B91C-7AE2-46C5-8C20-B2F338249762";
shapes = (
{
closed = 1;
nodes = (
(364,0,l),
(364,264,l),
(601,686,l),
(475,686,l),
(309,383,l),
(306,383,l),
(143,686,l),
(3,686,l),
(240,264,l),
(240,0,l)
);
}
);
width = 605;
}
);
note = Y;
unicode = 89;
},
{
color = 4;
glyphname = Z;
kernLeft = Z;
kernRight = Z;
layers = (
{
anchors = (
{
name = top;
pos = (305,686);
}
);
layerId = "F84504BD-929B-4EC5-838D-CC63F45B30C5";
shapes = (
{
closed = 1;
nodes = (
(550,0,l),
(550,48,l),
(128,48,l),
(542,662,l),
(542,686,l),
(71,686,l),
(71,638,l),
(460,638,l),
(47,25,l),
(47,0,l)
);
}
);
width = 596;
},
{
anchors = (
{
name = top;
pos = (316,686);
}
);
layerId = "B61048DD-A105-4E1B-AF86-BB1631F6D87A";
shapes = (
{
closed = 1;
nodes = (
(585,0,l),
(585,161,l),
(314,161,l),
(577,625,l),
(577,686,l),
(38,686,l),
(38,526,l),
(282,526,l),
(14,61,l),
(14,0,l)
);
}
);
width = 608;
},
{
anchors = (
{
name = top;
pos = (310,686);
}
);
layerId = "D456B91C-7AE2-46C5-8C20-B2F338249762";
shapes = (
{
closed = 1;
nodes = (
(566,0,l),
(566,96,l),
(211,96,l),
(558,646,l),
(558,686,l),
(56,686,l),
(56,590,l),
(381,590,l),
(32,41,l),
(32,0,l)
);
}
);
width = 601;
}
);
note = Z;
unicode = 90;
},
{
color = 4;
glyphname = Ismall;
layers = (
{
layerId = "F84504BD-929B-4EC5-838D-CC63F45B30C5";
shapes = (
{
closed = 1;
nodes = (
(303,0,l),
(303,46,l),
(187,46,l),
(187,465,l),
(303,465,l),
(303,511,l),
(20,511,l),
(20,465,l),
(136,465,l),
(136,46,l),
(20,46,l),
(20,0,l)
);
}
);
width = 323;
},
{
layerId = "D456B91C-7AE2-46C5-8C20-B2F338249762";
shapes = (
{
closed = 1;
nodes = (
(346,0,l),
(346,89,l),
(241,89,l),
(241,422,l),
(346,422,l),
(346,511,l),
(20,511,l),
(20,422,l),
(125,422,l),
(125,89,l),
(20,89,l),
(20,0,l)
);
}
);
width = 366;
},
{
layerId = "B61048DD-A105-4E1B-AF86-BB1631F6D87A";
shapes = (
{
closed = 1;
nodes = (
(408,0,l),
(408,142,l),
(308,142,l),
(308,369,l),
(408,369,l),
(408,511,l),
(10,511,l),
(10,369,l),
(110,369,l),
(110,142,l),
(10,142,l),
(10,0,l)
);
}
);
width = 418;
}
);
unicode = 618;
},
{
color = 4;
glyphname = a;
kernLeft = a;
kernRight = a;
layers = (
{
anchors = (
{
name = bottom;
pos = (281,0);
},
{
name = ogonek;
pos = (479,0);
},
{
name = top;
pos = (266,511);
}
);
background = {
shapes = (
{
closed = 1;
nodes = (
(457,370,ls),
(457,473,o),
(397,521,o),
(273,521,cs),
(163,521,o),
(76,471,o),
(76,381,cs),
(76,372,o),
(77,363,o),
(78,355,c),
(127,355,l),
(127,371,ls),
(127,446,o),
(191,475,o),
(273,475,cs),
(368,475,o),
(406,447,o),
(406,360,cs),
(406,296,l),
(204,296,o),
(58,282,o),
(58,133,cs),
(58,20,o),
(137,-10,o),
(219,-10,cs),
(301,-10,o),
(364,19,o),
(406,89,c),
(406,34,o),
(419,-10,o),
(470,-10,cs),
(494,-10,o),
(516,-3,o),
(534,9,c),
(534,52,l),
(519,43,o),
(499,36,o),
(484,36,cs),
(469,36,o),
(457,45,o),
(457,69,cs)
);
},
{
closed = 1;
nodes = (
(406,216,ls),
(406,92,o),
(315,36,o),
(229,36,cs),
(144,36,o),
(109,66,o),
(109,132,cs),
(109,243,o),
(226,250,o),
(406,250,c)
);
}
);
};
layerId = "F84504BD-929B-4EC5-838D-CC63F45B30C5";
shapes = (
{
closed = 1;
nodes = (
(301,-10,o),
(364,19,o),
(406,89,c),
(406,34,o),
(411,-10,o),
(470,-10,cs),
(494,-10,o),
(516,-3,o),
(534,9,c),
(534,52,l),
(519,43,o),
(496,36,o),
(481,36,cs),
(466,36,o),
(457,45,o),
(457,69,cs),
(457,370,ls),
(457,472,o),
(397,521,o),
(277,521,cs),
(273,521,ls),
(163,521,o),
(76,471,o),
(76,381,cs),
(76,372,o),
(77,363,o),
(78,355,c),
(127,355,l),
(127,371,ls),
(127,446,o),
(191,475,o),
(273,475,cs),
(368,475,o),
(406,447,o),
(406,360,cs),
(406,296,l),
(204,296,o),
(58,280,o),
(58,131,cs),
(58,22,o),
(137,-10,o),
(219,-10,cs)
);
},
{
closed = 1;
nodes = (
(144,36,o),
(109,66,o),
(109,132,cs),
(109,243,o),
(226,250,o),
(406,250,c),
(406,216,ls),
(406,92,o),
(315,36,o),
(229,36,cs)
);
}
);
width = 585;
},
{
anchors = (
{
name = bottom;
pos = (309,0);
},
{
name = ogonek;
pos = (517,0);
},
{
name = top;
pos = (296,511);
}
);
background = {
shapes = (
{
closed = 1;
nodes = (
(286,-10,o),
(334,31,o),
(369,71,c),
(380,23,o),
(427,-10,o),
(516,-10,cs),
(568,-10,o),
(599,0,o),
(617,13,c),
(617,120,l),
(606,114,o),
(594,111,o),
(582,111,cs),
(567,111,o),
(551,121,o),
(551,148,cs),
(551,359,ls),
(551,451,o),
(473,521,o),
(312,521,cs),
(279,521,ls),
(131,521,o),
(39,453,o),
(39,368,cs),
(39,362,o),
(39,357,o),
(40,354,c),
(230,354,l),
(230,358,ls),
(230,386,o),
(265,405,o),
(294,405,cs),
(330,405,o),
(359,384,o),
(359,345,cs),
(359,316,l),
(151,316,o),
(24,285,o),
(24,143,cs),
(24,7,o),
(121,-10,o),
(204,-10,cs)
);
},
{
closed = 1;
nodes = (
(260,111,o),
(231,120,o),
(231,159,cs),
(231,198,o),
(267,225,o),
(359,225,c),
(359,181,ls),
(359,138,o),
(327,111,o),
(291,111,cs)
);
}
);
};
layerId = "B61048DD-A105-4E1B-AF86-BB1631F6D87A";
shapes = (
{
closed = 1;
nodes = (
(277,-10,o),
(334,31,o),
(369,71,c),
(380,23,o),
(427,-10,o),
(516,-10,cs),
(568,-10,o),
(599,0,o),
(617,13,c),
(617,120,l),
(606,114,o),
(594,111,o),
(582,111,cs),
(567,111,o),
(551,121,o),
(551,148,cs),
(551,359,ls),
(551,451,o),
(473,521,o),
(312,521,cs),
(279,521,ls),
(131,521,o),
(39,453,o),
(39,368,cs),
(39,362,o),
(39,357,o),
(40,354,c),
(230,354,l),
(230,358,ls),
(230,386,o),
(255,405,o),
(294,405,cs),
(330,405,o),
(359,390,o),
(359,351,cs),
(359,316,l),
(151,316,o),
(24,279,o),
(24,137,cs),
(24,29,o),
(102,-10,o),
(185,-10,cs)
);
},
{
closed = 1;
nodes = (
(260,111,o),
(231,120,o),
(231,159,cs),
(231,198,o),
(267,225,o),
(359,225,c),
(359,181,ls),
(359,138,o),
(327,111,o),
(291,111,cs)
);
}
);
width = 624;
},
{
anchors = (
{
name = bottom;
pos = (291,0);
},
{
name = ogonek;
pos = (503,0);
},
{
name = top;
pos = (279,511);
}
);
background = {
shapes = (
{
closed = 1;
nodes = (
(294,-10,o),
(351,24,o),
(390,81,c),
(394,29,o),
(423,-10,o),
(490,-10,cs),
(527,-10,o),
(553,-2,o),
(571,11,c),
(571,82,l),
(558,75,o),
(541,69,o),
(528,69,cs),
(513,69,o),
(499,79,o),
(499,104,cs),
(499,365,ls),
(499,463,o),
(431,521,o),
(293,521,cs),
(276,521,ls),
(149,521,o),
(60,463,o),
(60,375,cs),
(60,368,o),
(60,360,o),
(61,355,c),
(173,355,l),
(173,365,ls),
(173,419,o),
(224,444,o),
(282,444,cs),
(351,444,o),
(385,419,o),
(385,353,cs),
(385,305,l),
(180,305,o),
(43,283,o),
(43,137,cs),
(43,14,o),
(130,-10,o),
(212,-10,cs)
);
},
{
closed = 1;
nodes = (
(196,69,o),
(163,90,o),
(163,144,cs),
(163,223,o),
(244,239,o),
(385,239,c),
(385,200,ls),
(385,112,o),
(320,69,o),
(257,69,cs)
);
}
);
};
layerId = "D456B91C-7AE2-46C5-8C20-B2F338249762";
shapes = (
{
closed = 1;
nodes = (
(289,-10,o),
(351,24,o),
(390,81,c),
(394,29,o),
(423,-10,o),
(490,-10,cs),
(527,-10,o),
(553,-2,o),
(571,11,c),
(571,82,l),
(558,75,o),
(541,69,o),
(528,69,cs),
(513,69,o),
(499,79,o),
(499,104,cs),
(499,365,ls),
(499,463,o),
(431,521,o),
(293,521,cs),
(276,521,ls),
(149,521,o),
(60,463,o),
(60,375,cs),
(60,368,o),
(60,360,o),
(61,355,c),
(173,355,l),
(173,365,ls),
(173,419,o),
(224,444,o),
(282,444,cs),
(351,444,o),
(385,419,o),
(385,353,cs),
(385,305,l),
(180,305,o),
(43,279,o),
(43,133,cs),
(43,24,o),
(125,-10,o),
(207,-10,cs)
);
},
{
closed = 1;
nodes = (
(196,69,o),
(163,90,o),
(163,144,cs),
(163,223,o),
(244,239,o),
(385,239,c),
(385,200,ls),
(385,112,o),
(320,69,o),
(257,69,cs)
);
}
);
width = 602;
}
);
note = a;
unicode = 97;
},
{
color = 1;
glyphname = aacute;
kernLeft = a;
kernRight = a;
layers = (
{
background = {
shapes = (
{
closed = 1;
nodes = (
(251,575,l),
(301,575,l),
(412,717,l),
(412,720,l),
(347,720,l)
);
},
{
closed = 1;
nodes = (
(447,370,ls),
(447,473,o),
(387,521,o),
(263,521,cs),
(153,521,o),
(66,471,o),
(66,381,cs),
(66,372,o),
(67,363,o),
(68,355,c),
(117,355,l),
(117,371,ls),
(117,446,o),
(181,475,o),
(263,475,cs),
(358,475,o),
(396,447,o),
(396,360,cs),
(396,296,l),
(194,296,o),
(48,282,o),
(48,133,cs),
(48,20,o),
(127,-10,o),
(209,-10,cs),
(291,-10,o),
(354,19,o),
(396,89,c),
(396,34,o),
(409,-10,o),
(460,-10,cs),
(484,-10,o),
(506,-3,o),
(524,9,c),
(524,52,l),
(509,43,o),
(489,36,o),
(474,36,cs),
(459,36,o),
(447,45,o),
(447,69,cs)
);
},
{
closed = 1;
nodes = (
(396,216,ls),
(396,92,o),
(305,36,o),
(219,36,cs),
(134,36,o),
(99,66,o),
(99,132,cs),
(99,243,o),
(216,250,o),
(396,250,c)
);
}
);
};
layerId = "F84504BD-929B-4EC5-838D-CC63F45B30C5";
shapes = (
{
ref = a;
},
{
pos = (21,0);
ref = acutecomb;
}
);
width = 585;
},
{
background = {
shapes = (
{
closed = 1;
nodes = (
(489,717,l),
(487,720,l),
(336,720,l),
(245,575,l),
(363,575,l)
);
},
{
closed = 1;
nodes = (
(279,521,ls),
(131,521,o),
(39,453,o),
(39,368,cs),
(39,362,o),
(39,357,o),
(40,354,c),
(230,354,l),
(230,358,ls),
(230,386,o),
(265,405,o),
(294,405,cs),
(330,405,o),
(359,384,o),
(359,345,cs),
(359,316,l),
(151,316,o),
(24,285,o),
(24,143,cs),
(24,7,o),
(121,-10,o),
(204,-10,cs),
(286,-10,o),
(334,31,o),
(369,71,c),
(380,23,o),
(427,-10,o),
(516,-10,cs),
(568,-10,o),
(599,0,o),
(617,13,c),
(617,120,l),
(606,114,o),
(594,111,o),
(582,111,cs),
(567,111,o),
(551,121,o),
(551,148,cs),
(551,359,ls),
(551,451,o),
(473,521,o),
(312,521,cs)
);
},
{
closed = 1;
nodes = (
(359,181,ls),
(359,138,o),
(327,111,o),
(291,111,cs),
(260,111,o),
(231,120,o),
(231,159,cs),
(231,198,o),
(267,225,o),
(359,225,c)
);
}
);
};
layerId = "B61048DD-A105-4E1B-AF86-BB1631F6D87A";
shapes = (
{
ref = a;
},
{
pos = (46,0);
ref = acutecomb;
}
);
width = 624;
},
{
layerId = "D456B91C-7AE2-46C5-8C20-B2F338249762";
shapes = (
{
ref = a;
},
{
pos = (34,0);
ref = acutecomb;
}
);
width = 602;
}
);
note = aacute;
unicode = 225;
},
{
color = 1;
glyphname = agrave;
kernLeft = a;
kernRight = a;
layers = (
{
background = {
shapes = (
{
closed = 1;
nodes = (
(250,575,l),
(300,575,l),
(204,720,l),
(139,720,l),
(139,717,l)
);
},
{
closed = 1;
nodes = (
(447,370,ls),
(447,473,o),
(387,521,o),
(263,521,cs),
(153,521,o),
(66,471,o),
(66,381,cs),
(66,372,o),
(67,363,o),
(68,355,c),
(117,355,l),
(117,371,ls),
(117,446,o),
(181,475,o),
(263,475,cs),
(358,475,o),
(396,447,o),
(396,360,cs),
(396,296,l),
(194,296,o),
(48,282,o),
(48,133,cs),
(48,20,o),
(127,-10,o),
(209,-10,cs),
(291,-10,o),
(354,19,o),
(396,89,c),
(396,34,o),
(409,-10,o),
(460,-10,cs),
(484,-10,o),
(506,-3,o),
(524,9,c),
(524,52,l),
(509,43,o),
(489,36,o),
(474,36,cs),
(459,36,o),
(447,45,o),
(447,69,cs)
);
},
{
closed = 1;
nodes = (
(396,216,ls),
(396,92,o),
(305,36,o),
(219,36,cs),
(134,36,o),
(99,66,o),
(99,132,cs),
(99,243,o),
(216,250,o),
(396,250,c)
);
}
);
};
layerId = "F84504BD-929B-4EC5-838D-CC63F45B30C5";
shapes = (
{
ref = a;
},
{
pos = (-65,0);
ref = gravecomb;
}
);
width = 585;
},
{
background = {
shapes = (
{
closed = 1;
nodes = (
(358,575,l),
(267,720,l),
(116,720,l),
(114,717,l),
(240,575,l)
);
},
{
closed = 1;
nodes = (
(279,521,ls),
(131,521,o),
(39,453,o),
(39,368,cs),
(39,362,o),
(39,357,o),
(40,354,c),
(230,354,l),
(230,358,ls),
(230,386,o),
(265,405,o),
(294,405,cs),
(330,405,o),
(359,384,o),
(359,345,cs),
(359,316,l),
(151,316,o),
(24,285,o),
(24,143,cs),
(24,7,o),
(121,-10,o),
(204,-10,cs),
(286,-10,o),
(334,31,o),
(369,71,c),
(380,23,o),
(427,-10,o),
(516,-10,cs),
(568,-10,o),
(599,0,o),
(617,13,c),
(617,120,l),
(606,114,o),
(594,111,o),
(582,111,cs),
(567,111,o),
(551,121,o),
(551,148,cs),
(551,359,ls),
(551,451,o),
(473,521,o),
(312,521,cs)
);
},
{
closed = 1;
nodes = (
(359,181,ls),
(359,138,o),
(327,111,o),
(291,111,cs),
(260,111,o),
(231,120,o),
(231,159,cs),
(231,198,o),
(267,225,o),
(359,225,c)
);
}
);
};
layerId = "B61048DD-A105-4E1B-AF86-BB1631F6D87A";
shapes = (
{
ref = a;
},
{
pos = (-68,0);
ref = gravecomb;
}
);
width = 624;
},
{
layerId = "D456B91C-7AE2-46C5-8C20-B2F338249762";
shapes = (
{
ref = a;
},
{
pos = (-69,0);
ref = gravecomb;
}
);
width = 602;
}
);
note = agrave;
unicode = 224;
},
{
color = 4;
glyphname = ae;
kernLeft = a;
kernRight = e;
layers = (
{
anchors = (
{
name = top;
pos = (446,511);
}
);
layerId = "F84504BD-929B-4EC5-838D-CC63F45B30C5";
shapes = (
{
closed = 1;
nodes = (
(298,-10,o),
(392,23,o),
(429,118,c),
(463,35,o),
(532,-10,o),
(619,-10,cs),
(624,-10,ls),
(730,-10,o),
(819,63,o),
(819,189,c),
(769,189,l),
(769,84,o),
(699,36,o),
(620,36,cs),
(520,36,o),
(457,110,o),
(457,250,c),
(819,250,l),
(819,314,ls),
(819,446,o),
(730,521,o),
(622,521,cs),
(618,521,ls),
(546,521,o),
(486,489,o),
(448,430,c),
(427,491,o),
(370,521,o),
(277,521,cs),
(273,521,ls),
(163,521,o),
(76,471,o),
(76,381,cs),
(76,372,o),
(77,363,o),
(78,355,c),
(127,355,l),
(127,371,ls),
(127,446,o),
(191,475,o),
(273,475,cs),
(368,475,o),
(406,447,o),
(406,360,cs),
(406,296,l),
(204,296,o),
(58,280,o),
(58,131,cs),
(58,22,o),
(137,-10,o),
(219,-10,cs)
);
},
{
closed = 1;
nodes = (
(144,36,o),
(109,66,o),
(109,132,cs),
(109,243,o),
(226,250,o),
(406,250,c),
(406,216,ls),
(406,92,o),
(315,36,o),
(229,36,cs)
);
},
{
closed = 1;
nodes = (
(466,416,o),
(533,475,o),
(619,475,cs),
(713,475,o),
(769,417,o),
(769,296,c),
(458,296,l)
);
}
);
width = 891;
},
{
anchors = (
{
name = top;
pos = (471,511);
}
);
layerId = "B61048DD-A105-4E1B-AF86-BB1631F6D87A";
shapes = (
{
closed = 1;
nodes = (
(302,-10,o),
(364,30,o),
(427,88,c),
(472,26,o),
(539,-10,o),
(630,-10,cs),
(645,-10,ls),
(803,-10,o),
(894,79,o),
(894,192,c),
(711,192,l),
(711,143,o),
(687,111,o),
(639,111,cs),
(573,111,o),
(562,166,o),
(562,229,c),
(895,229,l),
(895,291,ls),
(895,424,o),
(805,521,o),
(648,521,cs),
(623,521,ls),
(562,521,o),
(511,503,o),
(472,467,c),
(436,501,o),
(385,521,o),
(311,521,cs),
(278,521,ls),
(130,521,o),
(39,453,o),
(39,368,cs),
(39,362,o),
(39,357,o),
(40,354,c),
(230,354,l),
(230,358,ls),
(230,386,o),
(255,405,o),
(293,405,cs),
(329,405,o),
(359,390,o),
(359,351,cs),
(359,316,l),
(151,316,o),
(24,277,o),
(24,135,cs),
(24,29,o),
(104,-10,o),
(195,-10,cs)
);
},
{
closed = 1;
nodes = (
(260,111,o),
(231,120,o),
(231,159,cs),
(231,198,o),
(267,225,o),
(359,225,c),
(359,181,ls),
(359,138,o),
(327,111,o),
(291,111,cs)
);
},
{
closed = 1;
nodes = (
(562,371,o),
(589,400,o),
(631,400,cs),
(671,400,o),
(700,374,o),
(700,316,c),
(562,316,l)
);
}
);
width = 924;
},
{
anchors = (
{
name = top;
pos = (457,511);
}
);
layerId = "D456B91C-7AE2-46C5-8C20-B2F338249762";
shapes = (
{
closed = 1;
nodes = (
(306,-10,o),
(378,26,o),
(428,101,c),
(470,31,o),
(530,-10,o),
(624,-10,cs),
(633,-10,ls),
(762,-10,o),
(852,70,o),
(852,190,c),
(743,190,l),
(743,110,o),
(694,69,o),
(628,69,cs),
(544,69,o),
(504,135,o),
(504,241,c),
(853,241,l),
(853,304,ls),
(853,436,o),
(763,521,o),
(634,521,cs),
(620,521,ls),
(549,521,o),
(498,496,o),
(458,445,c),
(429,497,o),
(375,521,o),
(292,521,cs),
(275,521,ls),
(148,521,o),
(59,463,o),
(59,375,cs),
(59,368,o),
(60,360,o),
(61,355,c),
(172,355,l),
(172,365,ls),
(172,419,o),
(223,444,o),
(282,444,cs),
(351,444,o),
(385,419,o),
(385,353,cs),
(385,305,l),
(180,305,o),
(43,279,o),
(43,133,cs),
(43,24,o),
(131,-10,o),
(213,-10,cs)
);
},
{
closed = 1;
nodes = (
(195,69,o),
(163,90,o),
(163,144,cs),
(163,223,o),
(244,239,o),
(385,239,c),
(385,200,ls),
(385,112,o),
(320,69,o),
(256,69,cs)
);
},
{
closed = 1;
nodes = (
(509,396,o),
(558,442,o),
(624,442,cs),
(694,442,o),
(738,398,o),
(738,305,c),
(504,305,l)
);
}
);
width = 906;
}
);
note = ae;
unicode = 230;
},
{
color = 4;
glyphname = b;
kernLeft = h;
kernRight = o;
layers = (
{
layerId = "F84504BD-929B-4EC5-838D-CC63F45B30C5";
shapes = (
{
closed = 1;
nodes = (
(419,-10,o),
(510,72,o),
(510,262,cs),
(510,273,ls),
(510,435,o),
(421,521,o),
(309,521,cs),
(237,521,o),
(177,490,o),
(144,440,c),
(144,720,l),
(93,720,l),
(93,0,l),
(114,0,l),
(133,85,l),
(171,21,o),
(229,-10,o),
(307,-10,cs)
);
},
{
closed = 1;
nodes = (
(216,36,o),
(143,88,o),
(143,257,cs),
(143,269,ls),
(143,413,o),
(215,475,o),
(302,475,cs),
(389,475,o),
(459,412,o),
(459,269,cs),
(459,258,ls),
(459,92,o),
(389,36,o),
(302,36,cs)
);
}
);
width = 582;
},
{
layerId = "B61048DD-A105-4E1B-AF86-BB1631F6D87A";
shapes = (
{
closed = 1;
nodes = (
(476,-10,o),
(584,75,o),
(584,250,cs),
(584,271,ls),
(584,446,o),
(493,521,o),
(386,521,cs),
(320,521,o),
(281,498,o),
(248,458,c),
(248,720,l),
(50,720,l),
(50,0,l),
(120,0,l),
(188,75,l),
(227,20,o),
(284,-10,o),
(356,-10,cs)
);
},
{
closed = 1;
nodes = (
(275,111,o),
(248,142,o),
(248,181,cs),
(248,326,ls),
(248,365,o),
(275,396,o),
(310,396,cs),
(345,396,o),
(372,365,o),
(372,326,cs),
(372,181,ls),
(372,142,o),
(345,111,o),
(310,111,cs)
);
}
);
width = 610;
},
{
layerId = "D456B91C-7AE2-46C5-8C20-B2F338249762";
shapes = (
{
closed = 1;
nodes = (
(444,-10,o),
(539,72,o),
(539,256,cs),
(539,279,ls),
(539,446,o),
(449,521,o),
(339,521,cs),
(269,521,o),
(217,486,o),
(190,448,c),
(190,720,l),
(74,720,l),
(74,0,l),
(117,0,l),
(157,81,l),
(196,21,o),
(253,-10,o),
(329,-10,cs)
);
},
{
closed = 1;
nodes = (
(242,69,o),
(190,112,o),
(190,223,cs),
(190,294,ls),
(190,392,o),
(245,440,o),
(309,440,cs),
(372,440,o),
(417,392,o),
(417,295,cs),
(417,224,ls),
(417,114,o),
(369,69,o),
(306,69,cs)
);
}
);
width = 591;
}
);
metricRight = o;
note = b;
unicode = 98;
},
{
color = 4;
glyphname = c;
kernLeft = o;
kernRight = c;
layers = (
{
anchors = (
{
name = bottom;
pos = (286,0);
},
{
name = top;
pos = (283,511);
}
);
background = {
shapes = (
{
closed = 1;
nodes = (
(139,521,o),
(52,428,o),
(52,263,cs),
(52,248,ls),
(52,83,o),
(140,-10,o),
(266,-10,cs),
(378,-10,o),
(465,64,o),
(465,197,c),
(415,197,l),
(415,86,o),
(347,36,o),
(266,36,cs),
(174,36,o),
(103,103,o),
(103,242,cs),
(103,269,ls),
(103,408,o),
(173,475,o),
(265,475,cs),
(347,475,o),
(415,423,o),
(415,314,c),
(465,314,l),
(465,447,o),
(377,521,o),
(265,521,cs)
);
}
);
};
layerId = "F84504BD-929B-4EC5-838D-CC63F45B30C5";
shapes = (
{
closed = 1;
nodes = (
(285,-10,ls),
(396,-10,o),
(485,64,o),
(485,197,c),
(435,197,l),
(435,86,o),
(367,36,o),
(286,36,cs),
(194,36,o),
(123,103,o),
(123,242,cs),
(123,269,ls),
(123,408,o),
(193,475,o),
(285,475,cs),
(367,475,o),
(435,423,o),
(435,314,c),
(485,314,l),
(485,447,o),
(398,521,o),
(287,521,cs),
(285,521,ls),
(160,521,o),
(72,427,o),
(72,263,cs),
(72,248,ls),
(72,84,o),
(158,-10,o),
(282,-10,cs)
);
}
);
width = 548;
},
{
anchors = (
{
name = bottom;
pos = (304,0);
},
{
name = top;
pos = (303,511);
}
);
layerId = "B61048DD-A105-4E1B-AF86-BB1631F6D87A";
shapes = (
{
closed = 1;
nodes = (
(305,-10,ls),
(449,-10,o),
(545,68,o),
(545,207,c),
(387,207,l),
(387,133,o),
(368,111,o),
(309,111,cs),
(260,111,o),
(238,142,o),
(238,181,cs),
(238,330,ls),
(238,369,o),
(268,400,o),
(307,400,cs),
(357,400,o),
(376,367,o),
(376,304,c),
(545,304,l),
(545,428,o),
(460,521,o),
(308,521,cs),
(278,521,ls),
(143,521,o),
(26,411,o),
(26,276,cs),
(26,235,ls),
(26,100,o),
(141,-10,o),
(276,-10,cs)
);
}
);
width = 569;
},
{
anchors = (
{
name = bottom;
pos = (299,0);
},
{
name = top;
pos = (289,511);
}
);
layerId = "D456B91C-7AE2-46C5-8C20-B2F338249762";
shapes = (
{
closed = 1;
nodes = (
(291,-10,ls),
(417,-10,o),
(512,66,o),
(512,201,c),
(414,201,l),
(414,107,o),
(367,69,o),
(296,69,cs),
(223,69,o),
(174,118,o),
(174,213,cs),
(174,301,ls),
(174,396,o),
(226,442,o),
(295,442,cs),
(363,442,o),
(409,398,o),
(409,310,c),
(512,310,l),
(512,439,o),
(427,521,o),
(298,521,cs),
(283,521,ls),
(154,521,o),
(52,420,o),
(52,269,cs),
(52,242,ls),
(52,91,o),
(147,-10,o),
(276,-10,cs)
);
}
);
width = 557;
}
);
note = c;
unicode = 99;
},
{
color = 4;
glyphname = d;
kernLeft = o;
kernRight = l;
layers = (
{
anchors = (
{
name = center;
pos = (423,617);
},
{
name = topright;
pos = (360,469);
}
);
layerId = "F84504BD-929B-4EC5-838D-CC63F45B30C5";
shapes = (
{
closed = 1;
nodes = (
(350,-10,o),
(406,18,o),
(444,77,c),
(455,0,l),
(489,0,l),
(489,720,l),
(438,720,l),
(438,440,l),
(405,490,o),
(347,521,o),
(275,521,cs),
(163,521,o),
(72,426,o),
(72,264,cs),
(72,253,ls),
(72,63,o),
(163,-10,o),
(275,-10,cs)
);
},
{
closed = 1;
nodes = (
(193,36,o),
(123,85,o),
(123,251,cs),
(123,262,ls),
(123,405,o),
(193,475,o),
(280,475,cs),
(367,475,o),
(439,413,o),
(439,269,cs),
(439,257,ls),
(439,88,o),
(366,36,o),
(280,36,cs)
);
}
);
width = 583;
},
{
anchors = (
{
name = center;
pos = (398,617);
},
{
name = topright;
pos = (366,286);
}
);
layerId = "B61048DD-A105-4E1B-AF86-BB1631F6D87A";
shapes = (
{
closed = 1;
nodes = (
(306,-10,o),
(356,28,o),
(384,63,c),
(402,0,l),
(560,0,l),
(560,720,l),
(362,720,l),
(362,458,l),
(341,493,o),
(301,521,o),
(230,521,cs),
(123,521,o),
(26,436,o),
(26,261,cs),
(26,250,ls),
(26,75,o),
(96,-10,o),
(228,-10,cs)
);
},
{
closed = 1;
nodes = (
(265,111,o),
(238,142,o),
(238,181,cs),
(238,326,ls),
(238,365,o),
(265,396,o),
(300,396,cs),
(335,396,o),
(362,365,o),
(362,326,cs),
(362,181,ls),
(362,142,o),
(335,111,o),
(300,111,cs)
);
}
);
width = 610;
},
{
anchors = (
{
name = center;
pos = (410,617);
},
{
name = topright;
pos = (361,388);
}
);
layerId = "D456B91C-7AE2-46C5-8C20-B2F338249762";
shapes = (
{
closed = 1;
nodes = (
(333,-10,o),
(382,21,o),
(415,69,c),
(429,0,l),
(519,0,l),
(519,720,l),
(403,720,l),
(403,448,l),
(376,491,o),
(325,521,o),
(253,521,cs),
(143,521,o),
(52,434,o),
(52,267,cs),
(52,256,ls),
(52,72,o),
(148,-10,o),
(264,-10,cs)
);
},
{
closed = 1;
nodes = (
(223,69,o),
(174,114,o),
(174,224,cs),
(174,294,ls),
(174,391,o),
(223,440,o),
(287,440,cs),
(351,440,o),
(403,392,o),
(403,294,cs),
(403,223,ls),
(403,112,o),
(350,69,o),
(287,69,cs)
);
}
);
width = 593;
}
);
metricLeft = o;
note = d;
unicode = 100;
},
{
color = 4;
glyphname = eth;
kernLeft = eth;
kernRight = eth;
layers = (
{
background = {
shapes = (
{
closed = 1;
nodes = (
(131,707,l),
(155,691,o),
(188,669,o),
(223,642,c),
(122,593,l),
(148,570,l),
(250,620,l),
(289,587,o),
(329,549,o),
(363,508,c),
(335,518,o),
(308,522,o),
(282,522,cs),
(160,522,o),
(72,418,o),
(72,263,cs),
(72,248,ls),
(72,83,o),
(162,-10,o),
(288,-10,cs),
(414,-10,o),
(504,83,o),
(504,248,cs),
(504,263,ls),
(504,422,o),
(407,550,o),
(291,640,c),
(390,688,l),
(367,711,l),
(263,661,l),
(231,684,o),
(198,705,o),
(168,724,c)
);
},
{
closed = 1;
nodes = (
(380,475,o),
(453,408,o),
(453,269,cs),
(453,242,ls),
(453,103,o),
(380,36,o),
(288,36,cs),
(196,36,o),
(123,103,o),
(123,242,cs),
(123,269,ls),
(123,408,o),
(196,475,o),
(288,475,cs)
);
}
);
};
layerId = "F84504BD-929B-4EC5-838D-CC63F45B30C5";
shapes = (
{
closed = 1;
nodes = (
(291,-10,ls),
(415,-10,o),
(504,85,o),
(504,248,cs),
(504,263,ls),
(504,422,o),
(407,550,o),
(291,640,c),
(390,688,l),
(367,711,l),
(263,661,l),
(231,684,o),
(198,705,o),
(168,724,c),
(131,707,l),
(155,691,o),
(188,669,o),
(223,642,c),
(122,593,l),
(148,570,l),
(250,620,l),
(289,587,o),
(329,549,o),
(363,508,c),
(335,518,o),
(308,522,o),
(282,522,cs),
(160,522,o),
(72,418,o),
(72,263,cs),
(72,248,ls),
(72,83,o),
(162,-10,o),
(286,-10,cs)
);
},
{
closed = 1;
nodes = (
(196,36,o),
(123,103,o),
(123,242,cs),
(123,269,ls),
(123,408,o),
(196,476,o),
(288,476,cs),
(380,476,o),
(453,408,o),
(453,269,cs),
(453,242,ls),
(453,103,o),
(380,36,o),
(288,36,cs)
);
}
);
width = 576;
},
{
layerId = "B61048DD-A105-4E1B-AF86-BB1631F6D87A";
shapes = (
{
closed = 1;
nodes = (
(323,-10,ls),
(475,-10,o),
(588,93,o),
(588,245,cs),
(588,266,ls),
(588,405,o),
(494,552,o),
(370,649,c),
(429,677,l),
(374,728,l),
(303,695,l),
(272,713,o),
(241,728,o),
(209,739,c),
(94,688,l),
(125,677,o),
(153,656,o),
(176,635,c),
(101,600,l),
(160,549,l),
(226,580,l),
(252,553,o),
(283,524,o),
(294,506,c),
(280,512,o),
(256,515,o),
(232,515,cs),
(105,515,o),
(26,392,o),
(26,266,cs),
(26,245,ls),
(26,95,o),
(139,-10,o),
(291,-10,cs)
);
},
{
closed = 1;
nodes = (
(268,111,o),
(238,142,o),
(238,181,cs),
(238,330,ls),
(238,369,o),
(268,400,o),
(307,400,cs),
(346,400,o),
(376,369,o),
(376,330,cs),
(376,181,ls),
(376,142,o),
(346,111,o),
(307,111,cs)
);
}
);
width = 615;
},
{
layerId = "D456B91C-7AE2-46C5-8C20-B2F338249762";
shapes = (
{
closed = 1;
nodes = (
(305,-10,ls),
(442,-10,o),
(541,89,o),
(541,247,cs),
(541,264,ls),
(541,414,o),
(446,551,o),
(326,644,c),
(407,683,l),
(370,719,l),
(281,676,l),
(249,697,o),
(217,715,o),
(186,731,c),
(115,699,l),
(142,685,o),
(172,663,o),
(202,639,c),
(113,596,l),
(153,561,l),
(239,602,l),
(273,572,o),
(309,538,o),
(332,507,c),
(311,515,o),
(285,519,o),
(260,519,cs),
(136,519,o),
(52,406,o),
(52,264,cs),
(52,247,ls),
(52,88,o),
(152,-10,o),
(288,-10,cs)
);
},
{
closed = 1;
nodes = (
(228,69,o),
(174,120,o),
(174,215,cs),
(174,296,ls),
(174,391,o),
(228,442,o),
(296,442,cs),
(365,442,o),
(419,391,o),
(419,296,cs),
(419,215,ls),
(419,120,o),
(365,69,o),
(296,69,cs)
);
}
);
width = 593;
}
);
note = eth;
unicode = 240;
},
{
color = 3;
glyphname = dcaron;
kernLeft = o;
kernRight = l;
layers = (
{
background = {
shapes = (
{
closed = 1;
nodes = (
(455,0,l),
(489,0,l),
(489,720,l),
(438,720,l),
(438,440,l),
(405,490,o),
(347,521,o),
(275,521,cs),
(163,521,o),
(72,433,o),
(72,271,cs),
(72,260,ls),
(72,70,o),
(163,-10,o),
(275,-10,cs),
(350,-10,o),
(406,18,o),
(444,77,c)
);
},
{
closed = 1;
nodes = (
(587,516,l),
(617,628,l),
(617,686,l),
(552,686,l),
(552,617,l),
(576,617,l),
(576,617,o),
(554,516,o),
(553,516,c)
);
},
{
closed = 1;
nodes = (
(439,257,ls),
(439,88,o),
(366,36,o),
(280,36,cs),
(193,36,o),
(123,92,o),
(123,258,cs),
(123,269,ls),
(123,412,o),
(193,475,o),
(280,475,cs),
(367,475,o),
(439,413,o),
(439,269,cs)
);
}
);
};
layerId = "F84504BD-929B-4EC5-838D-CC63F45B30C5";
shapes = (
{
closed = 1;
nodes = (
(587,514,l),
(617,626,l),
(617,684,l),
(552,684,l),
(552,615,l),
(576,615,l),
(553,514,l)
);
},
{
ref = d;
}
);
width = 593;
},
{
background = {
shapes = (
{
closed = 1;
nodes = (
(551,0,l),
(551,720,l),
(353,720,l),
(353,458,l),
(332,493,o),
(292,521,o),
(221,521,cs),
(114,521,o),
(28,436,o),
(28,261,cs),
(28,250,ls),
(28,75,o),
(125,-10,o),
(246,-10,cs),
(307,-10,o),
(347,24,o),
(375,59,c),
(393,0,l)
);
},
{
closed = 1;
nodes = (
(797,686,l),
(606,686,l),
(606,503,l),
(690,503,l),
(653,338,l),
(747,338,l),
(797,525,l)
);
},
{
closed = 1;
nodes = (
(326,396,o),
(353,365,o),
(353,326,cs),
(353,181,ls),
(353,142,o),
(326,111,o),
(291,111,cs),
(256,111,o),
(229,142,o),
(229,181,cs),
(229,326,ls),
(229,365,o),
(256,396,o),
(291,396,cs)
);
}
);
};
layerId = "B61048DD-A105-4E1B-AF86-BB1631F6D87A";
shapes = (
{
closed = 1;
nodes = (
(745,336,l),
(795,523,l),
(795,684,l),
(604,684,l),
(604,501,l),
(688,501,l),
(651,336,l)
);
},
{
ref = d;
}
);
width = 741;
},
{
layerId = "D456B91C-7AE2-46C5-8C20-B2F338249762";
shapes = (
{
closed = 1;
nodes = (
(657,435,l),
(696,580,l),
(696,684,l),
(575,684,l),
(575,564,l),
(626,564,l),
(597,435,l)
);
},
{
ref = d;
}
);
width = 659;
}
);
note = dcaron;
unicode = 271;
},
{
color = 4;
glyphname = e;
kernLeft = o;
kernRight = e;
layers = (
{
anchors = (
{
name = bottom;
pos = (287,0);
},
{
name = ogonek;
pos = (313,0);
},
{
name = top;
pos = (285,511);
}
);
background = {
shapes = (
{
closed = 1;
nodes = (
(158,521,o),
(71,428,o),
(71,263,cs),
(71,248,ls),
(71,83,o),
(159,-10,o),
(285,-10,cs),
(395,-10,o),
(484,61,o),
(484,189,c),
(434,189,l),
(434,84,o),
(364,36,o),
(285,36,cs),
(193,36,o),
(122,103,o),
(122,242,cs),
(122,250,l),
(484,250,l),
(484,314,ls),
(484,447,o),
(396,521,o),
(284,521,cs)
);
},
{
closed = 1;
nodes = (
(366,475,o),
(434,423,o),
(434,314,cs),
(434,296,l),
(123,296,l),
(131,416,o),
(198,475,o),
(284,475,cs)
);
}
);
};
layerId = "F84504BD-929B-4EC5-838D-CC63F45B30C5";
shapes = (
{
closed = 1;
nodes = (
(287,-10,ls),
(393,-10,o),
(484,63,o),
(484,189,c),
(434,189,l),
(434,84,o),
(364,36,o),
(285,36,cs),
(185,36,o),
(122,110,o),
(122,250,c),
(484,250,l),
(484,314,ls),
(484,446,o),
(397,521,o),
(289,521,cs),
(285,521,ls),
(161,521,o),
(71,428,o),
(71,263,cs),
(71,248,ls),
(71,83,o),
(157,-10,o),
(282,-10,cs)
);
},
{
closed = 1;
nodes = (
(131,416,o),
(198,475,o),
(284,475,cs),
(378,475,o),
(434,417,o),
(434,296,c),
(123,296,l)
);
}
);
width = 556;
},
{
anchors = (
{
name = bottom;
pos = (313,0);
},
{
name = ogonek;
pos = (327,0);
},
{
name = top;
pos = (302,511);
}
);
layerId = "B61048DD-A105-4E1B-AF86-BB1631F6D87A";
shapes = (
{
closed = 1;
nodes = (
(316,-10,ls),
(474,-10,o),
(571,79,o),
(571,192,c),
(388,192,l),
(388,143,o),
(363,111,o),
(310,111,cs),
(250,111,o),
(239,164,o),
(239,229,c),
(572,229,l),
(572,291,ls),
(572,424,o),
(482,521,o),
(325,521,cs),
(300,521,ls),
(141,521,o),
(27,431,o),
(27,271,cs),
(27,240,ls),
(27,80,o),
(142,-10,o),
(301,-10,cs)
);
},
{
closed = 1;
nodes = (
(239,371,o),
(266,400,o),
(308,400,cs),
(348,400,o),
(377,374,o),
(377,316,c),
(239,316,l)
);
}
);
width = 601;
},
{
anchors = (
{
name = bottom;
pos = (299,0);
},
{
name = ogonek;
pos = (318,0);
},
{
name = top;
pos = (298,511);
}
);
layerId = "D456B91C-7AE2-46C5-8C20-B2F338249762";
shapes = (
{
closed = 1;
nodes = (
(296,-10,ls),
(425,-10,o),
(523,70,o),
(523,190,c),
(414,190,l),
(414,110,o),
(364,69,o),
(296,69,cs),
(214,69,o),
(172,134,o),
(172,241,c),
(523,241,l),
(523,304,ls),
(523,436,o),
(436,521,o),
(306,521,cs),
(293,521,ls),
(153,521,o),
(51,429,o),
(51,267,cs),
(51,244,ls),
(51,82,o),
(146,-10,o),
(286,-10,cs)
);
},
{
closed = 1;
nodes = (
(177,396,o),
(228,442,o),
(295,442,cs),
(365,442,o),
(409,398,o),
(409,305,c),
(173,305,l)
);
}
);
width = 576;
}
);
note = e;
unicode = 101;
},
{
color = 4;
glyphname = f;
kernLeft = f;
kernRight = f;
layers = (
{
layerId = "F84504BD-929B-4EC5-838D-CC63F45B30C5";
shapes = (
{
closed = 1;
nodes = (
(164,0,l),
(164,465,l),
(283,465,l),
(283,511,l),
(164,511,l),
(164,615,ls),
(164,674,o),
(193,682,o),
(221,682,cs),
(236,682,o),
(267,673,o),
(283,666,c),
(283,711,l),
(266,721,o),
(240,728,o),
(215,728,cs),
(156,728,o),
(113,694,o),
(113,617,cs),
(113,511,l),
(57,511,l),
(57,465,l),
(113,465,l),
(113,0,l)
);
}
);
width = 338;
},
{
layerId = "B61048DD-A105-4E1B-AF86-BB1631F6D87A";
shapes = (
{
closed = 1;
nodes = (
(287,0,l),
(287,369,l),
(407,369,l),
(407,511,l),
(287,511,l),
(287,548,ls),
(287,603,o),
(319,606,o),
(344,606,cs),
(359,606,o),
(391,601,o),
(406,596,c),
(406,706,l),
(373,720,o),
(306,728,o),
(272,728,cs),
(164,728,o),
(89,685,o),
(89,577,cs),
(89,511,l),
(25,511,l),
(25,369,l),
(89,369,l),
(89,0,l)
);
}
);
width = 419;
},
{
layerId = "D456B91C-7AE2-46C5-8C20-B2F338249762";
shapes = (
{
closed = 1;
nodes = (
(218,0,l),
(218,422,l),
(338,422,l),
(338,511,l),
(218,511,l),
(218,585,ls),
(218,642,o),
(249,648,o),
(276,648,cs),
(291,648,o),
(322,641,o),
(338,635,c),
(338,709,l),
(314,721,o),
(269,728,o),
(240,728,cs),
(160,728,o),
(102,690,o),
(102,599,cs),
(102,511,l),
(43,511,l),
(43,422,l),
(102,422,l),
(102,0,l)
);
}
);
width = 374;
}
);
note = f;
unicode = 102;
},
{
color = 4;
glyphname = g;
kernLeft = g;
kernRight = g;
layers = (
{
anchors = (
{
name = top;
pos = (289,511);
}
);
layerId = "F84504BD-929B-4EC5-838D-CC63F45B30C5";
shapes = (
{
closed = 1;
nodes = (
(399,-188,ls),
(482,-188,o),
(542,-128,o),
(542,-52,cs),
(542,15,o),
(494,67,o),
(424,67,cs),
(211,67,ls),
(169,67,o),
(136,91,o),
(136,133,cs),
(136,175,o),
(169,200,o),
(211,200,cs),
(293,200,ls),
(429,200,o),
(488,277,o),
(488,365,cs),
(488,411,o),
(472,447,o),
(442,473,c),
(443,477,l),
(504,486,o),
(542,547,o),
(542,603,c),
(494,603,l),
(487,548,o),
(452,512,o),
(404,499,c),
(375,513,o),
(338,521,o),
(293,521,cs),
(162,521,o),
(98,439,o),
(98,355,cs),
(98,305,o),
(125,266,o),
(166,236,c),
(117,217,o),
(85,183,o),
(85,135,cs),
(85,101,o),
(100,69,o),
(130,51,c),
(84,32,o),
(56,-13,o),
(56,-61,cs),
(56,-126,o),
(109,-188,o),
(182,-188,cs)
);
},
{
closed = 1;
nodes = (
(142,-142,o),
(106,-106,o),
(106,-61,cs),
(106,-17,o),
(142,21,o),
(186,21,cs),
(420,21,ls),
(459,21,o),
(491,-15,o),
(491,-54,cs),
(491,-103,o),
(450,-142,o),
(402,-142,cs),
(186,-142,ls)
);
},
{
closed = 1;
nodes = (
(200,245,o),
(149,297,o),
(149,360,cs),
(149,423,o),
(200,475,o),
(293,475,cs),
(386,475,o),
(437,423,o),
(437,360,cs),
(437,297,o),
(386,245,o),
(293,245,cs)
);
}
);
width = 568;
},
{
anchors = (
{
name = top;
pos = (292,511);
}
);
layerId = "B61048DD-A105-4E1B-AF86-BB1631F6D87A";
shapes = (
{
closed = 1;
nodes = (
(399,-188,ls),
(508,-188,o),
(589,-108,o),
(589,-17,cs),
(589,74,o),
(526,139,o),
(416,139,cs),
(266,139,ls),
(219,139,o),
(209,153,o),
(209,170,cs),
(209,186,o),
(225,200,o),
(266,200,cs),
(335,200,ls),
(444,200,o),
(535,272,o),
(535,361,cs),
(535,401,o),
(511,438,o),
(478,466,c),
(479,469,l),
(546,488,o),
(589,524,o),
(589,603,c),
(441,603,l),
(441,586,o),
(427,552,o),
(371,515,c),
(346,519,o),
(314,521,o),
(277,521,cs),
(121,521,o),
(47,442,o),
(47,353,cs),
(47,296,o),
(81,260,o),
(124,240,c),
(73,227,o),
(32,184,o),
(32,133,cs),
(32,98,o),
(51,66,o),
(80,46,c),
(33,23,o),
(4,-19,o),
(4,-68,cs),
(4,-134,o),
(68,-188,o),
(134,-188,cs)
);
},
{
closed = 1;
nodes = (
(190,-74,o),
(168,-55,o),
(168,-32,cs),
(168,-9,o),
(190,9,o),
(218,9,cs),
(361,9,ls),
(389,9,o),
(411,-10,o),
(411,-33,cs),
(411,-56,o),
(389,-74,o),
(361,-74,cs),
(218,-74,ls)
);
},
{
closed = 1;
nodes = (
(260,297,o),
(234,325,o),
(234,360,cs),
(234,395,o),
(260,423,o),
(295,423,cs),
(330,423,o),
(356,395,o),
(356,360,cs),
(356,325,o),
(330,297,o),
(295,297,cs)
);
}
);
width = 590;
},
{
anchors = (
{
name = top;
pos = (294,511);
}
);
layerId = "D456B91C-7AE2-46C5-8C20-B2F338249762";
shapes = (
{
closed = 1;
nodes = (
(406,-188,ls),
(500,-188,o),
(563,-122,o),
(563,-39,cs),
(563,38,o),
(509,99,o),
(421,99,cs),
(235,99,ls),
(191,99,o),
(168,119,o),
(168,149,cs),
(168,180,o),
(194,200,o),
(235,200,cs),
(312,200,ls),
(436,200,o),
(509,275,o),
(509,363,cs),
(509,407,o),
(489,443,o),
(458,470,c),
(459,473,l),
(523,487,o),
(563,537,o),
(563,603,c),
(470,603,l),
(467,565,o),
(441,530,o),
(389,506,c),
(362,516,o),
(326,521,o),
(285,521,cs),
(143,521,o),
(75,437,o),
(75,351,cs),
(75,298,o),
(103,262,o),
(144,235,c),
(94,218,o),
(61,183,o),
(61,134,cs),
(61,100,o),
(78,70,o),
(108,51,c),
(61,30,o),
(33,-17,o),
(33,-65,cs),
(33,-133,o),
(89,-188,o),
(159,-188,cs)
);
},
{
closed = 1;
nodes = (
(164,-113,o),
(135,-84,o),
(135,-50,cs),
(135,-15,o),
(164,13,o),
(201,13,cs),
(394,13,ls),
(428,13,o),
(455,-14,o),
(455,-46,cs),
(455,-83,o),
(423,-113,o),
(384,-113,cs),
(201,-113,ls)
);
},
{
closed = 1;
nodes = (
(225,268,o),
(185,309,o),
(185,360,cs),
(185,411,o),
(225,453,o),
(292,453,cs),
(359,453,o),
(399,411,o),
(399,360,cs),
(399,309,o),
(359,268,o),
(292,268,cs)
);
}
);
width = 578;
}
);
note = g;
unicode = 103;
},
{
color = 1;
glyphname = gcircumflex;
kernLeft = g;
kernRight = g;
layers = (
{
background = {
shapes = (
{
closed = 1;
nodes = (
(399,-188,ls),
(482,-188,o),
(542,-128,o),
(542,-52,cs),
(542,15,o),
(494,67,o),
(424,67,cs),
(211,67,ls),
(169,67,o),
(136,91,o),
(136,133,cs),
(136,175,o),
(169,200,o),
(211,200,cs),
(293,200,ls),
(429,200,o),
(488,277,o),
(488,365,cs),
(488,411,o),
(472,447,o),
(442,473,c),
(443,477,l),
(504,486,o),
(542,547,o),
(542,603,c),
(494,603,l),
(487,548,o),
(452,512,o),
(404,499,c),
(375,513,o),
(338,521,o),
(293,521,cs),
(162,521,o),
(98,439,o),
(98,355,cs),
(98,305,o),
(125,266,o),
(166,236,c),
(117,217,o),
(85,183,o),
(85,135,cs),
(85,101,o),
(100,69,o),
(130,51,c),
(84,32,o),
(56,-13,o),
(56,-61,cs),
(56,-126,o),
(109,-188,o),
(182,-188,cs)
);
},
{
closed = 1;
nodes = (
(142,-142,o),
(106,-106,o),
(106,-61,cs),
(106,-17,o),
(142,21,o),
(186,21,cs),
(420,21,ls),
(459,21,o),
(491,-15,o),
(491,-54,cs),
(491,-103,o),
(450,-142,o),
(402,-142,cs),
(186,-142,ls)
);
},
{
closed = 1;
nodes = (
(200,245,o),
(149,297,o),
(149,360,cs),
(149,423,o),
(200,475,o),
(293,475,cs),
(386,475,o),
(437,423,o),
(437,360,cs),
(437,297,o),
(386,245,o),
(293,245,cs)
);
},
{
closed = 1;
nodes = (
(175,575,l),
(278,672,l),
(381,575,l),
(441,575,l),
(307,720,l),
(249,720,l),
(115,575,l)
);
}
);
};
layerId = "F84504BD-929B-4EC5-838D-CC63F45B30C5";
shapes = (
{
ref = g.alt;
},
{
pos = (1,0);
ref = circumflexcomb.low;
}
);
width = 568;
},
{
background = {
shapes = (
{
closed = 1;
nodes = (
(402,-188,ls),
(511,-188,o),
(589,-108,o),
(589,-17,cs),
(589,74,o),
(526,139,o),
(416,139,cs),
(266,139,ls),
(219,139,o),
(209,153,o),
(209,170,cs),
(209,186,o),
(225,200,o),
(266,200,cs),
(335,200,ls),
(444,200,o),
(535,272,o),
(535,361,cs),
(535,401,o),
(516,432,o),
(491,453,c),
(492,456,l),
(559,475,o),
(607,524,o),
(609,603,c),
(474,603,l),
(474,586,o),
(457,547,o),
(401,510,c),
(373,518,o),
(314,521,o),
(277,521,cs),
(121,521,o),
(47,442,o),
(47,353,cs),
(47,296,o),
(81,260,o),
(124,240,c),
(73,227,o),
(32,184,o),
(32,133,cs),
(32,98,o),
(51,66,o),
(80,46,c),
(33,23,o),
(4,-19,o),
(4,-68,cs),
(4,-134,o),
(68,-188,o),
(134,-188,cs)
);
},
{
closed = 1;
nodes = (
(190,-74,o),
(168,-55,o),
(168,-32,cs),
(168,-9,o),
(190,9,o),
(218,9,cs),
(361,9,ls),
(389,9,o),
(411,-10,o),
(411,-33,cs),
(411,-56,o),
(389,-74,o),
(361,-74,cs),
(218,-74,ls)
);
},
{
closed = 1;
nodes = (
(260,297,o),
(234,325,o),
(234,360,cs),
(234,395,o),
(260,423,o),
(295,423,cs),
(330,423,o),
(356,395,o),
(356,360,cs),
(356,325,o),
(330,297,o),
(295,297,cs)
);
},
{
closed = 1;
nodes = (
(241,579,l),
(275,656,l),
(309,579,l),
(439,579,l),
(340,724,l),
(212,724,l),
(113,579,l)
);
}
);
};
layerId = "B61048DD-A105-4E1B-AF86-BB1631F6D87A";
shapes = (
{
ref = g.alt;
},
{
pos = (-20,35);
ref = circumflexcomb.low;
}
);
width = 590;
},
{
background = {
shapes = (
{
closed = 1;
nodes = (
(406,-188,ls),
(500,-188,o),
(563,-122,o),
(563,-39,cs),
(563,38,o),
(509,99,o),
(421,99,cs),
(235,99,ls),
(191,99,o),
(168,119,o),
(168,149,cs),
(168,180,o),
(194,200,o),
(235,200,cs),
(312,200,ls),
(436,200,o),
(509,275,o),
(509,363,cs),
(509,407,o),
(491,440,o),
(464,464,c),
(465,468,l),
(528,481,o),
(571,537,o),
(572,603,c),
(485,603,l),
(481,565,o),
(454,528,o),
(403,504,c),
(374,515,o),
(326,521,o),
(285,521,cs),
(143,521,o),
(75,437,o),
(75,351,cs),
(75,298,o),
(103,262,o),
(144,235,c),
(94,218,o),
(61,183,o),
(61,134,cs),
(61,100,o),
(78,70,o),
(108,51,c),
(61,30,o),
(33,-17,o),
(33,-65,cs),
(33,-133,o),
(89,-188,o),
(159,-188,cs)
);
},
{
closed = 1;
nodes = (
(163,-113,o),
(135,-84,o),
(135,-50,cs),
(135,-15,o),
(163,13,o),
(200,13,cs),
(394,13,ls),
(428,13,o),
(455,-14,o),
(455,-46,cs),
(455,-83,o),
(423,-113,o),
(384,-113,cs),
(200,-113,ls)
);
},
{
closed = 1;
nodes = (
(225,268,o),
(185,309,o),
(185,360,cs),
(185,411,o),
(225,452,o),
(292,452,cs),
(359,452,o),
(399,411,o),
(399,360,cs),
(399,309,o),
(359,268,o),
(292,268,cs)
);
},
{
closed = 1;
nodes = (
(214,577,l),
(286,665,l),
(358,577,l),
(449,577,l),
(331,722,l),
(242,722,l),
(123,577,l)
);
}
);
};
layerId = "D456B91C-7AE2-46C5-8C20-B2F338249762";
shapes = (
{
ref = g.alt;
},
{
pos = (-8,0);
ref = circumflexcomb.low;
}
);
width = 578;
}
);
metricLeft = g;
metricRight = g;
unicode = 285;
},
{
color = 4;
glyphname = gstroke;
layers = (
{
layerId = "F84504BD-929B-4EC5-838D-CC63F45B30C5";
shapes = (
{
closed = 1;
nodes = (
(399,-188,ls),
(482,-188,o),
(542,-128,o),
(542,-52,cs),
(542,15,o),
(494,67,o),
(424,67,cs),
(211,67,ls),
(169,67,o),
(136,91,o),
(136,133,cs),
(136,175,o),
(169,200,o),
(211,200,cs),
(293,200,ls),
(429,200,o),
(488,277,o),
(488,365,cs),
(488,411,o),
(472,447,o),
(442,473,c),
(443,477,l),
(504,486,o),
(542,547,o),
(542,603,c),
(494,603,l),
(487,548,o),
(452,512,o),
(404,499,c),
(375,513,o),
(338,521,o),
(293,521,cs),
(162,521,o),
(98,439,o),
(98,355,cs),
(98,305,o),
(125,266,o),
(166,236,c),
(117,217,o),
(85,183,o),
(85,135,cs),
(85,101,o),
(100,69,o),
(130,51,c),
(84,32,o),
(56,-13,o),
(56,-61,cs),
(56,-126,o),
(109,-188,o),
(182,-188,cs)
);
},
{
closed = 1;
nodes = (
(142,-142,o),
(106,-106,o),
(106,-61,cs),
(106,-17,o),
(142,21,o),
(186,21,cs),
(420,21,ls),
(459,21,o),
(491,-15,o),
(491,-54,cs),
(491,-103,o),
(450,-142,o),
(402,-142,cs),
(186,-142,ls)
);
},
{
closed = 1;
nodes = (
(200,245,o),
(149,297,o),
(149,360,cs),
(149,423,o),
(200,475,o),
(293,475,cs),
(386,475,o),
(437,423,o),
(437,360,cs),
(437,297,o),
(386,245,o),
(293,245,cs)
);
},
{
closed = 1;
nodes = (
(77,-83,l),
(93,-83,l),
(509,-83,l),
(522,-83,l),
(593,-83,l),
(593,-41,l),
(527,-41,l),
(510,-41,l),
(89,-41,l),
(73,-41,l),
(3,-41,l),
(3,-83,l)
);
}
);
width = 568;
},
{
layerId = "D456B91C-7AE2-46C5-8C20-B2F338249762";
shapes = (
{
closed = 1;
nodes = (
(406,-188,ls),
(500,-188,o),
(563,-122,o),
(563,-39,cs),
(563,38,o),
(509,99,o),
(421,99,cs),
(235,99,ls),
(191,99,o),
(168,119,o),
(168,149,cs),
(168,180,o),
(194,200,o),
(235,200,cs),
(312,200,ls),
(436,200,o),
(509,275,o),
(509,363,cs),
(509,407,o),
(489,443,o),
(458,470,c),
(459,473,l),
(523,487,o),
(563,537,o),
(563,603,c),
(470,603,l),
(467,565,o),
(441,530,o),
(389,506,c),
(362,516,o),
(326,521,o),
(285,521,cs),
(143,521,o),
(75,437,o),
(75,351,cs),
(75,298,o),
(103,262,o),
(144,235,c),
(94,218,o),
(61,183,o),
(61,134,cs),
(61,100,o),
(78,70,o),
(108,51,c),
(61,30,o),
(33,-17,o),
(33,-65,cs),
(33,-133,o),
(89,-188,o),
(159,-188,cs)
);
},
{
closed = 1;
nodes = (
(164,-113,o),
(135,-84,o),
(135,-50,cs),
(135,-15,o),
(164,13,o),
(201,13,cs),
(394,13,ls),
(428,13,o),
(455,-14,o),
(455,-46,cs),
(455,-83,o),
(423,-113,o),
(384,-113,cs),
(201,-113,ls)
);
},
{
closed = 1;
nodes = (
(225,268,o),
(185,309,o),
(185,360,cs),
(185,411,o),
(225,453,o),
(292,453,cs),
(359,453,o),
(399,411,o),
(399,360,cs),
(399,309,o),
(359,268,o),
(292,268,cs)
);
},
{
closed = 1;
nodes = (
(68,-88,l),
(103,-78,l),
(489,-78,l),
(520,-88,l),
(617,-88,l),
(617,-9,l),
(521,-9,l),
(488,-19,l),
(107,-19,l),
(75,-9,l),
(-33,-9,l),
(-33,-88,l)
);
}
);
width = 578;
},
{
layerId = "B61048DD-A105-4E1B-AF86-BB1631F6D87A";
shapes = (
{
closed = 1;
nodes = (
(399,-188,ls),
(508,-188,o),
(589,-108,o),
(589,-17,cs),
(589,74,o),
(526,139,o),
(416,139,cs),
(266,139,ls),
(219,139,o),
(209,153,o),
(209,170,cs),
(209,186,o),
(225,200,o),
(266,200,cs),
(335,200,ls),
(444,200,o),
(535,272,o),
(535,361,cs),
(535,401,o),
(511,438,o),
(478,466,c),
(479,469,l),
(546,488,o),
(589,524,o),
(589,603,c),
(441,603,l),
(441,586,o),
(427,552,o),
(371,515,c),
(346,519,o),
(314,521,o),
(277,521,cs),
(121,521,o),
(47,442,o),
(47,353,cs),
(47,296,o),
(81,260,o),
(124,240,c),
(73,227,o),
(32,184,o),
(32,133,cs),
(32,98,o),
(51,66,o),
(80,46,c),
(33,23,o),
(4,-19,o),
(4,-68,cs),
(4,-134,o),
(68,-188,o),
(134,-188,cs)
);
},
{
closed = 1;
nodes = (
(180,-104,o),
(156,-73,o),
(156,-48,cs),
(156,-23,o),
(180,7,o),
(211,7,cs),
(368,7,ls),
(399,7,o),
(423,-24,o),
(423,-49,cs),
(423,-74,o),
(399,-104,o),
(368,-104,cs),
(211,-104,ls)
);
},
{
closed = 1;
nodes = (
(260,297,o),
(234,325,o),
(234,360,cs),
(234,395,o),
(260,423,o),
(295,423,cs),
(330,423,o),
(356,395,o),
(356,360,cs),
(356,325,o),
(330,297,o),
(295,297,cs)
);
},
{
closed = 1;
nodes = (
(69,-79,l),
(108,-72,l),
(480,-72,l),
(512,-79,l),
(635,-79,l),
(635,-13,l),
(517,-13,l),
(483,-20,l),
(114,-20,l),
(74,-13,l),
(-49,-13,l),
(-49,-79,l)
);
}
);
width = 590;
}
);
unicode = 485;
},
{
color = 4;
glyphname = h;
kernLeft = h;
kernRight = n;
layers = (
{
anchors = (
{
name = bottom;
pos = (297,0);
},
{
name = center;
pos = (172,607);
},
{
name = top;
pos = (118,686);
}
);
background = {
anchors = (
{
name = bottom;
pos = (299,0);
},
{
name = top;
pos = (292,511);
},
{
name = topright;
pos = (110,511);
}
);
shapes = (
{
closed = 1;
nodes = (
(144,0,l),
(144,314,ls),
(144,406,o),
(212,475,o),
(302,475,cs),
(392,475,o),
(445,432,o),
(445,321,cs),
(445,0,l),
(496,0,l),
(496,329,ls),
(496,462,o),
(416,521,o),
(310,521,cs),
(243,521,o),
(173,489,o),
(138,435,c),
(127,511,l),
(93,511,l),
(93,0,l)
);
}
);
};
layerId = "F84504BD-929B-4EC5-838D-CC63F45B30C5";
shapes = (
{
closed = 1;
nodes = (
(144,0,l),
(144,314,ls),
(144,406,o),
(211,475,o),
(301,475,cs),
(392,475,o),
(445,432,o),
(445,321,cs),
(445,0,l),
(496,0,l),
(496,329,ls),
(496,462,o),
(416,521,o),
(310,521,cs),
(251,521,o),
(179,493,o),
(144,439,c),
(144,720,l),
(93,720,l),
(93,0,l)
);
}
);
width = 594;
},
{
anchors = (
{
name = bottom;
pos = (303,0);
},
{
name = center;
pos = (195,607);
},
{
name = top;
pos = (147,686);
}
);
layerId = "B61048DD-A105-4E1B-AF86-BB1631F6D87A";
shapes = (
{
closed = 1;
nodes = (
(248,0,l),
(248,320,ls),
(248,353,o),
(272,380,o),
(301,380,cs),
(330,380,o),
(354,353,o),
(354,320,cs),
(354,0,l),
(552,0,l),
(552,371,ls),
(552,454,o),
(490,521,o),
(393,521,cs),
(328,521,o),
(287,496,o),
(248,451,c),
(248,720,l),
(50,720,l),
(50,0,l)
);
}
);
width = 599;
},
{
anchors = (
{
name = bottom;
pos = (300,0);
},
{
name = center;
pos = (182,607);
},
{
name = top;
pos = (131,686);
}
);
layerId = "D456B91C-7AE2-46C5-8C20-B2F338249762";
shapes = (
{
closed = 1;
nodes = (
(190,0,l),
(190,317,ls),
(190,382,o),
(241,433,o),
(304,433,cs),
(367,433,o),
(405,403,o),
(405,327,cs),
(405,0,l),
(521,0,l),
(521,348,ls),
(521,460,o),
(447,521,o),
(345,521,cs),
(283,521,o),
(227,494,o),
(190,444,c),
(190,720,l),
(74,720,l),
(74,0,l)
);
}
);
width = 596;
}
);
note = h;
unicode = 104;
},
{
color = 4;
glyphname = i;
kernLeft = i;
kernRight = i;
layers = (
{
anchors = (
{
name = bottom;
pos = (131,0);
},
{
name = center;
pos = (130,275);
},
{
name = ogonek;
pos = (117,0);
}
);
layerId = "F84504BD-929B-4EC5-838D-CC63F45B30C5";
shapes = (
{
closed = 1;
nodes = (
(156,0,l),
(156,511,l),
(105,511,l),
(105,0,l)
);
},
{
closed = 1;
nodes = (
(160,666,l),
(160,720,l),
(101,720,l),
(101,666,l)
);
}
);
width = 260;
},
{
anchors = (
{
name = bottom;
pos = (153,0);
},
{
name = center;
pos = (149,264);
},
{
name = ogonek;
pos = (97,0);
}
);
layerId = "B61048DD-A105-4E1B-AF86-BB1631F6D87A";
shapes = (
{
closed = 1;
nodes = (
(248,0,l),
(248,510,l),
(50,510,l),
(50,0,l)
);
},
{
closed = 1;
nodes = (
(248,577,l),
(248,720,l),
(50,720,l),
(50,577,l)
);
}
);
width = 298;
},
{
anchors = (
{
name = bottom;
pos = (141,0);
},
{
name = center;
pos = (139,278);
},
{
name = ogonek;
pos = (100,0);
}
);
layerId = "D456B91C-7AE2-46C5-8C20-B2F338249762";
shapes = (
{
closed = 1;
nodes = (
(197,0,l),
(197,511,l),
(81,511,l),
(81,0,l)
);
},
{
closed = 1;
nodes = (
(200,626,l),
(200,720,l),
(78,720,l),
(78,626,l)
);
}
);
width = 278;
}
);
note = i;
unicode = 105;
},
{
color = 4;
glyphname = idotless;
kernLeft = i;
kernRight = i;
layers = (
{
anchors = (
{
name = bottom;
pos = (126,0);
},
{
name = center;
pos = (130,275);
},
{
name = top;
pos = (126,511);
}
);
layerId = "F84504BD-929B-4EC5-838D-CC63F45B30C5";
shapes = (
{
closed = 1;
nodes = (
(152,0,l),
(152,511,l),
(101,511,l),
(101,0,l)
);
}
);
width = 252;
},
{
anchors = (
{
name = bottom;
pos = (149,0);
},
{
name = center;
pos = (149,264);
},
{
name = top;
pos = (149,511);
}
);
layerId = "B61048DD-A105-4E1B-AF86-BB1631F6D87A";
shapes = (
{
closed = 1;
nodes = (
(248,0,l),
(248,510,l),
(50,510,l),
(50,0,l)
);
}
);
width = 298;
},
{
anchors = (
{
name = bottom;
pos = (136,0);
},
{
name = center;
pos = (139,278);
},
{
name = top;
pos = (136,511);
}
);
layerId = "D456B91C-7AE2-46C5-8C20-B2F338249762";
shapes = (
{
closed = 1;
nodes = (
(194,0,l),
(194,511,l),
(78,511,l),
(78,0,l)
);
}
);
width = 272;
}
);
note = dotlessi;
unicode = 305;
},
{
color = 1;
glyphname = idotlessstroke;
layers = (
{
layerId = "F84504BD-929B-4EC5-838D-CC63F45B30C5";
shapes = (
{
ref = idotless;
},
{
piece = {
weight = 5;
width = -14;
};
pos = (-158,8);
ref = _smart.strokeshortcomb;
}
);
width = 252;
},
{
background = {
shapes = (
{
closed = 1;
nodes = (
(346,216,l),
(346,295,l),
(20,295,l),
(20,216,l)
);
},
{
ref = Ismall;
}
);
};
layerId = "D456B91C-7AE2-46C5-8C20-B2F338249762";
shapes = (
{
ref = idotless;
},
{
piece = {
weight = 45;
width = 0;
};
pos = (-158,11);
ref = _smart.strokeshortcomb;
}
);
width = 272;
},
{
background = {
shapes = (
{
closed = 1;
nodes = (
(408,192,l),
(408,318,l),
(10,318,l),
(10,192,l)
);
},
{
ref = Ismall;
}
);
};
layerId = "B61048DD-A105-4E1B-AF86-BB1631F6D87A";
shapes = (
{
ref = idotless;
},
{
piece = {
weight = 75;
width = 7;
};
pos = (-158,-3);
ref = _smart.strokeshortcomb;
}
);
width = 298;
}
);
},
{
color = 4;
glyphname = j;
kernLeft = j;
kernRight = j;
layers = (
{
layerId = "F84504BD-929B-4EC5-838D-CC63F45B30C5";
shapes = (
{
closed = 1;
nodes = (
(113,-186,o),
(156,-152,o),
(156,-75,cs),
(156,511,l),
(105,511,l),
(105,-73,ls),
(105,-132,o),
(76,-140,o),
(48,-140,cs),
(33,-140,o),
(2,-131,o),
(-14,-124,c),
(-14,-169,l),
(3,-179,o),
(29,-186,o),
(54,-186,cs)
);
},
{
closed = 1;
nodes = (
(160,666,l),
(160,720,l),
(101,720,l),
(101,666,l)
);
}
);
width = 260;
},
{
layerId = "B61048DD-A105-4E1B-AF86-BB1631F6D87A";
shapes = (
{
closed = 1;
nodes = (
(175,-187,o),
(249,-134,o),
(249,-26,cs),
(249,510,l),
(51,510,l),
(51,4,ls),
(51,-55,o),
(22,-65,o),
(-6,-65,cs),
(-21,-65,o),
(-53,-60,o),
(-68,-53,c),
(-68,-165,l),
(-36,-178,o),
(32,-187,o),
(66,-187,cs)
);
},
{
closed = 1;
nodes = (
(249,577,l),
(249,720,l),
(51,720,l),
(51,577,l)
);
}
);
width = 299;
},
{
layerId = "D456B91C-7AE2-46C5-8C20-B2F338249762";
shapes = (
{
closed = 1;
nodes = (
(141,-186,o),
(197,-144,o),
(197,-53,cs),
(197,511,l),
(81,511,l),
(81,-39,ls),
(81,-98,o),
(52,-107,o),
(24,-107,cs),
(9,-107,o),
(-22,-99,o),
(-38,-92,c),
(-38,-167,l),
(-14,-179,o),
(30,-186,o),
(59,-186,cs)
);
},
{
closed = 1;
nodes = (
(200,626,l),
(200,720,l),
(78,720,l),
(78,626,l)
);
}
);
width = 277;
}
);
note = j;
unicode = 106;
},
{
color = 4;
glyphname = jdotless;
kernLeft = j;
kernRight = j;
layers = (
{
anchors = (
{
name = top;
pos = (145,511);
}
);
layerId = "B61048DD-A105-4E1B-AF86-BB1631F6D87A";
shapes = (
{
closed = 1;
nodes = (
(175,-187,o),
(249,-134,o),
(249,-26,cs),
(249,510,l),
(51,510,l),
(51,4,ls),
(51,-55,o),
(22,-65,o),
(-6,-65,cs),
(-21,-65,o),
(-53,-60,o),
(-68,-53,c),
(-68,-165,l),
(-36,-178,o),
(32,-187,o),
(66,-187,cs)
);
}
);
width = 299;
},
{
anchors = (
{
name = top;
pos = (109,511);
}
);
layerId = "F84504BD-929B-4EC5-838D-CC63F45B30C5";
shapes = (
{
closed = 1;
nodes = (
(93,-186,o),
(136,-152,o),
(136,-75,cs),
(136,511,l),
(85,511,l),
(85,-73,ls),
(85,-132,o),
(56,-140,o),
(28,-140,cs),
(13,-140,o),
(-18,-131,o),
(-34,-124,c),
(-34,-169,l),
(-17,-179,o),
(9,-186,o),
(34,-186,cs)
);
}
);
width = 260;
},
{
anchors = (
{
name = top;
pos = (125,511);
}
);
layerId = "D456B91C-7AE2-46C5-8C20-B2F338249762";
shapes = (
{
closed = 1;
nodes = (
(129,-186,o),
(186,-144,o),
(186,-53,cs),
(186,511,l),
(70,511,l),
(70,-39,ls),
(70,-98,o),
(41,-107,o),
(13,-107,cs),
(-2,-107,o),
(-34,-99,o),
(-49,-92,c),
(-49,-167,l),
(-25,-179,o),
(19,-186,o),
(48,-186,cs)
);
}
);
width = 277;
}
);
unicode = 567;
},
{
color = 4;
glyphname = k;
kernLeft = h;
kernRight = k;
layers = (
{
anchors = (
{
name = bottom;
pos = (280,0);
}
);
layerId = "F84504BD-929B-4EC5-838D-CC63F45B30C5";
shapes = (
{
closed = 1;
nodes = (
(144,0,l),
(144,127,l),
(250,234,l),
(451,0,l),
(514,0,l),
(282,270,l),
(497,511,l),
(434,511,l),
(144,186,l),
(144,720,l),
(93,720,l),
(93,0,l)
);
}
);
width = 535;
},
{
anchors = (
{
name = bottom;
pos = (300,0);
}
);
layerId = "B61048DD-A105-4E1B-AF86-BB1631F6D87A";
shapes = (
{
closed = 1;
nodes = (
(248,0,l),
(248,114,l),
(284,145,l),
(374,0,l),
(607,0,l),
(425,280,l),
(604,511,l),
(378,511,l),
(248,321,l),
(248,720,l),
(50,720,l),
(50,0,l)
);
}
);
width = 603;
},
{
anchors = (
{
name = bottom;
pos = (289,0);
}
);
layerId = "D456B91C-7AE2-46C5-8C20-B2F338249762";
shapes = (
{
closed = 1;
nodes = (
(190,0,l),
(190,121,l),
(264,197,l),
(415,0,l),
(555,0,l),
(344,276,l),
(545,511,l),
(409,511,l),
(190,246,l),
(190,720,l),
(74,720,l),
(74,0,l)
);
}
);
width = 565;
}
);
note = k;
unicode = 107;
},
{
color = 4;
glyphname = kgreenlandic;
kernLeft = n;
kernRight = k;
layers = (
{
layerId = "B61048DD-A105-4E1B-AF86-BB1631F6D87A";
shapes = (
{
closed = 1;
nodes = (
(248,0,l),
(248,114,l),
(284,145,l),
(374,0,l),
(607,0,l),
(425,280,l),
(604,511,l),
(378,511,l),
(248,321,l),
(248,512,l),
(50,512,l),
(50,0,l)
);
}
);
width = 603;
},
{
background = {
anchors = (
{
name = bottom;
pos = (280,0);
}
);
shapes = (
{
closed = 1;
nodes = (
(144,0,l),
(144,127,l),
(250,234,l),
(451,0,l),
(514,0,l),
(282,270,l),
(497,511,l),
(434,511,l),
(144,186,l),
(144,720,l),
(93,720,l),
(93,0,l)
);
}
);
};
layerId = "F84504BD-929B-4EC5-838D-CC63F45B30C5";
shapes = (
{
closed = 1;
nodes = (
(144,0,l),
(144,127,l),
(250,234,l),
(451,0,l),
(514,0,l),
(282,270,l),
(497,511,l),
(434,511,l),
(144,186,l),
(144,511,l),
(93,511,l),
(93,0,l)
);
}
);
width = 535;
},
{
background = {
anchors = (
{
name = bottom;
pos = (289,0);
}
);
shapes = (
{
closed = 1;
nodes = (
(190,0,l),
(190,121,l),
(264,197,l),
(415,0,l),
(555,0,l),
(344,276,l),
(545,511,l),
(409,511,l),
(190,246,l),
(190,720,l),
(74,720,l),
(74,0,l)
);
}
);
};
layerId = "D456B91C-7AE2-46C5-8C20-B2F338249762";
shapes = (
{
closed = 1;
nodes = (
(190,0,l),
(190,121,l),
(264,197,l),
(415,0,l),
(555,0,l),
(344,276,l),
(545,511,l),
(409,511,l),
(190,246,l),
(190,511,l),
(74,511,l),
(74,0,l)
);
}
);
width = 565;
}
);
unicode = 312;
},
{
color = 4;
glyphname = l;
kernLeft = h;
kernRight = l;
layers = (
{
anchors = (
{
name = bottom;
pos = (118,0);
},
{
name = center;
pos = (118,359);
},
{
name = top;
pos = (119,686);
},
{
name = topright;
pos = (31,469);
}
);
layerId = "F84504BD-929B-4EC5-838D-CC63F45B30C5";
shapes = (
{
closed = 1;
nodes = (
(144,0,l),
(144,720,l),
(93,720,l),
(93,0,l)
);
}
);
width = 244;
},
{
anchors = (
{
name = bottom;
pos = (147,0);
},
{
name = center;
pos = (147,359);
},
{
name = top;
pos = (141,686);
},
{
name = topright;
pos = (35,288);
}
);
layerId = "B61048DD-A105-4E1B-AF86-BB1631F6D87A";
shapes = (
{
closed = 1;
nodes = (
(248,0,l),
(248,720,l),
(50,720,l),
(50,0,l)
);
}
);
width = 298;
},
{
anchors = (
{
name = bottom;
pos = (131,0);
},
{
name = center;
pos = (131,359);
},
{
name = top;
pos = (128,686);
},
{
name = topright;
pos = (33,389);
}
);
layerId = "D456B91C-7AE2-46C5-8C20-B2F338249762";
shapes = (
{
closed = 1;
nodes = (
(190,0,l),
(190,720,l),
(74,720,l),
(74,0,l)
);
}
);
width = 268;
}
);
note = l;
unicode = 108;
},
{
color = 3;
glyphname = lcaron;
kernLeft = h;
kernRight = l;
layers = (
{
background = {
shapes = (
{
closed = 1;
nodes = (
(93,0,l),
(144,0,l),
(144,720,l),
(93,720,l)
);
},
{
closed = 1;
nodes = (
(258,516,l),
(288,628,l),
(288,686,l),
(223,686,l),
(223,617,l),
(247,617,l),
(247,617,o),
(225,516,o),
(224,516,c)
);
}
);
};
layerId = "F84504BD-929B-4EC5-838D-CC63F45B30C5";
shapes = (
{
ref = l;
},
{
closed = 1;
nodes = (
(253,515,l),
(278,547,o),
(288,583,o),
(288,615,cs),
(288,684,l),
(223,684,l),
(223,606,l),
(251,606,l),
(252,574,o),
(238,545,o),
(218,519,c),
(218,515,l)
);
}
);
width = 274;
},
{
background = {
shapes = (
{
closed = 1;
nodes = (
(248,720,l),
(50,720,l),
(50,0,l),
(248,0,l)
);
},
{
closed = 1;
nodes = (
(472,686,l),
(281,686,l),
(281,503,l),
(365,503,l),
(328,338,l),
(422,338,l),
(472,525,l)
);
}
);
};
layerId = "B61048DD-A105-4E1B-AF86-BB1631F6D87A";
shapes = (
{
ref = l;
},
{
closed = 1;
nodes = (
(384,378,l),
(429,427,o),
(453,488,o),
(453,558,cs),
(453,686,l),
(303,686,l),
(303,534,l),
(372,534,l),
(372,483,o),
(349,440,o),
(308,397,c),
(308,378,l)
);
}
);
width = 450;
},
{
layerId = "D456B91C-7AE2-46C5-8C20-B2F338249762";
shapes = (
{
ref = l;
},
{
closed = 1;
nodes = (
(308,437,l),
(341,477,o),
(362,529,o),
(362,585,cs),
(362,685,l),
(256,685,l),
(256,567,l),
(303,567,l),
(302,525,o),
(285,486,o),
(253,449,c),
(253,437,l)
);
}
);
width = 352;
}
);
note = lcaron;
unicode = 318;
},
{
color = 3;
glyphname = ldot;
kernLeft = h;
kernRight = l;
layers = (
{
layerId = "F84504BD-929B-4EC5-838D-CC63F45B30C5";
shapes = (
{
closed = 1;
nodes = (
(286,341,l),
(286,410,l),
(221,410,l),
(221,341,l)
);
},
{
ref = l;
}
);
width = 264;
},
{
layerId = "B61048DD-A105-4E1B-AF86-BB1631F6D87A";
shapes = (
{
closed = 1;
nodes = (
(473,286,l),
(473,469,l),
(282,469,l),
(282,286,l)
);
},
{
ref = l;
}
);
width = 459;
},
{
layerId = "D456B91C-7AE2-46C5-8C20-B2F338249762";
shapes = (
{
closed = 1;
nodes = (
(369,317,l),
(369,436,l),
(248,436,l),
(248,317,l)
);
},
{
ref = l;
}
);
width = 351;
}
);
unicode = 320;
},
{
color = 4;
glyphname = m;
kernLeft = n;
kernRight = n;
layers = (
{
layerId = "F84504BD-929B-4EC5-838D-CC63F45B30C5";
shapes = (
{
closed = 1;
nodes = (
(144,0,l),
(144,314,ls),
(144,406,o),
(200,475,o),
(280,475,cs),
(361,475,o),
(405,425,o),
(405,314,cs),
(405,0,l),
(456,0,l),
(456,314,ls),
(456,406,o),
(512,475,o),
(592,475,cs),
(673,475,o),
(717,425,o),
(717,314,cs),
(717,0,l),
(768,0,l),
(768,329,ls),
(768,462,o),
(693,521,o),
(598,521,cs),
(522,521,o),
(465,479,o),
(438,434,c),
(408,493,o),
(352,521,o),
(286,521,cs),
(226,521,o),
(169,489,o),
(139,435,c),
(127,511,l),
(93,511,l),
(93,0,l)
);
}
);
width = 866;
},
{
background = {
shapes = (
{
closed = 1;
nodes = (
(647,521,ls),
(590,521,o),
(542,490,o),
(515,443,c),
(490,490,o),
(441,521,o),
(384,521,cs),
(357,521,ls),
(284,521,o),
(236,459,o),
(219,437,c),
(198,511,l),
(50,511,l),
(50,0,l),
(244,0,l),
(244,324,ls),
(244,357,o),
(265,379,o),
(292,379,cs),
(319,379,o),
(340,357,o),
(340,324,cs),
(340,0,l),
(534,0,l),
(534,324,ls),
(534,357,o),
(555,379,o),
(582,379,cs),
(609,379,o),
(630,357,o),
(630,324,cs),
(630,0,l),
(824,0,l),
(824,371,ls),
(824,454,o),
(757,521,o),
(674,521,cs)
);
}
);
};
layerId = "B61048DD-A105-4E1B-AF86-BB1631F6D87A";
shapes = (
{
closed = 1;
nodes = (
(244,0,l),
(244,324,ls),
(244,357,o),
(265,379,o),
(292,379,cs),
(319,379,o),
(340,357,o),
(340,324,cs),
(340,0,l),
(534,0,l),
(534,324,ls),
(534,357,o),
(555,379,o),
(582,379,cs),
(609,379,o),
(630,357,o),
(630,324,cs),
(630,0,l),
(824,0,l),
(824,371,ls),
(824,458,o),
(762,521,o),
(661,521,cs),
(597,521,o),
(549,502,o),
(515,443,c),
(485,500,o),
(436,521,o),
(370,521,cs),
(295,521,o),
(258,488,o),
(219,437,c),
(198,511,l),
(50,511,l),
(50,0,l)
);
}
);
width = 871;
},
{
layerId = "D456B91C-7AE2-46C5-8C20-B2F338249762";
shapes = (
{
closed = 1;
nodes = (
(190,0,l),
(190,318,ls),
(190,384,o),
(231,432,o),
(287,432,cs),
(344,432,o),
(377,400,o),
(377,323,cs),
(377,0,l),
(493,0,l),
(493,318,ls),
(493,384,o),
(533,432,o),
(590,432,cs),
(647,432,o),
(679,400,o),
(679,323,cs),
(679,0,l),
(795,0,l),
(795,348,ls),
(795,460,o),
(725,521,o),
(627,521,cs),
(556,521,o),
(504,489,o),
(474,438,c),
(444,496,o),
(390,521,o),
(324,521,cs),
(258,521,o),
(211,489,o),
(177,436,c),
(161,511,l),
(74,511,l),
(74,0,l)
);
}
);
width = 871;
}
);
metricLeft = n;
metricRight = n;
note = m;
unicode = 109;
},
{
color = 4;
glyphname = n;
kernLeft = n;
kernRight = n;
layers = (
{
anchors = (
{
name = bottom;
pos = (294,0);
},
{
name = top;
pos = (289,511);
},
{
name = topright;
pos = (110,511);
}
);
layerId = "F84504BD-929B-4EC5-838D-CC63F45B30C5";
shapes = (
{
closed = 1;
nodes = (
(144,0,l),
(144,314,ls),
(144,406,o),
(211,475,o),
(301,475,cs),
(391,475,o),
(444,432,o),
(444,321,cs),
(444,0,l),
(495,0,l),
(495,329,ls),
(495,462,o),
(415,521,o),
(309,521,cs),
(242,521,o),
(173,489,o),
(138,435,c),
(127,511,l),
(93,511,l),
(93,0,l)
);
}
);
width = 593;
},
{
anchors = (
{
name = bottom;
pos = (301,0);
},
{
name = top;
pos = (296,511);
},
{
name = topright;
pos = (109,511);
}
);
background = {
shapes = (
{
closed = 1;
nodes = (
(374,521,ls),
(278,521,o),
(234,460,o),
(219,437,c),
(199,511,l),
(50,511,l),
(50,0,l),
(248,0,l),
(248,320,ls),
(248,353,o),
(272,380,o),
(301,380,cs),
(330,380,o),
(354,353,o),
(354,320,cs),
(354,0,l),
(552,0,l),
(552,371,ls),
(552,454,o),
(485,521,o),
(402,521,cs)
);
}
);
};
layerId = "B61048DD-A105-4E1B-AF86-BB1631F6D87A";
shapes = (
{
closed = 1;
nodes = (
(248,0,l),
(248,320,ls),
(248,353,o),
(272,380,o),
(301,380,cs),
(330,380,o),
(354,353,o),
(354,320,cs),
(354,0,l),
(552,0,l),
(552,371,ls),
(552,458,o),
(490,521,o),
(388,521,cs),
(312,521,o),
(263,496,o),
(219,437,c),
(199,511,l),
(50,511,l),
(50,0,l)
);
}
);
width = 599;
},
{
anchors = (
{
name = bottom;
pos = (297,0);
},
{
name = top;
pos = (295,511);
},
{
name = topright;
pos = (110,511);
}
);
background = {
shapes = (
{
closed = 1;
nodes = (
(190,0,l),
(190,317,ls),
(190,382,o),
(238,433,o),
(301,433,cs),
(364,433,o),
(405,393,o),
(405,317,cs),
(405,0,l),
(520,0,l),
(520,348,ls),
(520,460,o),
(447,521,o),
(342,521,cs),
(271,521,o),
(213,492,o),
(174,436,c),
(159,511,l),
(74,511,l),
(74,0,l)
);
}
);
};
layerId = "D456B91C-7AE2-46C5-8C20-B2F338249762";
shapes = (
{
closed = 1;
nodes = (
(190,0,l),
(190,317,ls),
(190,382,o),
(241,433,o),
(304,433,cs),
(367,433,o),
(404,403,o),
(404,327,cs),
(404,0,l),
(520,0,l),
(520,348,ls),
(520,460,o),
(447,521,o),
(342,521,cs),
(271,521,o),
(213,492,o),
(174,436,c),
(159,511,l),
(74,511,l),
(74,0,l)
);
}
);
width = 596;
}
);
note = n;
unicode = 110;
},
{
color = 4;
glyphname = nhookleft;
kernLeft = n;
kernRight = n;
layers = (
{
layerId = "B61048DD-A105-4E1B-AF86-BB1631F6D87A";
shapes = (
{
closed = 1;
nodes = (
(175,-187,o),
(248,-134,o),
(248,-26,c),
(248,320,l),
(248,353,o),
(272,380,o),
(301,380,cs),
(330,380,o),
(354,353,o),
(354,320,cs),
(354,0,l),
(552,0,l),
(552,371,ls),
(552,458,o),
(490,521,o),
(388,521,cs),
(312,521,o),
(263,496,o),
(219,437,c),
(199,511,l),
(50,511,l),
(50,4,ls),
(50,-55,o),
(22,-65,o),
(-6,-65,cs),
(-21,-65,o),
(-53,-60,o),
(-68,-53,c),
(-68,-165,l),
(-36,-178,o),
(32,-187,o),
(66,-187,cs)
);
}
);
width = 599;
},
{
background = {
shapes = (
{
closed = 1;
nodes = (
(156,0,l),
(156,314,ls),
(156,406,o),
(223,475,o),
(313,475,cs),
(403,475,o),
(456,432,o),
(456,321,cs),
(456,0,l),
(507,0,l),
(507,329,ls),
(507,462,o),
(427,521,o),
(321,521,cs),
(254,521,o),
(185,489,o),
(150,435,c),
(139,511,l),
(105,511,l),
(105,0,l)
);
}
);
};
layerId = "F84504BD-929B-4EC5-838D-CC63F45B30C5";
shapes = (
{
closed = 1;
nodes = (
(113,-186,o),
(156,-152,o),
(156,-75,cs),
(156,314,ls),
(156,406,o),
(223,475,o),
(313,475,cs),
(403,475,o),
(456,432,o),
(456,321,cs),
(456,0,l),
(507,0,l),
(507,329,ls),
(507,462,o),
(427,521,o),
(321,521,cs),
(254,521,o),
(185,489,o),
(150,435,c),
(139,511,l),
(105,511,l),
(105,-73,ls),
(105,-132,o),
(76,-140,o),
(48,-140,cs),
(33,-140,o),
(2,-131,o),
(-14,-124,c),
(-14,-169,l),
(3,-179,o),
(29,-186,o),
(54,-186,cs)
);
}
);
width = 605;
},
{
background = {
shapes = (
{
closed = 1;
nodes = (
(197,0,l),
(197,317,ls),
(197,382,o),
(248,433,o),
(311,433,cs),
(374,433,o),
(411,403,o),
(411,327,cs),
(411,0,l),
(527,0,l),
(527,348,ls),
(527,460,o),
(454,521,o),
(349,521,cs),
(278,521,o),
(220,492,o),
(181,436,c),
(166,511,l),
(81,511,l),
(81,0,l)
);
}
);
};
layerId = "D456B91C-7AE2-46C5-8C20-B2F338249762";
shapes = (
{
closed = 1;
nodes = (
(141,-186,o),
(197,-144,o),
(197,-53,cs),
(197,317,ls),
(197,382,o),
(248,433,o),
(311,433,cs),
(374,433,o),
(411,403,o),
(411,330,cs),
(411,0,l),
(527,0,l),
(527,348,ls),
(527,460,o),
(453,521,o),
(349,521,cs),
(278,521,o),
(220,492,o),
(181,436,c),
(166,511,l),
(81,511,l),
(81,-39,ls),
(81,-98,o),
(52,-107,o),
(24,-107,cs),
(9,-107,o),
(-22,-99,o),
(-38,-92,c),
(-38,-167,l),
(-14,-179,o),
(30,-186,o),
(59,-186,cs)
);
}
);
width = 602;
}
);
unicode = 626;
},
{
color = 4;
glyphname = eng;
kernLeft = n;
kernRight = n;
layers = (
{
layerId = "B61048DD-A105-4E1B-AF86-BB1631F6D87A";
shapes = (
{
closed = 1;
nodes = (
(478,-187,o),
(552,-134,o),
(552,-26,cs),
(552,371,ls),
(552,458,o),
(490,521,o),
(388,521,cs),
(312,521,o),
(263,496,o),
(219,437,c),
(199,511,l),
(50,511,l),
(50,0,l),
(248,0,l),
(248,320,ls),
(248,353,o),
(272,380,o),
(301,380,cs),
(330,380,o),
(354,353,o),
(354,320,cs),
(354,4,ls),
(354,-55,o),
(325,-65,o),
(297,-65,cs),
(282,-65,o),
(250,-60,o),
(235,-53,c),
(235,-165,l),
(267,-178,o),
(335,-187,o),
(369,-187,cs)
);
}
);
width = 599;
},
{
layerId = "F84504BD-929B-4EC5-838D-CC63F45B30C5";
shapes = (
{
closed = 1;
nodes = (
(452,-186,o),
(495,-152,o),
(495,-75,cs),
(495,329,ls),
(495,462,o),
(415,521,o),
(309,521,cs),
(242,521,o),
(173,489,o),
(138,435,c),
(127,511,l),
(93,511,l),
(93,0,l),
(144,0,l),
(144,314,ls),
(144,406,o),
(211,475,o),
(301,475,cs),
(391,475,o),
(444,432,o),
(444,321,cs),
(444,-73,ls),
(444,-132,o),
(415,-140,o),
(387,-140,cs),
(372,-140,o),
(341,-131,o),
(325,-124,c),
(325,-169,l),
(342,-179,o),
(368,-186,o),
(393,-186,cs)
);
}
);
width = 593;
},
{
layerId = "D456B91C-7AE2-46C5-8C20-B2F338249762";
shapes = (
{
closed = 1;
nodes = (
(464,-186,o),
(520,-144,o),
(520,-53,cs),
(520,348,ls),
(520,460,o),
(447,521,o),
(342,521,cs),
(271,521,o),
(213,492,o),
(174,436,c),
(159,511,l),
(74,511,l),
(74,0,l),
(190,0,l),
(190,317,ls),
(190,382,o),
(241,433,o),
(304,433,cs),
(367,433,o),
(404,403,o),
(404,327,cs),
(404,-39,ls),
(404,-98,o),
(375,-107,o),
(347,-107,cs),
(332,-107,o),
(301,-99,o),
(285,-92,c),
(285,-167,l),
(309,-179,o),
(353,-186,o),
(382,-186,cs)
);
}
);
width = 596;
}
);
unicode = 331;
},
{
color = 4;
glyphname = o;
kernLeft = o;
kernRight = o;
layers = (
{
anchors = (
{
name = bottom;
pos = (288,0);
},
{
name = center;
pos = (288,252);
},
{
name = ogonek;
pos = (317,0);
},
{
name = top;
pos = (288,511);
},
{
name = topright;
pos = (316,511);
}
);
layerId = "F84504BD-929B-4EC5-838D-CC63F45B30C5";
shapes = (
{
closed = 1;
nodes = (
(288,-10,ls),
(411,-10,o),
(504,83,o),
(504,248,cs),
(504,263,ls),
(504,427,o),
(415,521,o),
(291,521,cs),
(288,521,ls),
(165,521,o),
(72,428,o),
(72,263,cs),
(72,248,ls),
(72,84,o),
(161,-10,o),
(285,-10,cs)
);
},
{
closed = 1;
nodes = (
(196,36,o),
(123,103,o),
(123,242,cs),
(123,269,ls),
(123,408,o),
(196,475,o),
(288,475,cs),
(380,475,o),
(453,408,o),
(453,269,cs),
(453,242,ls),
(453,103,o),
(380,36,o),
(288,36,cs)
);
}
);
width = 576;
},
{
anchors = (
{
name = bottom;
pos = (309,0);
},
{
name = center;
pos = (307,252);
},
{
name = ogonek;
pos = (326,0);
},
{
name = top;
pos = (307,511);
},
{
name = topright;
pos = (335,511);
}
);
background = {
shapes = (
{
closed = 1;
nodes = (
(323,-10,ls),
(475,-10,o),
(588,93,o),
(588,245,cs),
(588,266,ls),
(588,417,o),
(475,521,o),
(323,521,cs),
(291,521,ls),
(139,521,o),
(26,417,o),
(26,266,cs),
(26,245,ls),
(26,95,o),
(139,-10,o),
(291,-10,cs)
);
},
{
closed = 1;
nodes = (
(268,111,o),
(238,142,o),
(238,181,cs),
(238,330,ls),
(238,369,o),
(268,400,o),
(307,400,cs),
(346,400,o),
(376,369,o),
(376,330,cs),
(376,181,ls),
(376,142,o),
(346,111,o),
(307,111,cs)
);
}
);
};
layerId = "B61048DD-A105-4E1B-AF86-BB1631F6D87A";
shapes = (
{
closed = 1;
nodes = (
(323,-10,ls),
(475,-10,o),
(588,93,o),
(588,245,cs),
(588,266,ls),
(588,417,o),
(475,521,o),
(323,521,cs),
(291,521,ls),
(139,521,o),
(26,417,o),
(26,266,cs),
(26,245,ls),
(26,95,o),
(139,-10,o),
(291,-10,cs)
);
},
{
closed = 1;
nodes = (
(268,111,o),
(238,142,o),
(238,181,cs),
(238,330,ls),
(238,369,o),
(268,400,o),
(307,400,cs),
(346,400,o),
(376,369,o),
(376,330,cs),
(376,181,ls),
(376,142,o),
(346,111,o),
(307,111,cs)
);
}
);
width = 614;
},
{
anchors = (
{
name = bottom;
pos = (296,0);
},
{
name = center;
pos = (296,252);
},
{
name = ogonek;
pos = (329,0);
},
{
name = top;
pos = (297,511);
},
{
name = topright;
pos = (324,511);
}
);
layerId = "D456B91C-7AE2-46C5-8C20-B2F338249762";
shapes = (
{
closed = 1;
nodes = (
(305,-10,ls),
(441,-10,o),
(541,88,o),
(541,247,cs),
(541,264,ls),
(541,423,o),
(441,521,o),
(304,521,cs),
(288,521,ls),
(152,521,o),
(52,423,o),
(52,264,cs),
(52,247,ls),
(52,88,o),
(152,-10,o),
(289,-10,cs)
);
},
{
closed = 1;
nodes = (
(228,69,o),
(174,120,o),
(174,215,cs),
(174,296,ls),
(174,391,o),
(228,442,o),
(296,442,cs),
(365,442,o),
(419,391,o),
(419,296,cs),
(419,215,ls),
(419,120,o),
(365,69,o),
(296,69,cs)
);
}
);
width = 593;
}
);
note = o;
unicode = 111;
},
{
color = 1;
glyphname = ohungarumlaut;
kernLeft = o;
kernRight = o;
layers = (
{
layerId = "F84504BD-929B-4EC5-838D-CC63F45B30C5";
shapes = (
{
ref = o;
},
{
pos = (49,0);
ref = hungarumlautcomb;
}
);
width = 576;
},
{
background = {
shapes = (
{
closed = 1;
nodes = (
(343,720,l),
(192,720,l),
(101,575,l),
(219,575,l),
(345,717,l)
);
},
{
closed = 1;
nodes = (
(570,720,l),
(419,720,l),
(328,575,l),
(446,575,l),
(572,717,l)
);
},
{
closed = 1;
nodes = (
(291,521,ls),
(139,521,o),
(26,417,o),
(26,266,cs),
(26,245,ls),
(26,95,o),
(139,-10,o),
(291,-10,cs),
(323,-10,ls),
(475,-10,o),
(588,93,o),
(588,245,cs),
(588,266,ls),
(588,417,o),
(475,521,o),
(323,521,cs)
);
},
{
closed = 1;
nodes = (
(346,400,o),
(376,369,o),
(376,330,cs),
(376,181,ls),
(376,142,o),
(346,111,o),
(307,111,cs),
(268,111,o),
(238,142,o),
(238,181,cs),
(238,330,ls),
(238,369,o),
(268,400,o),
(307,400,cs)
);
}
);
};
layerId = "B61048DD-A105-4E1B-AF86-BB1631F6D87A";
shapes = (
{
ref = o;
},
{
pos = (46,0);
ref = hungarumlautcomb;
}
);
width = 614;
},
{
layerId = "D456B91C-7AE2-46C5-8C20-B2F338249762";
shapes = (
{
ref = o;
},
{
pos = (41,0);
ref = hungarumlautcomb;
}
);
width = 593;
}
);
note = ohungarumlaut;
unicode = 337;
},
{
color = 1;
glyphname = oslash;
kernLeft = o;
kernRight = o;
layers = (
{
anchors = (
{
name = top;
pos = (288,511);
}
);
layerId = "F84504BD-929B-4EC5-838D-CC63F45B30C5";
shapes = (
{
ref = o;
},
{
pos = (-2,-10);
ref = slashlongcomb;
}
);
width = 576;
},
{
anchors = (
{
name = top;
pos = (307,511);
}
);
background = {
shapes = (
{
closed = 1;
nodes = (
(552,569,l),
(460,569,l),
(420,505,l),
(391,516,o),
(358,521,o),
(323,521,cs),
(291,521,ls),
(139,521,o),
(26,417,o),
(26,266,cs),
(26,245,ls),
(26,157,o),
(64,87,o),
(125,42,c),
(63,-55,l),
(155,-55,l),
(194,6,l),
(222,-5,o),
(254,-10,o),
(291,-10,cs),
(323,-10,ls),
(475,-10,o),
(588,93,o),
(588,245,cs),
(588,266,ls),
(588,354,o),
(550,425,o),
(489,470,c)
);
},
{
closed = 1;
nodes = (
(321,400,o),
(334,396,o),
(345,388,c),
(238,220,l),
(238,330,ls),
(238,369,o),
(268,400,o),
(307,400,cs)
);
},
{
closed = 1;
nodes = (
(376,292,l),
(376,181,ls),
(376,142,o),
(346,111,o),
(307,111,cs),
(292,111,o),
(279,115,o),
(268,123,c)
);
}
);
};
layerId = "B61048DD-A105-4E1B-AF86-BB1631F6D87A";
shapes = (
{
ref = o;
},
{
pos = (3,0);
ref = slashlongcomb;
}
);
width = 614;
},
{
anchors = (
{
name = top;
pos = (296,511);
}
);
layerId = "D456B91C-7AE2-46C5-8C20-B2F338249762";
shapes = (
{
ref = o;
},
{
pos = (-12,-6);
ref = slashlongcomb;
}
);
width = 593;
}
);
note = oslash;
unicode = 248;
},
{
color = 4;
glyphname = oe;
kernLeft = o;
kernRight = e;
layers = (
{
layerId = "F84504BD-929B-4EC5-838D-CC63F45B30C5";
shapes = (
{
closed = 1;
nodes = (
(290,-10,ls),
(374,-10,o),
(443,34,o),
(478,113,c),
(513,33,o),
(581,-10,o),
(666,-10,cs),
(671,-10,ls),
(777,-10,o),
(866,63,o),
(866,189,c),
(816,189,l),
(816,84,o),
(746,36,o),
(667,36,cs),
(567,36,o),
(504,110,o),
(504,250,c),
(866,250,l),
(866,314,ls),
(866,446,o),
(777,521,o),
(669,521,cs),
(665,521,ls),
(580,521,o),
(513,478,o),
(478,398,c),
(443,477,o),
(373,521,o),
(289,521,cs),
(286,521,ls),
(163,521,o),
(72,428,o),
(72,263,cs),
(72,248,ls),
(72,83,o),
(163,-10,o),
(287,-10,cs)
);
},
{
closed = 1;
nodes = (
(196,36,o),
(123,103,o),
(123,242,cs),
(123,269,ls),
(123,408,o),
(196,475,o),
(288,475,cs),
(380,475,o),
(453,408,o),
(453,269,cs),
(453,242,ls),
(453,103,o),
(380,36,o),
(288,36,cs)
);
},
{
closed = 1;
nodes = (
(513,416,o),
(580,475,o),
(666,475,cs),
(760,475,o),
(816,417,o),
(816,296,c),
(505,296,l)
);
}
);
width = 938;
},
{
layerId = "B61048DD-A105-4E1B-AF86-BB1631F6D87A";
shapes = (
{
closed = 1;
nodes = (
(323,-10,ls),
(384,-10,o),
(438,7,o),
(482,36,c),
(529,6,o),
(589,-10,o),
(656,-10,cs),
(671,-10,ls),
(829,-10,o),
(920,79,o),
(920,192,c),
(737,192,l),
(737,143,o),
(712,111,o),
(659,111,cs),
(599,111,o),
(588,164,o),
(588,229,c),
(921,229,l),
(921,291,ls),
(921,424,o),
(831,521,o),
(674,521,cs),
(649,521,ls),
(583,521,o),
(525,506,o),
(480,476,c),
(436,505,o),
(383,521,o),
(323,521,cs),
(291,521,ls),
(139,521,o),
(26,417,o),
(26,266,cs),
(26,245,ls),
(26,95,o),
(139,-10,o),
(291,-10,cs)
);
},
{
closed = 1;
nodes = (
(268,111,o),
(238,142,o),
(238,181,cs),
(238,330,ls),
(238,369,o),
(268,400,o),
(307,400,cs),
(346,400,o),
(376,369,o),
(376,330,cs),
(376,181,ls),
(376,142,o),
(346,111,o),
(307,111,cs)
);
},
{
closed = 1;
nodes = (
(588,371,o),
(615,400,o),
(657,400,cs),
(697,400,o),
(726,374,o),
(726,316,c),
(588,316,l)
);
}
);
width = 950;
},
{
layerId = "D456B91C-7AE2-46C5-8C20-B2F338249762";
shapes = (
{
closed = 1;
nodes = (
(305,-10,ls),
(378,-10,o),
(441,22,o),
(480,79,c),
(520,21,o),
(579,-10,o),
(656,-10,cs),
(665,-10,ls),
(794,-10,o),
(890,70,o),
(890,190,c),
(781,190,l),
(781,110,o),
(731,69,o),
(663,69,cs),
(581,69,o),
(541,134,o),
(541,241,c),
(890,241,l),
(890,304,ls),
(890,436,o),
(803,521,o),
(673,521,cs),
(660,521,ls),
(583,521,o),
(518,490,o),
(479,433,c),
(440,489,o),
(377,521,o),
(304,521,cs),
(288,521,ls),
(152,521,o),
(52,423,o),
(52,264,cs),
(52,247,ls),
(52,88,o),
(152,-10,o),
(289,-10,cs)
);
},
{
closed = 1;
nodes = (
(228,69,o),
(174,120,o),
(174,215,cs),
(174,296,ls),
(174,391,o),
(228,442,o),
(296,442,cs),
(365,442,o),
(419,391,o),
(419,296,cs),
(419,215,ls),
(419,120,o),
(365,69,o),
(296,69,cs)
);
},
{
closed = 1;
nodes = (
(546,396,o),
(596,442,o),
(662,442,cs),
(732,442,o),
(776,398,o),
(776,305,c),
(542,305,l)
);
}
);
width = 943;
}
);
metricLeft = o;
metricRight = e;
note = oe;
unicode = 339;
},
{
color = 4;
glyphname = p;
kernLeft = n;
kernRight = o;
layers = (
{
layerId = "F84504BD-929B-4EC5-838D-CC63F45B30C5";
shapes = (
{
closed = 1;
nodes = (
(143,-181,l),
(143,71,l),
(176,21,o),
(234,-10,o),
(306,-10,cs),
(418,-10,o),
(509,83,o),
(509,245,cs),
(509,256,ls),
(509,446,o),
(420,521,o),
(308,521,cs),
(233,521,o),
(175,493,o),
(137,434,c),
(126,511,l),
(92,511,l),
(92,-181,l)
);
},
{
closed = 1;
nodes = (
(214,36,o),
(142,98,o),
(142,242,cs),
(142,254,ls),
(142,423,o),
(215,475,o),
(301,475,cs),
(388,475,o),
(458,419,o),
(458,253,cs),
(458,242,ls),
(458,99,o),
(388,36,o),
(301,36,cs)
);
}
);
width = 581;
},
{
background = {
shapes = (
{
ref = b;
}
);
};
layerId = "B61048DD-A105-4E1B-AF86-BB1631F6D87A";
shapes = (
{
closed = 1;
nodes = (
(248,-181,l),
(248,53,l),
(269,18,o),
(309,-10,o),
(380,-10,cs),
(487,-10,o),
(584,75,o),
(584,250,cs),
(584,271,ls),
(584,446,o),
(494,521,o),
(370,521,cs),
(302,521,o),
(252,486,o),
(226,452,c),
(208,511,l),
(50,511,l),
(50,-181,l)
);
},
{
closed = 1;
nodes = (
(275,111,o),
(248,142,o),
(248,181,cs),
(248,326,ls),
(248,365,o),
(275,396,o),
(310,396,cs),
(345,396,o),
(372,365,o),
(372,326,cs),
(372,181,ls),
(372,142,o),
(345,111,o),
(310,111,cs)
);
}
);
width = 610;
},
{
layerId = "D456B91C-7AE2-46C5-8C20-B2F338249762";
shapes = (
{
closed = 1;
nodes = (
(190,-181,l),
(190,63,l),
(217,20,o),
(267,-10,o),
(339,-10,cs),
(449,-10,o),
(539,77,o),
(539,244,cs),
(539,265,ls),
(539,449,o),
(447,521,o),
(331,521,cs),
(262,521,o),
(209,490,o),
(177,442,c),
(162,511,l),
(73,511,l),
(73,-181,l)
);
},
{
closed = 1;
nodes = (
(241,71,o),
(189,119,o),
(189,217,cs),
(189,288,ls),
(189,399,o),
(242,442,o),
(305,442,cs),
(369,442,o),
(417,397,o),
(417,287,cs),
(417,217,ls),
(417,120,o),
(369,71,o),
(305,71,cs)
);
}
);
width = 591;
}
);
metricRight = o;
note = p;
unicode = 112;
},
{
color = 4;
glyphname = thorn;
kernLeft = h;
kernRight = o;
layers = (
{
background = {
shapes = (
{
closed = 1;
nodes = (
(144,-181,l),
(144,71,l),
(177,21,o),
(235,-10,o),
(307,-10,cs),
(419,-10,o),
(510,83,o),
(510,245,cs),
(510,256,ls),
(510,446,o),
(421,521,o),
(309,521,cs),
(234,521,o),
(176,493,o),
(138,434,c),
(127,511,l),
(93,511,l),
(93,-181,l)
);
},
{
closed = 1;
nodes = (
(215,36,o),
(143,98,o),
(143,242,cs),
(143,254,ls),
(143,423,o),
(216,475,o),
(302,475,cs),
(389,475,o),
(459,419,o),
(459,253,cs),
(459,242,ls),
(459,99,o),
(389,36,o),
(302,36,cs)
);
}
);
};
layerId = "F84504BD-929B-4EC5-838D-CC63F45B30C5";
shapes = (
{
closed = 1;
nodes = (
(144,-181,l),
(144,71,l),
(177,21,o),
(235,-10,o),
(307,-10,cs),
(419,-10,o),
(510,83,o),
(510,245,cs),
(510,256,ls),
(510,446,o),
(421,521,o),
(309,521,cs),
(238,521,o),
(182,496,o),
(144,443,c),
(144,720,l),
(93,720,l),
(93,-181,l)
);
},
{
closed = 1;
nodes = (
(215,36,o),
(143,98,o),
(143,242,cs),
(143,254,ls),
(143,423,o),
(216,475,o),
(302,475,cs),
(389,475,o),
(459,419,o),
(459,253,cs),
(459,242,ls),
(459,99,o),
(389,36,o),
(302,36,cs)
);
}
);
width = 582;
},
{
background = {
shapes = (
{
closed = 1;
nodes = (
(248,-181,l),
(248,53,l),
(269,18,o),
(309,-10,o),
(380,-10,cs),
(487,-10,o),
(584,75,o),
(584,250,cs),
(584,271,ls),
(584,446,o),
(494,521,o),
(370,521,cs),
(302,521,o),
(252,486,o),
(226,452,c),
(208,511,l),
(50,511,l),
(50,-181,l)
);
},
{
closed = 1;
nodes = (
(275,111,o),
(248,142,o),
(248,181,cs),
(248,326,ls),
(248,365,o),
(275,396,o),
(310,396,cs),
(345,396,o),
(372,365,o),
(372,326,cs),
(372,181,ls),
(372,142,o),
(345,111,o),
(310,111,cs)
);
}
);
};
layerId = "B61048DD-A105-4E1B-AF86-BB1631F6D87A";
shapes = (
{
closed = 1;
nodes = (
(248,-181,l),
(248,53,l),
(269,18,o),
(309,-10,o),
(380,-10,cs),
(487,-10,o),
(584,75,o),
(584,250,cs),
(584,271,ls),
(584,446,o),
(494,521,o),
(370,521,cs),
(315,521,o),
(274,501,o),
(248,477,c),
(248,720,l),
(50,720,l),
(50,-181,l)
);
},
{
closed = 1;
nodes = (
(275,111,o),
(248,142,o),
(248,181,cs),
(248,326,ls),
(248,365,o),
(275,396,o),
(310,396,cs),
(345,396,o),
(372,365,o),
(372,326,cs),
(372,181,ls),
(372,142,o),
(345,111,o),
(310,111,cs)
);
}
);
width = 610;
},
{
background = {
shapes = (
{
pos = (1,0);
ref = p;
}
);
};
layerId = "D456B91C-7AE2-46C5-8C20-B2F338249762";
shapes = (
{
closed = 1;
nodes = (
(190,-181,l),
(190,63,l),
(218,20,o),
(268,-10,o),
(339,-10,cs),
(449,-10,o),
(540,77,o),
(540,244,cs),
(540,265,ls),
(540,449,o),
(448,521,o),
(332,521,cs),
(272,521,o),
(223,498,o),
(190,458,c),
(190,720,l),
(74,720,l),
(74,-181,l)
);
},
{
closed = 1;
nodes = (
(242,71,o),
(190,119,o),
(190,217,cs),
(190,288,ls),
(190,399,o),
(242,442,o),
(306,442,cs),
(369,442,o),
(418,397,o),
(418,287,cs),
(418,217,ls),
(418,120,o),
(369,71,o),
(306,71,cs)
);
}
);
width = 592;
}
);
metricRight = o;
note = thorn;
unicode = 254;
},
{
color = 4;
glyphname = q;
kernLeft = o;
kernRight = q;
layers = (
{
layerId = "F84504BD-929B-4EC5-838D-CC63F45B30C5";
shapes = (
{
closed = 1;
nodes = (
(489,-180,l),
(489,511,l),
(468,511,l),
(449,426,l),
(411,490,o),
(353,521,o),
(275,521,cs),
(163,521,o),
(72,441,o),
(72,251,cs),
(72,240,ls),
(72,78,o),
(163,-10,o),
(275,-10,cs),
(347,-10,o),
(405,21,o),
(438,71,c),
(438,-180,l)
);
},
{
closed = 1;
nodes = (
(193,36,o),
(123,99,o),
(123,242,cs),
(123,253,ls),
(123,419,o),
(193,475,o),
(280,475,cs),
(366,475,o),
(439,423,o),
(439,254,cs),
(439,242,ls),
(439,98,o),
(367,36,o),
(280,36,cs)
);
}
);
width = 583;
},
{
background = {
anchors = (
{
name = center;
pos = (398,617);
},
{
name = topright;
pos = (366,286);
}
);
shapes = (
{
closed = 1;
nodes = (
(306,-10,o),
(356,28,o),
(384,63,c),
(402,0,l),
(560,0,l),
(560,720,l),
(362,720,l),
(362,458,l),
(341,493,o),
(301,521,o),
(230,521,cs),
(123,521,o),
(26,436,o),
(26,261,cs),
(26,250,ls),
(26,75,o),
(96,-10,o),
(228,-10,cs)
);
},
{
closed = 1;
nodes = (
(265,111,o),
(238,142,o),
(238,181,cs),
(238,326,ls),
(238,365,o),
(265,396,o),
(300,396,cs),
(335,396,o),
(362,365,o),
(362,326,cs),
(362,181,ls),
(362,142,o),
(335,111,o),
(300,111,cs)
);
}
);
};
layerId = "B61048DD-A105-4E1B-AF86-BB1631F6D87A";
shapes = (
{
closed = 1;
nodes = (
(560,-180,l),
(560,511,l),
(490,511,l),
(414,443,l),
(375,498,o),
(326,520,o),
(254,520,cs),
(133,520,o),
(26,432,o),
(26,257,cs),
(26,246,ls),
(26,72,o),
(96,-10,o),
(228,-10,cs),
(298,-10,o),
(341,28,o),
(362,52,c),
(362,-180,l)
);
},
{
closed = 1;
nodes = (
(265,111,o),
(238,142,o),
(238,181,cs),
(238,326,ls),
(238,365,o),
(265,396,o),
(300,396,cs),
(335,396,o),
(362,365,o),
(362,326,cs),
(362,181,ls),
(362,142,o),
(335,111,o),
(300,111,cs)
);
}
);
width = 610;
},
{
layerId = "D456B91C-7AE2-46C5-8C20-B2F338249762";
shapes = (
{
closed = 1;
nodes = (
(518,-180,l),
(518,511,l),
(475,511,l),
(431,434,l),
(393,494,o),
(339,521,o),
(263,521,cs),
(147,521,o),
(52,438,o),
(52,255,cs),
(52,244,ls),
(52,76,o),
(143,-10,o),
(253,-10,cs),
(324,-10,o),
(374,24,o),
(402,63,c),
(402,-180,l)
);
},
{
closed = 1;
nodes = (
(223,71,o),
(174,119,o),
(174,216,cs),
(174,287,ls),
(174,396,o),
(223,441,o),
(286,441,cs),
(350,441,o),
(402,399,o),
(402,287,cs),
(402,216,ls),
(402,119,o),
(350,71,o),
(286,71,cs)
);
}
);
width = 593;
}
);
metricLeft = o;
note = q;
unicode = 113;
},
{
color = 4;
glyphname = r;
kernLeft = n;
kernRight = r;
layers = (
{
anchors = (
{
name = bottom;
pos = (118,0);
},
{
name = top;
pos = (264,511);
}
);
layerId = "F84504BD-929B-4EC5-838D-CC63F45B30C5";
shapes = (
{
closed = 1;
nodes = (
(144,0,l),
(144,324,ls),
(144,379,o),
(174,475,o),
(273,475,cs),
(372,475,o),
(398,397,o),
(398,344,cs),
(398,328,l),
(445,328,l),
(445,328,o),
(447,338,o),
(447,352,cs),
(447,442,o),
(394,521,o),
(283,521,cs),
(172,521,o),
(138,435,o),
(138,435,c),
(127,511,l),
(93,511,l),
(93,0,l)
);
}
);
width = 480;
},
{
anchors = (
{
name = bottom;
pos = (142,0);
},
{
name = top;
pos = (259,511);
}
);
layerId = "B61048DD-A105-4E1B-AF86-BB1631F6D87A";
shapes = (
{
closed = 1;
nodes = (
(243,0,l),
(243,328,ls),
(243,356,o),
(258,378,o),
(286,378,cs),
(313,378,o),
(328,356,o),
(328,328,cs),
(328,304,l),
(490,304,l),
(493,327,o),
(494,351,o),
(494,367,cs),
(494,467,o),
(452,521,o),
(355,521,cs),
(272,521,o),
(227,452,o),
(220,437,c),
(198,511,l),
(50,511,l),
(50,0,l)
);
}
);
width = 507;
},
{
anchors = (
{
name = bottom;
pos = (131,0);
},
{
name = top;
pos = (274,511);
}
);
layerId = "D456B91C-7AE2-46C5-8C20-B2F338249762";
shapes = (
{
closed = 1;
nodes = (
(190,0,l),
(190,326,ls),
(190,369,o),
(213,432,o),
(281,432,cs),
(348,432,o),
(369,379,o),
(369,337,cs),
(369,317,l),
(467,317,l),
(468,328,o),
(470,344,o),
(470,359,cs),
(470,453,o),
(422,521,o),
(317,521,cs),
(218,521,o),
(180,443,o),
(176,436,c),
(161,511,l),
(74,511,l),
(74,0,l)
);
}
);
width = 494;
}
);
metricLeft = n;
note = r;
unicode = 114;
},
{
color = 4;
glyphname = s;
kernLeft = s;
kernRight = s;
layers = (
{
anchors = (
{
name = bottom;
pos = (269,0);
},
{
name = top;
pos = (267,511);
}
);
background = {
shapes = (
{
closed = 1;
nodes = (
(61,157,ls),
(61,157,o),
(60,151,o),
(60,132,cs),
(60,80,o),
(105,-10,o),
(263,-10,cs),
(382,-10,o),
(472,30,o),
(472,146,cs),
(472,334,o),
(126,246,o),
(126,383,cs),
(126,408,o),
(132,475,o),
(264,475,cs),
(400,475,o),
(409,405,o),
(409,382,cs),
(409,369,l),
(459,369,l),
(459,369,o),
(460,377,o),
(460,383,cs),
(460,443,o),
(409,521,o),
(273,521,cs),
(136,521,o),
(75,458,o),
(75,381,cs),
(75,187,o),
(421,293,o),
(421,136,cs),
(421,78,o),
(370,36,o),
(276,36,cs),
(174,36,o),
(110,74,o),
(110,143,cs),
(110,148,o),
(110,152,o),
(111,157,c)
);
}
);
};
layerId = "F84504BD-929B-4EC5-838D-CC63F45B30C5";
shapes = (
{
closed = 1;
nodes = (
(267,-10,ls),
(383,-10,o),
(472,32,o),
(472,146,cs),
(472,334,o),
(126,246,o),
(126,383,cs),
(126,408,o),
(132,475,o),
(264,475,cs),
(400,475,o),
(409,405,o),
(409,382,cs),
(409,369,l),
(459,369,l),
(459,369,o),
(460,377,o),
(460,383,cs),
(460,442,o),
(408,521,o),
(276,521,cs),
(272,521,ls),
(136,521,o),
(75,458,o),
(75,381,cs),
(75,187,o),
(421,293,o),
(421,136,cs),
(421,78,o),
(370,36,o),
(276,36,cs),
(174,36,o),
(110,74,o),
(110,143,cs),
(110,148,o),
(110,152,o),
(111,157,c),
(61,157,l),
(60,145,o),
(60,141,o),
(60,132,cs),
(60,80,o),
(105,-10,o),
(262,-10,cs)
);
}
);
width = 534;
},
{
anchors = (
{
name = bottom;
pos = (278,0);
},
{
name = top;
pos = (276,511);
}
);
layerId = "B61048DD-A105-4E1B-AF86-BB1631F6D87A";
shapes = (
{
closed = 1;
nodes = (
(295,-10,ls),
(412,-10,o),
(532,34,o),
(532,170,cs),
(532,393,o),
(211,301,o),
(211,374,cs),
(211,403,o),
(266,403,o),
(285,403,cs),
(312,403,o),
(355,393,o),
(355,363,cs),
(355,358,l),
(519,358,l),
(520,364,o),
(521,374,o),
(521,384,cs),
(521,478,o),
(392,521,o),
(304,521,cs),
(273,521,ls),
(169,521,o),
(38,472,o),
(38,349,cs),
(38,134,o),
(356,217,o),
(356,142,cs),
(356,112,o),
(290,111,o),
(271,111,cs),
(236,111,o),
(185,121,o),
(185,160,cs),
(185,162,o),
(185,164,o),
(186,167,c),
(23,167,l),
(22,160,o),
(22,156,o),
(22,149,cs),
(22,40,o),
(136,-10,o),
(243,-10,cs)
);
}
);
width = 559;
},
{
anchors = (
{
name = bottom;
pos = (273,0);
},
{
name = top;
pos = (271,511);
}
);
layerId = "D456B91C-7AE2-46C5-8C20-B2F338249762";
shapes = (
{
closed = 1;
nodes = (
(279,-10,ls),
(396,-10,o),
(499,33,o),
(499,157,cs),
(499,360,o),
(164,270,o),
(164,379,cs),
(164,406,o),
(192,442,o),
(273,442,cs),
(361,442,o),
(385,400,o),
(385,374,cs),
(385,364,l),
(486,364,l),
(486,367,o),
(487,376,o),
(487,383,cs),
(487,458,o),
(401,521,o),
(288,521,cs),
(272,521,ls),
(151,521,o),
(59,464,o),
(59,367,cs),
(59,163,o),
(392,259,o),
(392,139,cs),
(392,93,o),
(334,69,o),
(274,69,cs),
(202,69,o),
(143,95,o),
(143,151,cs),
(143,154,o),
(143,157,o),
(144,161,c),
(44,161,l),
(43,152,o),
(43,148,o),
(43,140,cs),
(43,62,o),
(119,-10,o),
(254,-10,cs)
);
}
);
width = 545;
}
);
note = s;
unicode = 115;
},
{
color = 4;
glyphname = germandbls;
kernLeft = germandbls;
kernRight = germandbls;
layers = (
{
layerId = "F84504BD-929B-4EC5-838D-CC63F45B30C5";
shapes = (
{
closed = 1;
nodes = (
(173,-66,l),
(173,514,ls),
(173,614,o),
(235,682,o),
(335,682,cs),
(421,682,o),
(478,620,o),
(478,544,cs),
(478,468,o),
(409,407,o),
(325,407,cs),
(244,407,l),
(244,361,l),
(336,361,ls),
(427,361,o),
(500,290,o),
(500,203,cs),
(500,116,o),
(427,46,o),
(336,46,cs),
(244,46,l),
(244,0,l),
(336,0,ls),
(455,0,o),
(551,90,o),
(551,203,cs),
(551,283,o),
(500,358,o),
(429,385,c),
(427,388,l),
(484,410,o),
(529,477,o),
(529,544,cs),
(529,646,o),
(449,728,o),
(335,728,cs),
(209,728,o),
(122,643,o),
(122,511,c),
(66,511,l),
(66,465,l),
(122,465,l),
(122,-66,l)
);
}
);
width = 614;
},
{
layerId = "B61048DD-A105-4E1B-AF86-BB1631F6D87A";
shapes = (
{
closed = 1;
nodes = (
(285,-66,l),
(285,511,ls),
(285,550,o),
(313,579,o),
(349,579,cs),
(384,579,o),
(412,550,o),
(412,511,cs),
(412,472,o),
(384,443,o),
(348,443,cs),
(321,443,l),
(321,321,l),
(349,321,ls),
(394,321,o),
(430,282,o),
(430,234,cs),
(430,187,o),
(393,148,o),
(349,148,cs),
(321,148,l),
(321,0,l),
(384,0,ls),
(524,0,o),
(627,71,o),
(627,219,cs),
(627,295,o),
(579,365,o),
(507,390,c),
(507,395,l),
(566,419,o),
(601,477,o),
(601,541,cs),
(601,681,o),
(466,728,o),
(349,728,cs),
(221,728,o),
(95,650,o),
(87,511,c),
(25,511,l),
(25,369,l),
(87,369,l),
(87,-66,l)
);
}
);
width = 652;
},
{
layerId = "D456B91C-7AE2-46C5-8C20-B2F338249762";
shapes = (
{
closed = 1;
nodes = (
(222,-66,l),
(222,513,ls),
(222,586,o),
(270,636,o),
(341,636,cs),
(405,636,o),
(449,589,o),
(449,529,cs),
(449,470,o),
(398,423,o),
(335,423,cs),
(278,423,l),
(278,343,l),
(342,343,ls),
(412,343,o),
(469,286,o),
(469,217,cs),
(469,148,o),
(412,91,o),
(342,91,cs),
(278,91,l),
(278,0,l),
(357,0,ls),
(486,0,o),
(585,82,o),
(585,210,cs),
(585,288,o),
(535,361,o),
(464,387,c),
(463,391,l),
(520,414,o),
(561,477,o),
(561,543,cs),
(561,662,o),
(457,728,o),
(341,728,cs),
(214,728,o),
(110,646,o),
(106,511,c),
(48,511,l),
(48,422,l),
(106,422,l),
(106,-66,l)
);
}
);
width = 631;
}
);
note = germandbls;
unicode = 223;
},
{
color = 4;
glyphname = longs;
kernLeft = f;
kernRight = longs;
layers = (
{
layerId = "B61048DD-A105-4E1B-AF86-BB1631F6D87A";
shapes = (
{
closed = 1;
nodes = (
(287,0,l),
(287,548,ls),
(287,603,o),
(319,606,o),
(344,606,cs),
(359,606,o),
(391,601,o),
(406,596,c),
(406,706,l),
(373,720,o),
(306,728,o),
(272,728,cs),
(164,728,o),
(89,685,o),
(89,577,cs),
(89,511,l),
(25,511,l),
(25,369,l),
(89,369,l),
(89,0,l)
);
}
);
width = 419;
},
{
layerId = "F84504BD-929B-4EC5-838D-CC63F45B30C5";
shapes = (
{
closed = 1;
nodes = (
(164,0,l),
(164,615,ls),
(164,674,o),
(193,682,o),
(221,682,cs),
(236,682,o),
(267,673,o),
(283,666,c),
(283,711,l),
(266,721,o),
(240,728,o),
(215,728,cs),
(156,728,o),
(113,694,o),
(113,617,cs),
(113,511,l),
(57,511,l),
(57,465,l),
(113,465,l),
(113,0,l)
);
}
);
width = 338;
},
{
layerId = "D456B91C-7AE2-46C5-8C20-B2F338249762";
shapes = (
{
closed = 1;
nodes = (
(218,0,l),
(218,585,ls),
(218,642,o),
(249,648,o),
(276,648,cs),
(291,648,o),
(322,641,o),
(338,635,c),
(338,709,l),
(314,721,o),
(269,728,o),
(240,728,cs),
(160,728,o),
(102,690,o),
(102,599,cs),
(102,511,l),
(43,511,l),
(43,422,l),
(102,422,l),
(102,0,l)
);
}
);
width = 374;
}
);
unicode = 383;
},
{
color = 4;
glyphname = t;
kernLeft = t;
kernRight = t;
layers = (
{
anchors = (
{
name = bottom;
pos = (191,0);
},
{
name = center;
pos = (136,278);
},
{
name = topright;
pos = (59,511);
}
);
layerId = "F84504BD-929B-4EC5-838D-CC63F45B30C5";
shapes = (
{
closed = 1;
nodes = (
(236,-10,o),
(262,-3,o),
(279,7,c),
(279,52,l),
(263,45,o),
(232,36,o),
(217,36,cs),
(189,36,o),
(160,44,o),
(160,103,cs),
(160,465,l),
(279,465,l),
(279,511,l),
(160,511,l),
(160,674,l),
(127,674,l),
(109,511,l),
(53,511,l),
(53,465,l),
(109,465,l),
(109,101,ls),
(109,24,o),
(152,-10,o),
(211,-10,cs)
);
}
);
width = 346;
},
{
anchors = (
{
name = bottom;
pos = (233,0);
},
{
name = center;
pos = (179,278);
},
{
name = topright;
pos = (52,511);
}
);
layerId = "B61048DD-A105-4E1B-AF86-BB1631F6D87A";
shapes = (
{
closed = 1;
nodes = (
(296,-11,o),
(363,-3,o),
(396,11,c),
(396,123,l),
(380,116,o),
(349,111,o),
(334,111,cs),
(306,111,o),
(277,121,o),
(277,180,cs),
(277,369,l),
(397,369,l),
(397,511,l),
(277,511,l),
(277,674,l),
(156,674,l),
(87,511,l),
(23,511,l),
(23,369,l),
(79,369,l),
(79,130,ls),
(79,22,o),
(154,-11,o),
(262,-11,cs)
);
}
);
width = 419;
},
{
anchors = (
{
name = bottom;
pos = (211,0);
},
{
name = center;
pos = (155,278);
},
{
name = topright;
pos = (56,511);
}
);
layerId = "D456B91C-7AE2-46C5-8C20-B2F338249762";
shapes = (
{
closed = 1;
nodes = (
(263,-10,o),
(307,-3,o),
(331,9,c),
(331,84,l),
(315,77,o),
(284,69,o),
(269,69,cs),
(241,69,o),
(212,78,o),
(212,137,cs),
(212,422,l),
(331,422,l),
(331,511,l),
(212,511,l),
(212,674,l),
(140,674,l),
(99,511,l),
(40,511,l),
(40,422,l),
(96,422,l),
(96,114,ls),
(96,23,o),
(153,-10,o),
(234,-10,cs)
);
}
);
width = 378;
}
);
note = t;
unicode = 116;
},
{
color = 4;
glyphname = tbar;
kernLeft = t;
kernRight = t;
layers = (
{
layerId = "F84504BD-929B-4EC5-838D-CC63F45B30C5";
shapes = (
{
closed = 1;
nodes = (
(236,-10,o),
(262,-3,o),
(279,7,c),
(279,52,l),
(263,45,o),
(232,36,o),
(217,36,cs),
(189,36,o),
(160,44,o),
(160,103,cs),
(160,465,l),
(279,465,l),
(279,511,l),
(160,511,l),
(160,674,l),
(127,674,l),
(109,511,l),
(53,511,l),
(53,465,l),
(109,465,l),
(109,101,ls),
(109,24,o),
(152,-10,o),
(211,-10,cs)
);
},
{
closed = 1;
nodes = (
(281,257,l),
(281,299,l),
(56,299,l),
(56,257,l)
);
}
);
width = 346;
},
{
layerId = "B61048DD-A105-4E1B-AF86-BB1631F6D87A";
shapes = (
{
closed = 1;
nodes = (
(296,-11,o),
(363,-3,o),
(396,11,c),
(396,123,l),
(380,116,o),
(349,111,o),
(334,111,cs),
(306,111,o),
(277,121,o),
(277,180,cs),
(277,369,l),
(397,369,l),
(397,511,l),
(277,511,l),
(277,674,l),
(156,674,l),
(87,511,l),
(23,511,l),
(23,369,l),
(79,369,l),
(79,130,ls),
(79,22,o),
(154,-11,o),
(262,-11,cs)
);
},
{
closed = 1;
nodes = (
(396,195,l),
(396,321,l),
(23,321,l),
(23,195,l)
);
}
);
width = 419;
},
{
layerId = "D456B91C-7AE2-46C5-8C20-B2F338249762";
shapes = (
{
closed = 1;
nodes = (
(263,-10,o),
(307,-3,o),
(331,9,c),
(331,84,l),
(315,77,o),
(284,69,o),
(269,69,cs),
(241,69,o),
(212,78,o),
(212,137,cs),
(212,422,l),
(331,422,l),
(331,511,l),
(212,511,l),
(212,674,l),
(140,674,l),
(99,511,l),
(40,511,l),
(40,422,l),
(96,422,l),
(96,114,ls),
(96,23,o),
(153,-10,o),
(234,-10,cs)
);
},
{
closed = 1;
nodes = (
(332,229,l),
(332,309,l),
(41,309,l),
(41,229,l)
);
}
);
width = 378;
}
);
unicode = 359;
},
{
color = 4;
glyphname = u;
kernLeft = u;
kernRight = u;
layers = (
{
anchors = (
{
name = bottom;
pos = (302,0);
},
{
name = center;
pos = (294,285);
},
{
name = ogonek;
pos = (513,0);
},
{
name = top;
pos = (288,511);
},
{
name = topright;
pos = (348,554);
}
);
layerId = "F84504BD-929B-4EC5-838D-CC63F45B30C5";
shapes = (
{
closed = 1;
nodes = (
(336,-10,o),
(405,22,o),
(440,76,c),
(440,34,o),
(445,-10,o),
(504,-10,cs),
(528,-10,o),
(550,-3,o),
(568,9,c),
(568,52,l),
(553,43,o),
(530,36,o),
(515,36,cs),
(500,36,o),
(491,45,o),
(491,69,cs),
(491,511,l),
(440,511,l),
(440,197,ls),
(440,105,o),
(367,36,o),
(277,36,cs),
(187,36,o),
(139,82,o),
(139,193,cs),
(139,511,l),
(88,511,l),
(88,178,ls),
(88,45,o),
(163,-10,o),
(269,-10,cs)
);
}
);
width = 618;
},
{
anchors = (
{
name = bottom;
pos = (324,0);
},
{
name = center;
pos = (298,302);
},
{
name = ogonek;
pos = (500,0);
},
{
name = top;
pos = (300,511);
},
{
name = topright;
pos = (314,542);
}
);
background = {
shapes = (
{
closed = 1;
nodes = (
(46,511,l),
(46,140,ls),
(46,57,o),
(113,-10,o),
(196,-10,cs),
(224,-10,ls),
(295,-10,o),
(351,48,o),
(366,71,c),
(385,20,o),
(424,-10,o),
(513,-10,cs),
(565,-10,o),
(596,0,o),
(614,13,c),
(614,120,l),
(603,114,o),
(591,111,o),
(579,111,cs),
(564,111,o),
(548,121,o),
(548,148,cs),
(548,511,l),
(350,511,l),
(350,191,ls),
(350,158,o),
(326,131,o),
(297,131,cs),
(268,131,o),
(244,158,o),
(244,191,cs),
(244,511,l)
);
}
);
};
layerId = "B61048DD-A105-4E1B-AF86-BB1631F6D87A";
shapes = (
{
closed = 1;
nodes = (
(278,-10,o),
(333,20,o),
(366,71,c),
(385,20,o),
(424,-10,o),
(513,-10,cs),
(565,-10,o),
(596,0,o),
(614,13,c),
(614,120,l),
(603,114,o),
(591,111,o),
(579,111,cs),
(564,111,o),
(548,121,o),
(548,148,cs),
(548,511,l),
(350,511,l),
(350,191,ls),
(350,158,o),
(326,131,o),
(297,131,cs),
(259,131,o),
(244,158,o),
(244,191,cs),
(244,511,l),
(46,511,l),
(46,150,ls),
(46,53,o),
(106,-10,o),
(210,-10,cs)
);
}
);
width = 628;
},
{
anchors = (
{
name = bottom;
pos = (311,0);
},
{
name = center;
pos = (293,293);
},
{
name = ogonek;
pos = (521,0);
},
{
name = top;
pos = (291,511);
},
{
name = topright;
pos = (333,549);
}
);
layerId = "D456B91C-7AE2-46C5-8C20-B2F338249762";
shapes = (
{
closed = 1;
nodes = (
(308,-10,o),
(373,21,o),
(407,74,c),
(416,29,o),
(441,-10,o),
(508,-10,cs),
(544,-10,o),
(570,-2,o),
(588,11,c),
(588,82,l),
(575,75,o),
(559,69,o),
(545,69,cs),
(530,69,o),
(516,79,o),
(516,104,cs),
(516,511,l),
(400,511,l),
(400,194,ls),
(400,129,o),
(344,78,o),
(281,78,cs),
(218,78,o),
(185,110,o),
(185,191,cs),
(185,511,l),
(69,511,l),
(69,165,ls),
(69,48,o),
(135,-10,o),
(240,-10,cs)
);
}
);
width = 622;
}
);
note = u;
unicode = 117;
},
{
color = 4;
glyphname = uhorntilde;
kernLeft = u;
kernRight = u;
layers = (
{
layerId = "F84504BD-929B-4EC5-838D-CC63F45B30C5";
shapes = (
{
closed = 1;
nodes = (
(336,-10,o),
(405,22,o),
(440,76,c),
(440,34,o),
(445,-10,o),
(504,-10,cs),
(528,-10,o),
(550,-3,o),
(568,9,c),
(568,52,l),
(553,43,o),
(530,36,o),
(515,36,cs),
(500,36,o),
(491,45,o),
(491,69,cs),
(491,511,l),
(440,511,l),
(440,197,ls),
(440,105,o),
(367,36,o),
(277,36,cs),
(187,36,o),
(139,82,o),
(139,193,cs),
(139,511,l),
(88,511,l),
(88,178,ls),
(88,45,o),
(163,-10,o),
(269,-10,cs)
);
},
{
closed = 1;
nodes = (
(139,634,l),
(146,657,o),
(163,666,o),
(196,666,cs),
(250,666,o),
(299,634,o),
(363,634,cs),
(442,634,o),
(464,684,o),
(464,716,c),
(427,716,l),
(420,693,o),
(403,684,o),
(370,684,cs),
(316,684,o),
(267,716,o),
(203,716,cs),
(125,716,o),
(102,666,o),
(102,634,c)
);
},
{
closed = 1;
nodes = (
(546,490,o),
(594,561,o),
(594,660,c),
(538,660,l),
(538,575,o),
(505,521,o),
(440,511,c),
(440,473,l)
);
}
);
width = 618;
},
{
background = {
anchors = (
{
name = bottom;
pos = (302,0);
},
{
name = ogonek;
pos = (530,0);
},
{
name = top;
pos = (300,511);
},
{
name = topright;
pos = (314,542);
}
);
shapes = (
{
closed = 1;
nodes = (
(278,-10,o),
(333,20,o),
(366,71,c),
(385,20,o),
(424,-10,o),
(513,-10,cs),
(565,-10,o),
(596,0,o),
(614,13,c),
(614,120,l),
(603,114,o),
(591,111,o),
(579,111,cs),
(564,111,o),
(548,121,o),
(548,148,cs),
(548,511,l),
(350,511,l),
(350,191,ls),
(350,158,o),
(326,131,o),
(297,131,cs),
(259,131,o),
(244,158,o),
(244,191,cs),
(244,511,l),
(46,511,l),
(46,150,ls),
(46,53,o),
(106,-10,o),
(210,-10,cs)
);
}
);
};
layerId = "B61048DD-A105-4E1B-AF86-BB1631F6D87A";
shapes = (
{
closed = 1;
nodes = (
(278,-10,o),
(333,20,o),
(366,71,c),
(385,20,o),
(424,-10,o),
(513,-10,cs),
(565,-10,o),
(596,0,o),
(614,13,c),
(614,120,l),
(603,114,o),
(591,111,o),
(579,111,cs),
(564,111,o),
(548,121,o),
(548,148,cs),
(548,511,l),
(350,511,l),
(350,191,ls),
(350,158,o),
(326,131,o),
(297,131,cs),
(259,131,o),
(244,158,o),
(244,191,cs),
(244,511,l),
(46,511,l),
(46,150,ls),
(46,53,o),
(106,-10,o),
(210,-10,cs)
);
},
{
closed = 1;
nodes = (
(179,576,l),
(186,599,o),
(204,616,o),
(229,616,c),
(295,610,o),
(300,576,o),
(362,576,cs),
(439,576,o),
(502,647,o),
(502,719,c),
(421,719,l),
(414,696,o),
(396,679,o),
(371,679,cs),
(318,679,o),
(302,719,o),
(238,719,cs),
(161,719,o),
(98,648,o),
(98,576,c)
);
},
{
closed = 1;
nodes = (
(562,423,o),
(667,530,o),
(667,650,c),
(513,650,l),
(513,565,o),
(499,521,o),
(434,511,c),
(424,413,l)
);
}
);
width = 628;
},
{
layerId = "D456B91C-7AE2-46C5-8C20-B2F338249762";
shapes = (
{
closed = 1;
nodes = (
(314,-10,o),
(373,21,o),
(407,74,c),
(416,29,o),
(441,-10,o),
(508,-10,cs),
(544,-10,o),
(570,-2,o),
(588,11,c),
(588,82,l),
(575,75,o),
(559,69,o),
(545,69,cs),
(530,69,o),
(516,79,o),
(516,104,cs),
(516,511,l),
(400,511,l),
(400,194,ls),
(400,129,o),
(352,78,o),
(289,78,cs),
(226,78,o),
(186,118,o),
(186,194,cs),
(186,511,l),
(69,511,l),
(69,163,ls),
(69,51,o),
(141,-10,o),
(246,-10,cs)
);
},
{
closed = 1;
nodes = (
(157,608,l),
(164,631,o),
(181,644,o),
(211,644,cs),
(270,641,o),
(299,608,o),
(363,608,cs),
(441,608,o),
(481,668,o),
(481,717,c),
(424,717,l),
(417,694,o),
(400,682,o),
(370,682,cs),
(317,682,o),
(283,717,o),
(219,717,cs),
(141,717,o),
(100,658,o),
(100,608,c)
);
},
{
closed = 1;
nodes = (
(553,460,o),
(626,547,o),
(626,656,c),
(527,656,l),
(527,571,o),
(502,521,o),
(437,511,c),
(433,446,l)
);
}
);
width = 622;
}
);
unicode = 7919;
},
{
color = 4;
glyphname = v;
kernLeft = v;
kernRight = v;
layers = (
{
anchors = (
{
name = bottom;
pos = (256,0);
},
{
name = top;
pos = (256,511);
}
);
layerId = "F84504BD-929B-4EC5-838D-CC63F45B30C5";
shapes = (
{
closed = 1;
nodes = (
(278,0,l),
(485,511,l),
(435,511,l),
(259,74,l),
(257,74,l),
(82,511,l),
(27,511,l),
(233,0,l)
);
}
);
width = 512;
},
{
anchors = (
{
name = bottom;
pos = (280,0);
},
{
name = top;
pos = (280,511);
}
);
layerId = "B61048DD-A105-4E1B-AF86-BB1631F6D87A";
shapes = (
{
closed = 1;
nodes = (
(393,0,l),
(560,511,l),
(367,511,l),
(292,219,l),
(285,219,l),
(210,511,l),
(-1,511,l),
(164,0,l)
);
}
);
width = 559;
},
{
anchors = (
{
name = bottom;
pos = (267,0);
},
{
name = top;
pos = (267,511);
}
);
layerId = "D456B91C-7AE2-46C5-8C20-B2F338249762";
shapes = (
{
closed = 1;
nodes = (
(329,0,l),
(518,511,l),
(405,511,l),
(274,138,l),
(269,138,l),
(139,511,l),
(15,511,l),
(202,0,l)
);
}
);
width = 533;
}
);
note = v;
unicode = 118;
},
{
color = 4;
glyphname = w;
kernLeft = v;
kernRight = v;
layers = (
{
anchors = (
{
name = top;
pos = (403,511);
}
);
layerId = "F84504BD-929B-4EC5-838D-CC63F45B30C5";
shapes = (
{
closed = 1;
nodes = (
(247,0,l),
(402,446,l),
(404,446,l),
(559,0,l),
(599,0,l),
(777,511,l),
(728,511,l),
(583,93,l),
(580,93,l),
(435,511,l),
(376,511,l),
(231,93,l),
(228,93,l),
(83,511,l),
(30,511,l),
(207,0,l)
);
}
);
width = 811;
},
{
anchors = (
{
name = top;
pos = (426,511);
}
);
layerId = "B61048DD-A105-4E1B-AF86-BB1631F6D87A";
shapes = (
{
closed = 1;
nodes = (
(377,0,l),
(425,213,l),
(433,213,l),
(482,0,l),
(706,0,l),
(852,511,l),
(660,511,l),
(603,253,l),
(595,253,l),
(535,511,l),
(335,511,l),
(274,253,l),
(267,253,l),
(210,511,l),
(4,511,l),
(149,0,l)
);
}
);
width = 855;
},
{
anchors = (
{
name = top;
pos = (413,511);
}
);
layerId = "D456B91C-7AE2-46C5-8C20-B2F338249762";
shapes = (
{
closed = 1;
nodes = (
(305,0,l),
(412,342,l),
(417,342,l),
(525,0,l),
(647,0,l),
(810,511,l),
(698,511,l),
(592,164,l),
(587,164,l),
(479,511,l),
(358,511,l),
(250,164,l),
(245,164,l),
(139,511,l),
(18,511,l),
(181,0,l)
);
}
);
width = 831;
}
);
note = w;
unicode = 119;
},
{
color = 4;
glyphname = x;
kernLeft = x;
kernRight = x;
layers = (
{
layerId = "F84504BD-929B-4EC5-838D-CC63F45B30C5";
shapes = (
{
closed = 1;
nodes = (
(98,0,l),
(257,221,l),
(258,221,l),
(415,0,l),
(478,0,l),
(288,262,l),
(469,511,l),
(411,511,l),
(261,303,l),
(260,303,l),
(112,511,l),
(48,511,l),
(230,262,l),
(40,0,l)
);
}
);
width = 519;
},
{
layerId = "B61048DD-A105-4E1B-AF86-BB1631F6D87A";
shapes = (
{
closed = 1;
nodes = (
(206,0,l),
(283,143,l),
(287,143,l),
(363,0,l),
(590,0,l),
(423,265,l),
(579,511,l),
(366,511,l),
(304,393,l),
(300,393,l),
(238,511,l),
(11,511,l),
(163,270,l),
(-7,0,l)
);
}
);
width = 585;
},
{
layerId = "D456B91C-7AE2-46C5-8C20-B2F338249762";
shapes = (
{
closed = 1;
nodes = (
(146,0,l),
(269,186,l),
(271,186,l),
(392,0,l),
(528,0,l),
(348,263,l),
(518,511,l),
(391,511,l),
(280,343,l),
(278,343,l),
(168,511,l),
(32,511,l),
(200,266,l),
(19,0,l)
);
}
);
width = 548;
}
);
note = x;
unicode = 120;
},
{
color = 4;
glyphname = y;
kernLeft = y;
kernRight = v;
layers = (
{
anchors = (
{
name = bottom;
pos = (365,0);
},
{
name = top;
pos = (257,511);
}
);
layerId = "F84504BD-929B-4EC5-838D-CC63F45B30C5";
shapes = (
{
closed = 1;
nodes = (
(216,-186,o),
(240,-94,o),
(283,13,cs),
(485,511,l),
(435,511,l),
(260,76,l),
(256,76,l),
(82,511,l),
(27,511,l),
(230,8,l),
(181,-112,o),
(167,-140,o),
(116,-140,cs),
(98,-140,o),
(76,-132,o),
(62,-126,c),
(62,-172,l),
(84,-182,o),
(103,-186,o),
(125,-186,cs)
);
}
);
width = 512;
},
{
anchors = (
{
name = bottom;
pos = (442,20);
},
{
name = top;
pos = (284,511);
}
);
layerId = "B61048DD-A105-4E1B-AF86-BB1631F6D87A";
shapes = (
{
closed = 1;
nodes = (
(255,-187,o),
(338,-91,o),
(384,36,cs),
(556,511,l),
(361,511,l),
(294,246,l),
(286,246,l),
(207,511,l),
(-4,511,l),
(184,15,l),
(178,-10,o),
(168,-57,o),
(106,-57,cs),
(78,-57,o),
(46,-50,o),
(31,-43,c),
(31,-172,l),
(54,-183,o),
(87,-187,o),
(130,-187,cs)
);
}
);
width = 553;
},
{
anchors = (
{
name = bottom;
pos = (399,9);
},
{
name = top;
pos = (269,511);
}
);
layerId = "D456B91C-7AE2-46C5-8C20-B2F338249762";
shapes = (
{
closed = 1;
nodes = (
(233,-186,o),
(283,-93,o),
(328,23,cs),
(517,511,l),
(402,511,l),
(275,152,l),
(269,152,l),
(138,511,l),
(13,511,l),
(213,8,l),
(187,-67,o),
(163,-95,o),
(112,-95,cs),
(89,-95,o),
(63,-90,o),
(48,-83,c),
(48,-172,l),
(71,-182,o),
(96,-186,o),
(127,-186,cs)
);
}
);
width = 530;
}
);
note = y;
unicode = 121;
},
{
color = 4;
glyphname = z;
kernLeft = z;
kernRight = z;
layers = (
{
anchors = (
{
name = top;
pos = (240,511);
}
);
layerId = "F84504BD-929B-4EC5-838D-CC63F45B30C5";
shapes = (
{
closed = 1;
nodes = (
(411,0,l),
(411,46,l),
(125,46,l),
(403,487,l),
(403,511,l),
(68,511,l),
(68,465,l),
(328,465,l),
(51,24,l),
(51,0,l)
);
}
);
width = 463;
},
{
anchors = (
{
name = top;
pos = (260,511);
}
);
layerId = "B61048DD-A105-4E1B-AF86-BB1631F6D87A";
shapes = (
{
closed = 1;
nodes = (
(474,0,l),
(474,124,l),
(277,124,l),
(466,451,l),
(466,511,l),
(33,511,l),
(33,387,l),
(210,387,l),
(22,63,l),
(22,0,l)
);
}
);
width = 498;
},
{
anchors = (
{
name = top;
pos = (249,511);
}
);
layerId = "D456B91C-7AE2-46C5-8C20-B2F338249762";
shapes = (
{
closed = 1;
nodes = (
(439,0,l),
(439,81,l),
(193,81,l),
(431,471,l),
(431,511,l),
(52,511,l),
(52,430,l),
(276,430,l),
(38,41,l),
(38,0,l)
);
}
);
width = 479;
}
);
note = z;
unicode = 122;
},
{
color = 4;
glyphname = g.alt;
kernLeft = g;
kernRight = g;
layers = (
{
anchors = (
{
name = top;
pos = (289,511);
}
);
background = {
shapes = (
{
closed = 1;
nodes = (
(399,-188,ls),
(482,-188,o),
(542,-128,o),
(542,-52,cs),
(542,15,o),
(494,67,o),
(424,67,cs),
(211,67,ls),
(169,67,o),
(136,91,o),
(136,133,cs),
(136,175,o),
(169,200,o),
(211,200,cs),
(293,200,ls),
(429,200,o),
(488,277,o),
(488,365,cs),
(488,411,o),
(472,447,o),
(442,473,c),
(443,477,l),
(504,486,o),
(542,547,o),
(542,603,c),
(494,603,l),
(487,548,o),
(452,512,o),
(404,499,c),
(375,513,o),
(338,521,o),
(293,521,cs),
(162,521,o),
(98,439,o),
(98,355,cs),
(98,305,o),
(125,266,o),
(166,236,c),
(117,217,o),
(85,183,o),
(85,135,cs),
(85,101,o),
(100,69,o),
(130,51,c),
(84,32,o),
(56,-13,o),
(56,-61,cs),
(56,-126,o),
(109,-188,o),
(182,-188,cs)
);
},
{
closed = 1;
nodes = (
(142,-142,o),
(106,-106,o),
(106,-61,cs),
(106,-17,o),
(142,21,o),
(186,21,cs),
(420,21,ls),
(459,21,o),
(491,-15,o),
(491,-54,cs),
(491,-103,o),
(450,-142,o),
(402,-142,cs),
(186,-142,ls)
);
},
{
closed = 1;
nodes = (
(200,245,o),
(149,297,o),
(149,360,cs),
(149,423,o),
(200,475,o),
(293,475,cs),
(386,475,o),
(437,423,o),
(437,360,cs),
(437,297,o),
(386,245,o),
(293,245,cs)
);
}
);
};
layerId = "F84504BD-929B-4EC5-838D-CC63F45B30C5";
shapes = (
{
closed = 1;
nodes = (
(399,-188,ls),
(482,-188,o),
(542,-128,o),
(542,-52,cs),
(542,15,o),
(494,67,o),
(424,67,cs),
(211,67,ls),
(169,67,o),
(136,91,o),
(136,133,cs),
(136,175,o),
(169,200,o),
(211,200,cs),
(293,200,ls),
(429,200,o),
(488,277,o),
(488,365,cs),
(488,411,o),
(472,447,o),
(442,473,c),
(443,477,l),
(505,492,o),
(542,537,o),
(542,593,c),
(494,593,l),
(489,538,o),
(452,512,o),
(404,499,c),
(375,513,o),
(338,521,o),
(293,521,cs),
(162,521,o),
(98,439,o),
(98,355,cs),
(98,305,o),
(125,266,o),
(166,236,c),
(117,217,o),
(85,183,o),
(85,135,cs),
(85,101,o),
(100,69,o),
(130,51,c),
(84,32,o),
(56,-13,o),
(56,-61,cs),
(56,-126,o),
(109,-188,o),
(182,-188,cs)
);
},
{
closed = 1;
nodes = (
(142,-142,o),
(106,-106,o),
(106,-61,cs),
(106,-17,o),
(142,21,o),
(186,21,cs),
(420,21,ls),
(459,21,o),
(491,-15,o),
(491,-54,cs),
(491,-103,o),
(450,-142,o),
(402,-142,cs),
(186,-142,ls)
);
},
{
closed = 1;
nodes = (
(200,245,o),
(149,297,o),
(149,360,cs),
(149,423,o),
(200,475,o),
(293,475,cs),
(386,475,o),
(437,423,o),
(437,360,cs),
(437,297,o),
(386,245,o),
(293,245,cs)
);
}
);
width = 568;
},
{
anchors = (
{
name = top;
pos = (287,546);
}
);
background = {
shapes = (
{
closed = 1;
nodes = (
(402,-188,ls),
(511,-188,o),
(589,-108,o),
(589,-17,cs),
(589,74,o),
(526,139,o),
(416,139,cs),
(266,139,ls),
(219,139,o),
(209,153,o),
(209,170,cs),
(209,186,o),
(225,200,o),
(266,200,cs),
(335,200,ls),
(444,200,o),
(535,272,o),
(535,361,cs),
(535,401,o),
(516,432,o),
(491,453,c),
(492,456,l),
(559,475,o),
(607,524,o),
(609,603,c),
(474,603,l),
(474,586,o),
(457,547,o),
(401,510,c),
(373,518,o),
(314,521,o),
(277,521,cs),
(121,521,o),
(47,442,o),
(47,353,cs),
(47,296,o),
(81,260,o),
(124,240,c),
(73,227,o),
(32,184,o),
(32,133,cs),
(32,98,o),
(51,66,o),
(80,46,c),
(33,23,o),
(4,-19,o),
(4,-68,cs),
(4,-134,o),
(68,-188,o),
(134,-188,cs)
);
},
{
closed = 1;
nodes = (
(190,-74,o),
(168,-55,o),
(168,-32,cs),
(168,-9,o),
(190,9,o),
(218,9,cs),
(361,9,ls),
(389,9,o),
(411,-10,o),
(411,-33,cs),
(411,-56,o),
(389,-74,o),
(361,-74,cs),
(218,-74,ls)
);
},
{
closed = 1;
nodes = (
(260,297,o),
(234,325,o),
(234,360,cs),
(234,395,o),
(260,423,o),
(295,423,cs),
(330,423,o),
(356,395,o),
(356,360,cs),
(356,325,o),
(330,297,o),
(295,297,cs)
);
}
);
};
layerId = "B61048DD-A105-4E1B-AF86-BB1631F6D87A";
shapes = (
{
closed = 1;
nodes = (
(402,-188,ls),
(511,-188,o),
(589,-108,o),
(589,-17,cs),
(589,74,o),
(526,139,o),
(416,139,cs),
(266,139,ls),
(219,139,o),
(209,153,o),
(209,170,cs),
(209,186,o),
(225,200,o),
(266,200,cs),
(335,200,ls),
(444,200,o),
(535,272,o),
(535,361,cs),
(535,401,o),
(519,423,o),
(502,444,c),
(503,447,l),
(570,461,o),
(619,496,o),
(619,578,c),
(484,578,l),
(484,553,o),
(474,511,o),
(418,502,c),
(395,512,o),
(347,521,o),
(291,521,cs),
(175,521,o),
(47,481,o),
(47,353,cs),
(47,296,o),
(81,260,o),
(124,240,c),
(73,227,o),
(32,184,o),
(32,133,cs),
(32,98,o),
(51,66,o),
(80,46,c),
(33,23,o),
(4,-19,o),
(4,-68,cs),
(4,-134,o),
(68,-188,o),
(134,-188,cs)
);
},
{
closed = 1;
nodes = (
(190,-74,o),
(168,-55,o),
(168,-32,cs),
(168,-9,o),
(190,9,o),
(218,9,cs),
(361,9,ls),
(389,9,o),
(411,-10,o),
(411,-33,cs),
(411,-56,o),
(389,-74,o),
(361,-74,cs),
(218,-74,ls)
);
},
{
closed = 1;
nodes = (
(260,297,o),
(234,325,o),
(234,360,cs),
(234,395,o),
(260,423,o),
(295,423,cs),
(330,423,o),
(356,395,o),
(356,360,cs),
(356,325,o),
(330,297,o),
(295,297,cs)
);
}
);
width = 590;
},
{
anchors = (
{
name = top;
pos = (289,511);
}
);
background = {
shapes = (
{
closed = 1;
nodes = (
(406,-188,ls),
(500,-188,o),
(563,-122,o),
(563,-39,cs),
(563,38,o),
(509,99,o),
(421,99,cs),
(235,99,ls),
(191,99,o),
(168,119,o),
(168,149,cs),
(168,180,o),
(194,200,o),
(235,200,cs),
(312,200,ls),
(436,200,o),
(509,275,o),
(509,363,cs),
(509,407,o),
(489,443,o),
(458,470,c),
(459,473,l),
(523,487,o),
(563,537,o),
(563,603,c),
(470,603,l),
(467,565,o),
(441,530,o),
(389,506,c),
(362,516,o),
(326,521,o),
(285,521,cs),
(143,521,o),
(75,437,o),
(75,351,cs),
(75,298,o),
(103,262,o),
(144,235,c),
(94,218,o),
(61,183,o),
(61,134,cs),
(61,100,o),
(78,70,o),
(108,51,c),
(61,30,o),
(33,-17,o),
(33,-65,cs),
(33,-133,o),
(89,-188,o),
(159,-188,cs)
);
},
{
closed = 1;
nodes = (
(164,-113,o),
(135,-84,o),
(135,-50,cs),
(135,-15,o),
(164,13,o),
(201,13,cs),
(394,13,ls),
(428,13,o),
(455,-14,o),
(455,-46,cs),
(455,-83,o),
(423,-113,o),
(384,-113,cs),
(201,-113,ls)
);
},
{
closed = 1;
nodes = (
(225,268,o),
(185,309,o),
(185,360,cs),
(185,411,o),
(225,453,o),
(292,453,cs),
(359,453,o),
(399,411,o),
(399,360,cs),
(399,309,o),
(359,268,o),
(292,268,cs)
);
}
);
};
layerId = "D456B91C-7AE2-46C5-8C20-B2F338249762";
shapes = (
{
closed = 1;
nodes = (
(406,-188,ls),
(500,-188,o),
(563,-122,o),
(563,-39,cs),
(563,38,o),
(509,99,o),
(421,99,cs),
(235,99,ls),
(191,99,o),
(168,119,o),
(168,149,cs),
(168,180,o),
(194,200,o),
(235,200,cs),
(312,200,ls),
(436,200,o),
(509,275,o),
(509,363,cs),
(509,403,o),
(493,434,o),
(472,456,c),
(473,459,l),
(537,469,o),
(586,512,o),
(586,582,c),
(493,582,l),
(493,544,o),
(465,505,o),
(412,495,c),
(374,514,o),
(333,521,o),
(290,521,cs),
(143,521,o),
(75,437,o),
(75,351,cs),
(75,298,o),
(103,262,o),
(144,235,c),
(94,218,o),
(61,183,o),
(61,134,cs),
(61,100,o),
(78,70,o),
(108,51,c),
(61,30,o),
(33,-17,o),
(33,-65,cs),
(33,-133,o),
(89,-188,o),
(159,-188,cs)
);
},
{
closed = 1;
nodes = (
(164,-113,o),
(135,-84,o),
(135,-50,cs),
(135,-15,o),
(164,13,o),
(201,13,cs),
(394,13,ls),
(428,13,o),
(455,-14,o),
(455,-46,cs),
(455,-83,o),
(423,-113,o),
(384,-113,cs),
(201,-113,ls)
);
},
{
closed = 1;
nodes = (
(225,268,o),
(185,309,o),
(185,360,cs),
(185,411,o),
(225,453,o),
(292,453,cs),
(359,453,o),
(399,411,o),
(399,360,cs),
(399,309,o),
(359,268,o),
(292,268,cs)
);
}
);
width = 578;
}
);
note = g;
},
{
color = 3;
glyphname = itilde.002;
kernLeft = i;
kernRight = i;
layers = (
{
anchors = (
{
name = top;
pos = (126,680);
}
);
layerId = "F84504BD-929B-4EC5-838D-CC63F45B30C5";
shapes = (
{
closed = 1;
nodes = (
(14,624,l),
(20,647,o),
(32,662,o),
(61,662,cs),
(99,662,o),
(135,624,o),
(187,624,cs),
(246,624,o),
(272,672,o),
(272,706,c),
(238,706,l),
(233,683,o),
(218,668,o),
(191,668,cs),
(155,668,o),
(119,706,o),
(65,706,cs),
(6,706,o),
(-20,661,o),
(-20,624,c)
);
},
{
ref = idotless;
}
);
width = 252;
},
{
anchors = (
{
name = top;
pos = (149,710);
}
);
guides = (
{
angle = 90;
pos = (-25,1117);
},
{
angle = 90;
pos = (322,1100);
}
);
layerId = "B61048DD-A105-4E1B-AF86-BB1631F6D87A";
shapes = (
{
closed = 1;
nodes = (
(33,586,l),
(40,609,o),
(57,626,o),
(82,626,cs),
(117,626,o),
(157,586,o),
(213,586,cs),
(284,586,o),
(336,647,o),
(336,739,c),
(265,739,l),
(258,716,o),
(241,699,o),
(216,699,cs),
(181,699,o),
(141,739,o),
(85,739,cs),
(14,739,o),
(-38,678,o),
(-38,586,c)
);
},
{
ref = idotless;
}
);
width = 298;
},
{
anchors = (
{
name = top;
pos = (136,690);
}
);
layerId = "D456B91C-7AE2-46C5-8C20-B2F338249762";
shapes = (
{
closed = 1;
nodes = (
(30,607,l),
(36,630,o),
(50,643,o),
(75,643,cs),
(107,643,o),
(138,607,o),
(190,607,cs),
(257,607,o),
(292,667,o),
(292,724,c),
(241,724,l),
(235,701,o),
(220,689,o),
(195,689,cs),
(162,689,o),
(133,724,o),
(80,724,cs),
(14,724,o),
(-22,664,o),
(-22,607,c)
);
},
{
ref = idotless;
}
);
width = 272;
}
);
},
{
color = 4;
glyphname = f_f;
kernLeft = f;
kernRight = f;
layers = (
{
anchors = (
{
name = caret_1;
pos = (318,0);
}
);
layerId = "F84504BD-929B-4EC5-838D-CC63F45B30C5";
shapes = (
{
closed = 1;
nodes = (
(164,0,l),
(164,465,l),
(411,465,l),
(411,0,l),
(462,0,l),
(462,465,l),
(581,465,l),
(581,511,l),
(462,511,l),
(462,615,ls),
(462,674,o),
(491,682,o),
(519,682,cs),
(534,682,o),
(565,673,o),
(581,666,c),
(581,711,l),
(564,721,o),
(538,728,o),
(513,728,cs),
(454,728,o),
(411,694,o),
(411,617,cs),
(411,511,l),
(164,511,l),
(164,615,ls),
(164,674,o),
(193,682,o),
(221,682,cs),
(236,682,o),
(267,673,o),
(283,666,c),
(283,711,l),
(266,721,o),
(240,728,o),
(215,728,cs),
(156,728,o),
(113,694,o),
(113,617,cs),
(113,511,l),
(57,511,l),
(57,465,l),
(113,465,l),
(113,0,l)
);
}
);
width = 636;
},
{
anchors = (
{
name = caret_1;
pos = (409,0);
}
);
layerId = "B61048DD-A105-4E1B-AF86-BB1631F6D87A";
shapes = (
{
closed = 1;
nodes = (
(287,0,l),
(287,369,l),
(488,369,l),
(488,0,l),
(686,0,l),
(686,369,l),
(806,369,l),
(806,511,l),
(686,511,l),
(686,548,ls),
(686,603,o),
(718,606,o),
(743,606,cs),
(758,606,o),
(790,601,o),
(805,596,c),
(805,706,l),
(772,720,o),
(705,728,o),
(671,728,cs),
(563,728,o),
(488,685,o),
(488,577,cs),
(488,511,l),
(287,511,l),
(287,548,ls),
(287,603,o),
(319,606,o),
(344,606,cs),
(359,606,o),
(391,601,o),
(406,596,c),
(406,706,l),
(373,720,o),
(306,728,o),
(272,728,cs),
(164,728,o),
(89,685,o),
(89,577,cs),
(89,511,l),
(25,511,l),
(25,369,l),
(89,369,l),
(89,0,l)
);
}
);
width = 818;
},
{
anchors = (
{
name = caret_1;
pos = (358.5,0);
}
);
layerId = "D456B91C-7AE2-46C5-8C20-B2F338249762";
shapes = (
{
closed = 1;
nodes = (
(219,0,l),
(219,422,l),
(445,422,l),
(445,0,l),
(562,0,l),
(562,422,l),
(681,422,l),
(681,511,l),
(562,511,l),
(562,585,ls),
(562,642,o),
(592,648,o),
(619,648,cs),
(634,648,o),
(665,641,o),
(681,635,c),
(681,709,l),
(656,721,o),
(612,728,o),
(583,728,cs),
(502,728,o),
(445,690,o),
(445,599,cs),
(445,511,l),
(219,511,l),
(219,585,ls),
(219,642,o),
(249,648,o),
(276,648,cs),
(291,648,o),
(322,641,o),
(338,635,c),
(338,709,l),
(314,721,o),
(269,728,o),
(240,728,cs),
(160,728,o),
(102,690,o),
(102,599,cs),
(102,511,l),
(43,511,l),
(43,422,l),
(102,422,l),
(102,0,l)
);
}
);
width = 717;
}
);
metricLeft = f;
metricRight = f;
},
{
color = 4;
glyphname = f_f_i;
kernLeft = f;
kernRight = i;
layers = (
{
anchors = (
{
name = caret_1;
pos = (285.333,0);
},
{
name = caret_2;
pos = (570.667,0);
}
);
layerId = "F84504BD-929B-4EC5-838D-CC63F45B30C5";
shapes = (
{
closed = 1;
nodes = (
(164,0,l),
(164,465,l),
(411,465,l),
(411,0,l),
(462,0,l),
(462,465,l),
(581,465,l),
(581,511,l),
(462,511,l),
(462,615,ls),
(462,674,o),
(491,682,o),
(519,682,cs),
(534,682,o),
(565,673,o),
(581,666,c),
(581,711,l),
(564,721,o),
(538,728,o),
(513,728,cs),
(454,728,o),
(411,694,o),
(411,617,cs),
(411,511,l),
(164,511,l),
(164,615,ls),
(164,674,o),
(193,682,o),
(221,682,cs),
(236,682,o),
(267,673,o),
(283,666,c),
(283,711,l),
(266,721,o),
(240,728,o),
(215,728,cs),
(156,728,o),
(113,694,o),
(113,617,cs),
(113,511,l),
(57,511,l),
(57,465,l),
(113,465,l),
(113,0,l)
);
},
{
closed = 1;
nodes = (
(752,0,l),
(752,511,l),
(701,511,l),
(701,0,l)
);
},
{
closed = 1;
nodes = (
(756,666,l),
(756,720,l),
(697,720,l),
(697,666,l)
);
}
);
width = 856;
},
{
anchors = (
{
name = caret_1;
pos = (375,0);
},
{
name = caret_2;
pos = (750,0);
}
);
layerId = "B61048DD-A105-4E1B-AF86-BB1631F6D87A";
shapes = (
{
closed = 1;
nodes = (
(287,0,l),
(287,369,l),
(488,369,l),
(488,0,l),
(686,0,l),
(686,369,l),
(806,369,l),
(806,511,l),
(686,511,l),
(686,548,ls),
(686,603,o),
(718,606,o),
(743,606,cs),
(758,606,o),
(790,601,o),
(805,596,c),
(805,706,l),
(772,720,o),
(705,728,o),
(671,728,cs),
(563,728,o),
(488,685,o),
(488,577,cs),
(488,511,l),
(287,511,l),
(287,548,ls),
(287,603,o),
(319,606,o),
(344,606,cs),
(359,606,o),
(391,601,o),
(406,596,c),
(406,706,l),
(373,720,o),
(306,728,o),
(272,728,cs),
(164,728,o),
(89,685,o),
(89,577,cs),
(89,511,l),
(25,511,l),
(25,369,l),
(89,369,l),
(89,0,l)
);
},
{
closed = 1;
nodes = (
(1075,0,l),
(1075,510,l),
(878,510,l),
(878,0,l)
);
},
{
closed = 1;
nodes = (
(1075,577,l),
(1075,720,l),
(878,720,l),
(878,577,l)
);
}
);
width = 1125;
},
{
anchors = (
{
name = caret_1;
pos = (325.333,0);
},
{
name = caret_2;
pos = (650.667,0);
}
);
layerId = "D456B91C-7AE2-46C5-8C20-B2F338249762";
shapes = (
{
closed = 1;
nodes = (
(219,0,l),
(219,422,l),
(445,422,l),
(445,0,l),
(562,0,l),
(562,422,l),
(681,422,l),
(681,511,l),
(562,511,l),
(562,585,ls),
(562,642,o),
(592,648,o),
(619,648,cs),
(634,648,o),
(665,641,o),
(681,635,c),
(681,709,l),
(656,721,o),
(612,728,o),
(583,728,cs),
(502,728,o),
(445,690,o),
(445,599,cs),
(445,511,l),
(219,511,l),
(219,585,ls),
(219,642,o),
(249,648,o),
(276,648,cs),
(291,648,o),
(322,641,o),
(338,635,c),
(338,709,l),
(314,721,o),
(269,728,o),
(240,728,cs),
(160,728,o),
(102,690,o),
(102,599,cs),
(102,511,l),
(43,511,l),
(43,422,l),
(102,422,l),
(102,0,l)
);
},
{
closed = 1;
nodes = (
(896,0,l),
(896,511,l),
(780,511,l),
(780,0,l)
);
},
{
closed = 1;
nodes = (
(898,626,l),
(898,720,l),
(777,720,l),
(777,626,l)
);
}
);
width = 976;
}
);
metricLeft = f;
metricRight = i;
},
{
color = 4;
glyphname = f_f_l;
kernLeft = f;
kernRight = l;
layers = (
{
anchors = (
{
name = caret_1;
pos = (284.667,0);
},
{
name = caret_2;
pos = (569.333,0);
}
);
layerId = "F84504BD-929B-4EC5-838D-CC63F45B30C5";
shapes = (
{
closed = 1;
nodes = (
(164,0,l),
(164,465,l),
(411,465,l),
(411,0,l),
(462,0,l),
(462,465,l),
(581,465,l),
(581,511,l),
(462,511,l),
(462,615,ls),
(462,674,o),
(491,682,o),
(519,682,cs),
(534,682,o),
(565,673,o),
(581,666,c),
(581,711,l),
(564,721,o),
(538,728,o),
(513,728,cs),
(454,728,o),
(411,694,o),
(411,617,cs),
(411,511,l),
(164,511,l),
(164,615,ls),
(164,674,o),
(193,682,o),
(221,682,cs),
(236,682,o),
(267,673,o),
(283,666,c),
(283,711,l),
(266,721,o),
(240,728,o),
(215,728,cs),
(156,728,o),
(113,694,o),
(113,617,cs),
(113,511,l),
(57,511,l),
(57,465,l),
(113,465,l),
(113,0,l)
);
},
{
closed = 1;
nodes = (
(754,0,l),
(754,720,l),
(703,720,l),
(703,0,l)
);
}
);
width = 854;
},
{
anchors = (
{
name = caret_1;
pos = (375.333,0);
},
{
name = caret_2;
pos = (750.667,0);
}
);
layerId = "B61048DD-A105-4E1B-AF86-BB1631F6D87A";
shapes = (
{
closed = 1;
nodes = (
(287,0,l),
(287,369,l),
(488,369,l),
(488,0,l),
(686,0,l),
(686,369,l),
(806,369,l),
(806,511,l),
(686,511,l),
(686,548,ls),
(686,603,o),
(718,606,o),
(743,606,cs),
(758,606,o),
(790,601,o),
(805,596,c),
(805,706,l),
(772,720,o),
(705,728,o),
(671,728,cs),
(563,728,o),
(488,685,o),
(488,577,cs),
(488,511,l),
(287,511,l),
(287,548,ls),
(287,603,o),
(319,606,o),
(344,606,cs),
(359,606,o),
(391,601,o),
(406,596,c),
(406,706,l),
(373,720,o),
(306,728,o),
(272,728,cs),
(164,728,o),
(89,685,o),
(89,577,cs),
(89,511,l),
(25,511,l),
(25,369,l),
(89,369,l),
(89,0,l)
);
},
{
closed = 1;
nodes = (
(1076,0,l),
(1076,720,l),
(878,720,l),
(878,0,l)
);
}
);
width = 1126;
},
{
anchors = (
{
name = caret_1;
pos = (325,0);
},
{
name = caret_2;
pos = (650,0);
}
);
layerId = "D456B91C-7AE2-46C5-8C20-B2F338249762";
shapes = (
{
closed = 1;
nodes = (
(219,0,l),
(219,422,l),
(445,422,l),
(445,0,l),
(562,0,l),
(562,422,l),
(681,422,l),
(681,511,l),
(562,511,l),
(562,585,ls),
(562,642,o),
(592,648,o),
(619,648,cs),
(634,648,o),
(665,641,o),
(681,635,c),
(681,709,l),
(656,721,o),
(612,728,o),
(583,728,cs),
(502,728,o),
(445,690,o),
(445,599,cs),
(445,511,l),
(219,511,l),
(219,585,ls),
(219,642,o),
(249,648,o),
(276,648,cs),
(291,648,o),
(322,641,o),
(338,635,c),
(338,709,l),
(314,721,o),
(269,728,o),
(240,728,cs),
(160,728,o),
(102,690,o),
(102,599,cs),
(102,511,l),
(43,511,l),
(43,422,l),
(102,422,l),
(102,0,l)
);
},
{
closed = 1;
nodes = (
(897,0,l),
(897,720,l),
(781,720,l),
(781,0,l)
);
}
);
width = 975;
}
);
metricLeft = f;
metricRight = l;
},
{
color = 4;
glyphname = fi;
kernLeft = f;
kernRight = i;
layers = (
{
anchors = (
{
name = caret_1;
pos = (300.5,0);
}
);
layerId = "F84504BD-929B-4EC5-838D-CC63F45B30C5";
shapes = (
{
closed = 1;
nodes = (
(154,0,l),
(154,465,l),
(273,465,l),
(273,511,l),
(154,511,l),
(154,615,ls),
(154,674,o),
(183,682,o),
(211,682,cs),
(226,682,o),
(257,673,o),
(273,666,c),
(273,711,l),
(256,721,o),
(230,728,o),
(205,728,cs),
(146,728,o),
(103,694,o),
(103,617,cs),
(103,511,l),
(47,511,l),
(47,465,l),
(103,465,l),
(103,0,l)
);
},
{
closed = 1;
nodes = (
(447,0,l),
(447,511,l),
(396,511,l),
(396,0,l)
);
},
{
closed = 1;
nodes = (
(451,666,l),
(451,720,l),
(392,720,l),
(392,666,l)
);
}
);
width = 601;
},
{
anchors = (
{
name = caret_1;
pos = (350.5,0);
}
);
background = {
shapes = (
{
closed = 1;
nodes = (
(164,728,o),
(89,685,o),
(89,577,cs),
(89,511,l),
(25,511,l),
(25,369,l),
(89,369,l),
(89,0,l),
(287,0,l),
(287,369,l),
(407,369,l),
(407,511,l),
(287,511,l),
(287,548,ls),
(287,603,o),
(319,606,o),
(344,606,cs),
(359,606,o),
(391,601,o),
(406,596,c),
(406,706,l),
(373,720,o),
(306,728,o),
(272,728,cs)
);
},
{
closed = 1;
nodes = (
(652,720,l),
(455,720,l),
(455,577,l),
(652,577,l)
);
},
{
closed = 1;
nodes = (
(652,510,l),
(455,510,l),
(455,0,l),
(652,0,l)
);
}
);
};
layerId = "B61048DD-A105-4E1B-AF86-BB1631F6D87A";
shapes = (
{
closed = 1;
nodes = (
(287,0,l),
(287,369,l),
(407,369,l),
(407,511,l),
(287,511,l),
(287,548,ls),
(287,603,o),
(319,606,o),
(344,606,cs),
(359,606,o),
(391,601,o),
(406,596,c),
(406,706,l),
(373,720,o),
(306,728,o),
(272,728,cs),
(164,728,o),
(89,685,o),
(89,577,cs),
(89,511,l),
(25,511,l),
(25,369,l),
(89,369,l),
(89,0,l)
);
},
{
closed = 1;
nodes = (
(652,0,l),
(652,510,l),
(455,510,l),
(455,0,l)
);
},
{
closed = 1;
nodes = (
(652,577,l),
(652,720,l),
(455,720,l),
(455,577,l)
);
}
);
width = 701;
},
{
anchors = (
{
name = caret_1;
pos = (322.5,0);
}
);
layerId = "D456B91C-7AE2-46C5-8C20-B2F338249762";
shapes = (
{
closed = 1;
nodes = (
(213,0,l),
(213,422,l),
(333,422,l),
(333,511,l),
(213,511,l),
(213,585,ls),
(213,642,o),
(243,648,o),
(270,648,cs),
(285,648,o),
(317,641,o),
(332,635,c),
(332,709,l),
(308,721,o),
(264,728,o),
(235,728,cs),
(154,728,o),
(97,690,o),
(97,599,cs),
(97,511,l),
(37,511,l),
(37,422,l),
(97,422,l),
(97,0,l)
);
},
{
closed = 1;
nodes = (
(538,0,l),
(538,511,l),
(422,511,l),
(422,0,l)
);
},
{
closed = 1;
nodes = (
(540,626,l),
(540,720,l),
(420,720,l),
(420,626,l)
);
}
);
width = 645;
}
);
note = fi;
unicode = 64257;
},
{
color = 4;
glyphname = fl;
kernLeft = f;
kernRight = l;
layers = (
{
anchors = (
{
name = caret_1;
pos = (303.5,0);
}
);
layerId = "F84504BD-929B-4EC5-838D-CC63F45B30C5";
shapes = (
{
closed = 1;
nodes = (
(154,0,l),
(154,465,l),
(273,465,l),
(273,511,l),
(154,511,l),
(154,615,ls),
(154,674,o),
(183,682,o),
(211,682,cs),
(226,682,o),
(257,673,o),
(273,666,c),
(273,711,l),
(256,721,o),
(230,728,o),
(205,728,cs),
(146,728,o),
(103,694,o),
(103,617,cs),
(103,511,l),
(47,511,l),
(47,465,l),
(103,465,l),
(103,0,l)
);
},
{
closed = 1;
nodes = (
(449,0,l),
(449,720,l),
(398,720,l),
(398,0,l)
);
}
);
width = 607;
},
{
anchors = (
{
name = caret_1;
pos = (351.5,0);
}
);
layerId = "B61048DD-A105-4E1B-AF86-BB1631F6D87A";
shapes = (
{
closed = 1;
nodes = (
(287,0,l),
(287,369,l),
(407,369,l),
(407,511,l),
(287,511,l),
(287,548,ls),
(287,603,o),
(319,606,o),
(344,606,cs),
(359,606,o),
(391,601,o),
(406,596,c),
(406,706,l),
(373,720,o),
(306,728,o),
(272,728,cs),
(164,728,o),
(89,685,o),
(89,577,cs),
(89,511,l),
(25,511,l),
(25,369,l),
(89,369,l),
(89,0,l)
);
},
{
closed = 1;
nodes = (
(653,0,l),
(653,720,l),
(455,720,l),
(455,0,l)
);
}
);
width = 703;
},
{
anchors = (
{
name = caret_1;
pos = (325,0);
}
);
layerId = "D456B91C-7AE2-46C5-8C20-B2F338249762";
shapes = (
{
closed = 1;
nodes = (
(213,0,l),
(213,422,l),
(333,422,l),
(333,511,l),
(213,511,l),
(213,585,ls),
(213,642,o),
(243,648,o),
(270,648,cs),
(285,648,o),
(317,641,o),
(332,635,c),
(332,709,l),
(308,721,o),
(264,728,o),
(235,728,cs),
(154,728,o),
(97,690,o),
(97,599,cs),
(97,511,l),
(37,511,l),
(37,422,l),
(97,422,l),
(97,0,l)
);
},
{
closed = 1;
nodes = (
(540,0,l),
(540,720,l),
(423,720,l),
(423,0,l)
);
}
);
width = 650;
}
);
note = fl;
unicode = 64258;
},
{
color = 4;
glyphname = nmod;
layers = (
{
background = {
shapes = (
{
closed = 1;
nodes = (
(203,697,l),
(135,697,o),
(82,666,o),
(82,609,cs),
(82,607,o),
(82,598,o),
(84,594,c),
(122,594,l),
(122,603,ls),
(122,644,o),
(157,660,o),
(203,660,cs),
(255,660,o),
(277,644,o),
(277,597,cs),
(277,564,l),
(158,564,o),
(71,554,o),
(71,463,cs),
(71,391,o),
(120,373,o),
(171,373,cs),
(217,373,o),
(251,388,o),
(277,421,c),
(280,392,o),
(291,373,o),
(320,373,cs),
(336,373,o),
(351,378,o),
(363,387,c),
(363,424,l),
(350,416,o),
(336,410,o),
(328,410,cs),
(322,410,o),
(317,414,o),
(317,425,cs),
(317,603,ls),
(317,666,o),
(282,697,o),
(208,697,cs)
);
},
{
closed = 1;
nodes = (
(277,512,ls),
(277,441,o),
(226,410,o),
(177,410,cs),
(131,410,o),
(111,426,o),
(111,462,cs),
(111,522,o),
(176,527,o),
(277,527,c)
);
}
);
};
layerId = "F84504BD-929B-4EC5-838D-CC63F45B30C5";
shapes = (
{
closed = 1;
nodes = (
(104,378,l),
(104,570,ls),
(104,627,o),
(145,660,o),
(200,660,cs),
(252,660,o),
(278,642,o),
(278,577,cs),
(278,378,l),
(317,378,l),
(317,585,ls),
(317,666,o),
(271,697,o),
(206,697,cs),
(165,697,o),
(122,677,o),
(101,644,c),
(94,691,l),
(65,691,l),
(65,378,l)
);
}
);
width = 369;
},
{
background = {
shapes = (
{
closed = 1;
nodes = (
(170,695,ls),
(82,695,o),
(26,655,o),
(26,603,cs),
(26,600,o),
(26,598,o),
(27,594,c),
(141,594,l),
(141,597,ls),
(141,615,o),
(164,625,o),
(179,625,cs),
(202,625,o),
(218,612,o),
(218,589,cs),
(218,572,l),
(94,572,o),
(17,552,o),
(17,468,cs),
(17,386,o),
(76,376,o),
(125,376,cs),
(174,376,o),
(203,401,o),
(224,425,c),
(231,396,o),
(259,376,o),
(312,376,cs),
(341,376,o),
(360,382,o),
(373,390,c),
(373,454,l),
(364,451,o),
(360,449,o),
(352,449,cs),
(344,449,o),
(333,455,o),
(333,471,cs),
(333,597,ls),
(333,653,o),
(287,695,o),
(190,695,cs)
);
},
{
closed = 1;
nodes = (
(218,491,ls),
(218,464,o),
(200,449,o),
(177,449,cs),
(158,449,o),
(141,454,o),
(141,477,cs),
(141,500,o),
(163,517,o),
(218,517,c)
);
}
);
};
layerId = "B61048DD-A105-4E1B-AF86-BB1631F6D87A";
shapes = (
{
closed = 1;
nodes = (
(144,382,l),
(144,580,ls),
(144,600,o),
(159,616,o),
(181,616,cs),
(204,616,o),
(218,600,o),
(218,580,cs),
(218,382,l),
(333,382,l),
(333,606,ls),
(333,658,o),
(295,696,o),
(234,696,cs),
(188,696,o),
(158,681,o),
(132,645,c),
(120,690,l),
(30,690,l),
(30,382,l)
);
}
);
width = 367;
},
{
layerId = "D456B91C-7AE2-46C5-8C20-B2F338249762";
shapes = (
{
closed = 1;
nodes = (
(122,380,l),
(122,574,ls),
(122,615,o),
(151,640,o),
(192,640,cs),
(231,640,o),
(251,623,o),
(251,578,cs),
(251,380,l),
(324,380,l),
(324,594,ls),
(324,662,o),
(282,697,o),
(218,697,cs),
(175,697,o),
(138,679,o),
(115,644,c),
(106,691,l),
(49,691,l),
(49,380,l)
);
}
);
width = 368;
}
);
unicode = 8319;
},
{
color = 4;
glyphname = ordfeminine;
layers = (
{
layerId = "F84504BD-929B-4EC5-838D-CC63F45B30C5";
shapes = (
{
closed = 1;
nodes = (
(211,373,o),
(245,388,o),
(271,421,c),
(274,392,o),
(285,373,o),
(314,373,cs),
(330,373,o),
(345,378,o),
(357,387,c),
(357,424,l),
(344,416,o),
(330,410,o),
(322,410,cs),
(316,410,o),
(311,414,o),
(311,425,cs),
(311,603,ls),
(311,666,o),
(275,697,o),
(201,697,cs),
(196,697,ls),
(128,697,o),
(76,666,o),
(76,609,cs),
(76,607,o),
(76,598,o),
(78,594,c),
(116,594,l),
(116,603,ls),
(116,644,o),
(151,660,o),
(197,660,cs),
(249,660,o),
(271,644,o),
(271,597,cs),
(271,564,l),
(152,564,o),
(65,554,o),
(65,463,cs),
(65,391,o),
(114,373,o),
(165,373,cs)
);
},
{
closed = 1;
nodes = (
(125,410,o),
(105,426,o),
(105,462,cs),
(105,522,o),
(170,527,o),
(271,527,c),
(271,512,ls),
(271,441,o),
(220,410,o),
(171,410,cs)
);
}
);
width = 415;
},
{
layerId = "B61048DD-A105-4E1B-AF86-BB1631F6D87A";
shapes = (
{
closed = 1;
nodes = (
(181,376,o),
(220,401,o),
(241,425,c),
(248,396,o),
(276,376,o),
(329,376,cs),
(358,376,o),
(377,382,o),
(390,390,c),
(390,454,l),
(381,451,o),
(377,449,o),
(369,449,cs),
(361,449,o),
(350,455,o),
(350,471,cs),
(350,597,ls),
(350,653,o),
(304,695,o),
(207,695,cs),
(187,695,ls),
(99,695,o),
(43,655,o),
(43,603,cs),
(43,600,o),
(43,598,o),
(44,594,c),
(158,594,l),
(158,597,ls),
(158,615,o),
(181,625,o),
(196,625,cs),
(219,625,o),
(235,612,o),
(235,589,cs),
(235,572,l),
(111,572,o),
(34,552,o),
(34,468,cs),
(34,406,o),
(73,376,o),
(132,376,cs)
);
},
{
closed = 1;
nodes = (
(175,449,o),
(158,454,o),
(158,477,cs),
(158,500,o),
(180,517,o),
(235,517,c),
(235,491,ls),
(235,464,o),
(217,449,o),
(194,449,cs)
);
}
);
width = 420;
},
{
layerId = "D456B91C-7AE2-46C5-8C20-B2F338249762";
shapes = (
{
closed = 1;
nodes = (
(202,374,o),
(234,394,o),
(258,423,c),
(262,394,o),
(281,374,o),
(321,374,cs),
(342,374,o),
(359,380,o),
(372,388,c),
(372,437,l),
(360,432,o),
(351,427,o),
(343,427,cs),
(336,427,o),
(328,432,o),
(328,445,cs),
(328,600,ls),
(328,660,o),
(288,696,o),
(204,696,cs),
(193,696,ls),
(116,696,o),
(61,661,o),
(61,606,cs),
(61,604,o),
(61,598,o),
(63,594,c),
(135,594,l),
(135,600,ls),
(135,631,o),
(164,644,o),
(197,644,cs),
(236,644,o),
(255,630,o),
(255,593,cs),
(255,568,l),
(134,568,o),
(51,553,o),
(51,465,cs),
(51,395,o),
(105,374,o),
(155,374,cs)
);
},
{
closed = 1;
nodes = (
(147,427,o),
(129,438,o),
(129,469,cs),
(129,512,o),
(174,523,o),
(255,523,c),
(255,503,ls),
(255,451,o),
(219,427,o),
(181,427,cs)
);
}
);
width = 417;
}
);
note = ordfeminine;
unicode = 170;
},
{
color = 4;
glyphname = ordmasculine;
layers = (
{
layerId = "F84504BD-929B-4EC5-838D-CC63F45B30C5";
shapes = (
{
closed = 1;
nodes = (
(274,377,o),
(329,433,o),
(329,533,cs),
(329,542,ls),
(329,642,o),
(274,698,o),
(196,698,cs),
(120,698,o),
(65,642,o),
(65,542,cs),
(65,533,ls),
(65,433,o),
(120,377,o),
(196,377,cs)
);
},
{
closed = 1;
nodes = (
(145,413,o),
(105,450,o),
(105,530,cs),
(105,545,ls),
(105,624,o),
(145,661,o),
(196,661,cs),
(248,661,o),
(288,624,o),
(288,545,cs),
(288,530,ls),
(288,450,o),
(248,413,o),
(196,413,cs)
);
}
);
width = 394;
},
{
layerId = "B61048DD-A105-4E1B-AF86-BB1631F6D87A";
shapes = (
{
closed = 1;
nodes = (
(299,378,o),
(367,436,o),
(367,531,cs),
(367,544,ls),
(367,636,o),
(301,697,o),
(198,697,cs),
(98,697,o),
(30,638,o),
(30,544,cs),
(30,531,ls),
(30,439,o),
(95,378,o),
(198,378,cs)
);
},
{
closed = 1;
nodes = (
(176,451,o),
(157,469,o),
(157,493,cs),
(157,582,ls),
(157,605,o),
(176,624,o),
(199,624,cs),
(222,624,o),
(240,605,o),
(240,582,cs),
(240,493,ls),
(240,469,o),
(222,451,o),
(199,451,cs)
);
}
);
width = 397;
},
{
layerId = "D456B91C-7AE2-46C5-8C20-B2F338249762";
shapes = (
{
closed = 1;
nodes = (
(282,377,o),
(346,434,o),
(346,532,cs),
(346,543,ls),
(346,639,o),
(289,698,o),
(200,698,cs),
(113,698,o),
(49,640,o),
(49,543,cs),
(49,532,ls),
(49,436,o),
(106,377,o),
(194,377,cs)
);
},
{
closed = 1;
nodes = (
(159,430,o),
(128,458,o),
(128,514,cs),
(128,561,ls),
(128,616,o),
(159,645,o),
(197,645,cs),
(236,645,o),
(267,616,o),
(267,561,cs),
(267,514,ls),
(267,458,o),
(236,430,o),
(197,430,cs)
);
}
);
width = 395;
}
);
note = ordmasculine;
unicode = 186;
},
{
color = 4;
glyphname = Delta;
layers = (
{
layerId = "F84504BD-929B-4EC5-838D-CC63F45B30C5";
shapes = (
{
closed = 1;
nodes = (
(634,0,l),
(634,48,l),
(394,686,l),
(306,686,l),
(67,48,l),
(67,0,l)
);
},
{
closed = 1;
nodes = (
(350,639,l),
(569,55,l),
(131,55,l)
);
}
);
width = 701;
},
{
layerId = "B61048DD-A105-4E1B-AF86-BB1631F6D87A";
shapes = (
{
closed = 1;
nodes = (
(609,0,l),
(609,93,l),
(386,686,l),
(247,686,l),
(25,93,l),
(25,0,l)
);
},
{
closed = 1;
nodes = (
(318,525,l),
(465,109,l),
(169,109,l)
);
}
);
width = 634;
},
{
layerId = "D456B91C-7AE2-46C5-8C20-B2F338249762";
shapes = (
{
closed = 1;
nodes = (
(623,0,l),
(623,68,l),
(390,686,l),
(280,686,l),
(48,68,l),
(48,0,l)
);
},
{
closed = 1;
nodes = (
(336,588,l),
(523,79,l),
(148,79,l)
);
}
);
width = 671;
}
);
note = uni0394;
unicode = (916,948);
},
{
color = 4;
glyphname = Omega;
layers = (
{
background = {
shapes = (
{
closed = 1;
nodes = (
(466,648,o),
(561,595,o),
(561,368,cs),
(561,306,ls),
(561,106,o),
(487,41,o),
(389,29,c),
(389,0,l),
(636,0,l),
(636,48,l),
(591,48,l),
(520,44,l),
(578,94,o),
(615,182,o),
(615,330,cs),
(615,356,ls),
(615,631,o),
(496,696,o),
(349,696,cs),
(202,696,o),
(83,631,o),
(83,356,cs),
(83,330,ls),
(83,182,o),
(120,94,o),
(178,44,c),
(105,48,l),
(60,48,l),
(60,0,l),
(307,0,l),
(307,29,l),
(210,42,o),
(137,106,o),
(137,306,cs),
(137,368,ls),
(137,595,o),
(232,648,o),
(349,648,cs)
);
}
);
};
layerId = "F84504BD-929B-4EC5-838D-CC63F45B30C5";
shapes = (
{
closed = 1;
nodes = (
(307,0,l),
(307,29,l),
(210,42,o),
(137,106,o),
(137,306,cs),
(137,368,ls),
(137,595,o),
(232,648,o),
(349,648,cs),
(466,648,o),
(561,595,o),
(561,368,cs),
(561,306,ls),
(561,106,o),
(487,41,o),
(389,29,c),
(389,0,l),
(636,0,l),
(636,48,l),
(591,48,l),
(520,44,l),
(578,94,o),
(615,182,o),
(615,330,cs),
(615,356,ls),
(615,628,o),
(498,696,o),
(353,696,cs),
(347,696,ls),
(202,696,o),
(83,631,o),
(83,356,cs),
(83,330,ls),
(83,182,o),
(120,94,o),
(178,44,c),
(105,48,l),
(60,48,l),
(60,0,l)
);
}
);
width = 696;
},
{
layerId = "B61048DD-A105-4E1B-AF86-BB1631F6D87A";
shapes = (
{
closed = 1;
nodes = (
(342,0,l),
(342,85,l),
(306,100,o),
(281,136,o),
(281,177,cs),
(281,440,ls),
(281,495,o),
(322,540,o),
(386,540,cs),
(442,540,o),
(486,496,o),
(486,440,cs),
(486,177,ls),
(486,134,o),
(460,100,o),
(424,85,c),
(424,0,l),
(729,0,l),
(729,162,l),
(718,162,l),
(605,142,l),
(670,202,o),
(711,270,o),
(711,350,cs),
(711,394,ls),
(711,560,o),
(577,694,o),
(411,694,cs),
(355,694,ls),
(189,694,o),
(55,560,o),
(55,394,cs),
(55,350,ls),
(55,270,o),
(95,202,o),
(160,142,c),
(48,162,l),
(37,162,l),
(37,0,l)
);
}
);
width = 766;
},
{
layerId = "D456B91C-7AE2-46C5-8C20-B2F338249762";
shapes = (
{
closed = 1;
nodes = (
(323,0,l),
(323,54,l),
(253,68,o),
(201,119,o),
(201,249,cs),
(201,400,ls),
(201,551,o),
(272,600,o),
(365,600,cs),
(455,600,o),
(528,551,o),
(528,400,cs),
(528,249,ls),
(528,118,o),
(475,67,o),
(405,54,c),
(405,0,l),
(677,0,l),
(677,99,l),
(647,99,l),
(558,88,l),
(619,142,o),
(658,221,o),
(658,339,cs),
(658,373,ls),
(658,598,o),
(533,695,o),
(379,695,cs),
(351,695,ls),
(196,695,o),
(71,599,o),
(71,373,cs),
(71,339,ls),
(71,221,o),
(109,142,o),
(170,88,c),
(80,99,l),
(50,99,l),
(50,0,l)
);
}
);
width = 727;
}
);
note = uni03A9;
unicode = (937,969);
},
